<?xml version="1.0" encoding="utf-8"?>
<!-- Generator: Adobe Illustrator 24.1.2, SVG Export Plug-In . SVG Version: 6.00 Build 0)  -->
<svg version="1.1" id="Camada_1" xmlns="http://www.w3.org/2000/svg" xmlns:xlink="http://www.w3.org/1999/xlink" x="0px" y="0px"
	 viewBox="0 0 1000 706" style="enable-background:new 0 0 1000 706;" xml:space="preserve">
<style type="text/css">
	.st0{fill:#FFA701;}
	.st1{fill:#5EC74C;}
	.st2{fill:#00B2BC;}
	.st3{fill:#BA0056;}
	.st4{fill:#700058;}
	.st5{fill:#005895;}
	.st6{fill:#39006A;}
	.st7{fill:#FFFFFF;}
	.st8{font-family:'Roboto-Bold';}
	.st9{font-size:29.2717px;}
	.st10{font-size:21.7133px;}
	.st11{font-size:18.829px;}
	.st12{fill:#B5B5B5;}
</style>
<circle class="st0" cx="349" cy="342" r="116"/>
<circle class="st1" cx="237.5" cy="102.5" r="85.5"/>
<circle class="st2" cx="96.5" cy="260.5" r="85.5"/>
<circle class="st3" cx="637.5" cy="346.5" r="85.5"/>
<circle class="st4" cx="895.5" cy="341.5" r="85.5"/>
<circle class="st5" cx="117.5" cy="468.5" r="85.5"/>
<circle class="st6" cx="288.5" cy="599.5" r="85.5"/>
<text transform="matrix(1 0 0 1 261.2634 333.5259)"><tspan x="0" y="0" class="st7 st8 st9">SEMINÁRIOS</tspan><tspan x="7.55" y="35.13" class="st7 st8 st9">TEMÁTICOS</tspan></text>
<text transform="matrix(1 0 0 1 579.3896 339.8174)"><tspan x="0" y="0" class="st7 st8 st10">CONSULTA </tspan><tspan x="13.67" y="26.06" class="st7 st8 st10">PÚBLICA</tspan></text>
<text transform="matrix(1 0 0 1 240.6736 564.5024)"><tspan x="0" y="0" class="st7 st8 st11">COMISSÃO</tspan><tspan x="12.73" y="22.59" class="st7 st8 st11">ABERTA</tspan><tspan x="0.67" y="67.78" class="st7 st8 st11">LAGOA DO </tspan><tspan x="26" y="90.38" class="st7 st8 st11">SINO</tspan></text>
<text transform="matrix(1 0 0 1 69.6736 440.7998)"><tspan x="0" y="0" class="st7 st8 st11">COMISSÃO</tspan><tspan x="12.73" y="22.59" class="st7 st8 st11">ABERTA</tspan><tspan x="-1.34" y="67.78" class="st7 st8 st11">SOROCABA</tspan></text>
<text transform="matrix(1 0 0 1 48.6736 232.7998)"><tspan x="0" y="0" class="st7 st8 st11">COMISSÃO</tspan><tspan x="12.73" y="22.59" class="st7 st8 st11">ABERTA</tspan><tspan x="11.33" y="67.78" class="st7 st8 st11">ARARAS</tspan></text>
<text transform="matrix(1 0 0 1 189.6736 74.7998)"><tspan x="0" y="0" class="st7 st8 st11">COMISSÃO</tspan><tspan x="12.73" y="22.59" class="st7 st8 st11">ABERTA</tspan><tspan x="-8.71" y="67.78" class="st7 st8 st11">SÃO CARLOS</tspan></text>
<text transform="matrix(1 0 0 1 852.6089 348.3506)" class="st7 st8 st10">FÓRUNS</text>
<polygon class="st12" points="296.6,224.64 255.98,201.28 308.72,179.37 "/>
<polygon class="st12" points="229.39,293.99 185.47,310.32 202.32,255.75 "/>
<polygon class="st12" points="233.84,396.85 217.52,440.78 187.19,392.38 "/>
<polygon class="st12" points="319.81,468.96 341.35,510.58 285.13,500.48 "/>
<polygon class="st12" points="530.15,342.29 493,370.86 492.99,313.74 "/>
<polygon class="st12" points="788.15,346.29 751,374.86 750.99,317.74 "/>
</svg>
