<?xml version="1.0" encoding="utf-8"?>
<!-- Generator: Adobe Illustrator 24.1.2, SVG Export Plug-In . SVG Version: 6.00 Build 0)  -->
<svg version="1.1" id="Camada_1" xmlns="http://www.w3.org/2000/svg" xmlns:xlink="http://www.w3.org/1999/xlink" x="0px" y="0px"
	 viewBox="0 0 1000 962.5" style="enable-background:new 0 0 1000 962.5;" xml:space="preserve">
<style type="text/css">
	.st0{fill:#FF4B0B;}
	.st1{fill:#230B05;}
	.st2{font-family:'Roboto-Medium';}
	.st3{font-size:16px;}
	.st4{font-family:'Roboto-Regular';}
	.st5{font-size:20px;}
	.st6{letter-spacing:-1.1;}
	.st7{fill:none;stroke:#231F20;}
	.st8{fill:none;stroke:#08B260;stroke-miterlimit:10;}
	.st9{fill:#08B260;}
	.st10{fill:none;stroke:#FF920B;stroke-width:2;stroke-miterlimit:10;}
</style>
<path class="st0" d="M121,68.9h0.1c3.4,0,6.2,2.8,6.2,6.2V360l0,0h-12.6l0,0V75.2C114.7,71.7,117.5,68.9,121,68.9
	C121,68.9,121,68.9,121,68.9z"/>
<path class="st0" d="M294.1,101.9h0.1c3.4,0,6.2,2.8,6.2,6.2V360l0,0h-12.6l0,0V108.2C287.8,104.7,290.6,101.9,294.1,101.9
	L294.1,101.9z"/>
<path class="st0" d="M351.7,62.9h0.1c3.4,0,6.2,2.8,6.2,6.2V360l0,0h-12.6l0,0V69.2C345.4,65.7,348.2,62.9,351.7,62.9z"/>
<path class="st0" d="M409.4,110.9h0.1c3.4,0,6.2,2.8,6.2,6.2V360l0,0h-12.6l0,0V117.2C403.2,113.7,406,110.9,409.4,110.9z"/>
<path class="st0" d="M466.3,201.9h0.1c3.4,0,6.2,2.8,6.2,6.2V360l0,0H460l0,0V208.2C460,204.7,462.8,201.9,466.3,201.9L466.3,201.9z
	"/>
<path class="st0" d="M524.8,156.9h0.1c3.4,0,6.2,2.8,6.2,6.2V360l0,0h-12.6l0,0V163.2C518.5,159.7,521.3,156.9,524.8,156.9
	L524.8,156.9z"/>
<path class="st0" d="M582.5,54.9h0.1c3.4,0,6.2,2.8,6.2,6.2V360l0,0h-12.6l0,0V61.2C576.2,57.7,579,54.9,582.5,54.9L582.5,54.9z"/>
<path class="st0" d="M640.1,134.9h0.1c3.4,0,6.2,2.8,6.2,6.2V360l0,0h-12.6l0,0V141.2C633.9,137.7,636.7,134.9,640.1,134.9z"/>
<path class="st0" d="M697.8,70.9h0.1c3.4,0,6.2,2.8,6.2,6.2V360l0,0h-12.6l0,0V77.2C691.6,73.7,694.4,70.9,697.8,70.9z"/>
<path class="st0" d="M813.2,58.9h0.1c3.4,0,6.2,2.8,6.2,6.2V360l0,0h-12.6l0,0V65.2C806.9,61.7,809.7,58.9,813.2,58.9z"/>
<path class="st0" d="M870.8,128.9h0.2c3.4,0,6.2,2.8,6.2,6.2V360l0,0h-12.6l0,0V135.2C864.6,131.7,867.4,128.9,870.8,128.9
	L870.8,128.9z"/>
<path class="st0" d="M928.5,63.9h0.1c3.4,0,6.2,2.8,6.2,6.2V359l0,0h-12.6l0,0V70.2C922.3,66.7,925.1,63.9,928.5,63.9z"/>
<path class="st0" d="M755.5,155.9h0.1c3.4,0,6.2,2.8,6.2,6.2V360l0,0h-12.6l0,0V162.2C749.2,158.7,752,155.9,755.5,155.9z"/>
<path class="st0" d="M178.7,179.9h0.1c3.4,0,6.2,2.8,6.2,6.2v0V360l0,0h-12.6l0,0V186.2C172.5,182.7,175.3,179.9,178.7,179.9
	L178.7,179.9z"/>
<path class="st0" d="M236.4,237.9h0.1c3.4,0,6.2,2.8,6.2,6.2v0V360l0,0h-12.6l0,0V244.2C230.2,240.7,233,237.9,236.4,237.9
	L236.4,237.9L236.4,237.9z"/>
<path class="st0" d="M61.3,225.9h0.1c3.4,0,6.2,2.8,6.2,6.2l0,0V360l0,0H55l0,0V232.2C55,228.7,57.8,225.9,61.3,225.9
	C61.2,225.9,61.3,225.9,61.3,225.9z"/>
<text transform="matrix(0.93 0 0 1 30.3003 665.7197)" class="st1 st2 st3">Ditadu</text>
<text transform="matrix(0.93 0 0 1 73.4893 665.7197)" class="st1 st2 st3">r</text>
<text transform="matrix(0.93 0 0 1 78.502 665.7197)" class="st1 st2 st3">a/</text>
<text transform="matrix(0.93 0 0 1 22.7207 684.9199)" class="st1 st2 st3">r</text>
<text transform="matrix(0.93 0 0 1 27.8076 684.9199)" class="st1 st2 st3">et</text>
<text transform="matrix(0.93 0 0 1 40.7441 684.9199)" class="st1 st2 st3">r</text>
<text transform="matrix(0.93 0 0 1 45.7568 684.9199)" class="st1 st2 st3">aimen</text>
<text transform="matrix(0.93 0 0 1 86.8164 684.9199)" class="st1 st2 st3">t</text>
<text transform="matrix(0.93 0 0 1 91.5405 684.9199)" class="st1 st2 st3">o</text>
<text transform="matrix(0.93 0 0 1 20.9258 704.1201)" class="st1 st2 st3">de atividade</text>
<text transform="matrix(0.93 0 0 1 26.543 723.3203)" class="st1 st2 st3">intelectual</text>
<text transform="matrix(1 0 0 1 36.46 193.19)" class="st1 st4 st5">B</text>
<text transform="matrix(1 0 0 1 48.91 193.19)" class="st1 st4 st5">r</text>
<text transform="matrix(1 0 0 1 55.29 193.19)" class="st1 st4 st5">asil</text>
<text transform="matrix(1 0 0 1 38.86 217.19)" class="st1 st4 st5">1970</text>
<text transform="matrix(1 0 0 1 98.58 53.98)" class="st1 st4 st5">1981</text>
<text transform="matrix(1 0 0 1 156.32 166.86)" class="st1 st4 st5">1989</text>
<text transform="matrix(1 0 0 1 214 224.86)" class="st1 st4 st5">1990</text>
<text transform="matrix(1 0 0 1 271.68 87.6)" class="st1 st4 st5">1991</text>
<text transform="matrix(1 0 0 1 329.28 49.86)" class="st1 st4 st5">1994</text>
<text transform="matrix(1 0 0 1 387.03 97.86)" class="st1 st4 st5">1997</text>
<text transform="matrix(1 0 0 1 443.86 188.86)" class="st1 st4 st5">1998</text>
<text transform="matrix(1 0 0 1 502.38 143.86)" class="st1 st4 st5">1999</text>
<text transform="matrix(1 0 0 1 560.06 40.83)" class="st1 st4 st5">2000</text>
<text transform="matrix(1 0 0 1 617.74 121.89)" class="st1 st4 st5">2001</text>
<text transform="matrix(1 0 0 1 675.4199 56.43)" class="st1 st4 st5">2002</text>
<text transform="matrix(1 0 0 1 733.0901 142.86)" class="st1 st4 st5">2005</text>
<text transform="matrix(1 0 0 1 790.77 45.78)" class="st1 st4 st5">2006</text>
<text transform="matrix(1 0 0 1 848.45 117.06)" class="st1 st4 st5">2008</text>
<text transform="matrix(1 0 0 1 906.13 48.8101)" class="st1 st4 st5">2009</text>
<text transform="matrix(0.93 0 0 1 106.0601 479.7197)" class="st1 st2 st3">A</text>
<text transform="matrix(0.93 0 0 1 115.6113 479.7197)" class="st1 st2 st3">no </text>
<text transform="matrix(0.93 0 0 1 77.4907 498.9199)" class="st1 st2 st3">Internacional</text>
<text transform="matrix(0.93 0 0 1 78.6626 518.1201)" class="st1 st2 st3">das </text>
<text transform="matrix(0.93 0 0 1 106.4971 518.1201)" class="st1 st2 st3">P</text>
<text transform="matrix(0.93 0 0 1 115.918 518.1201)" class="st1 st2 st3">essoas</text>
<text transform="matrix(0.93 0 0 1 83.4424 537.3198)" class="st1 st2 st3">Deficientes</text>
<text transform="matrix(0.93 0 0 1 168.8804 593.6299)" class="st1 st2 st3">Lei</text>
<text transform="matrix(0.93 0 0 1 151.7402 612.8301)" class="st1 st2 st3">n. 7.853</text>
<text transform="matrix(0.93 0 0 1 155.0977 632.0303)" class="st1 st2 st3">CORDE</text>
<text transform="matrix(0.93 0 0 1 222.4702 697.7998)" class="st1 st2 st3">ECA</text>
<text transform="matrix(0.93 0 0 1 204.8467 727.7998)" class="st1 st2 st3">Jomtien -</text>
<text transform="matrix(0.93 0 0 1 203.9355 742.7998)" class="st1 st2 st3">E</text>
<text transform="matrix(0.93 0 0 1 212.2124 742.7998)" class="st1 st2 st3">ducação</text>
<text transform="matrix(0.93 0 0 1 199.834 757.7998)" class="st1 st2 st3">pa</text>
<text transform="matrix(0.93 0 0 1 216.2578 757.7998)" class="st1 st2 st3">r</text>
<text transform="matrix(0.93 0 0 1 221.2705 757.7998)" class="st1 st2 st3">a</text>
<text transform="matrix(0.93 0 0 1 229.3242 757.7998)" class="st1 st2 st3"> </text>
<text transform="matrix(0.93 0 0 1 232.5977 757.7998)" class="st1 st2 st3 st6">T</text>
<text transform="matrix(0.93 0 0 1 240.1123 757.7998)" class="st1 st2 st3">odos</text>
<text transform="matrix(0.93 0 0 1 252.9502 541.8604)" class="st1 st2 st3">Lei de Cotas</text>
<text transform="matrix(0.93 0 0 1 260.7065 561.0596)" class="st1 st2 st3">emp</text>
<text transform="matrix(0.93 0 0 1 290.02 561.0596)" class="st1 st2 st3">r</text>
<text transform="matrix(0.93 0 0 1 295.1162 561.0596)" class="st1 st2 st3">egos</text>
<text transform="matrix(0.93 0 0 1 304.4102 454.7197)" class="st1 st2 st3">Decla</text>
<text transform="matrix(0.93 0 0 1 341.7588 454.7197)" class="st1 st2 st3">r</text>
<text transform="matrix(0.93 0 0 1 346.7715 454.7197)" class="st1 st2 st3">ação de</text>
<text transform="matrix(0.93 0 0 1 314.8169 473.9199)" class="st1 st2 st3">Salamanca</text>
<text transform="matrix(0.93 0 0 1 352.1104 771.7197)" class="st1 st2 st3">Ética e Cidadania</text>
<text transform="matrix(0.93 0 0 1 376.8945 790.9199)" class="st1 st2 st3">no Ensino</text>
<text transform="matrix(0.93 0 0 1 361.7729 810.1201)" class="st1 st2 st3">F</text>
<text transform="matrix(0.93 0 0 1 369.7896 810.1201)" class="st1 st2 st3">undamental -</text>
<text transform="matrix(0.93 0 0 1 390.8447 829.3203)" class="st1 st2 st3">PCNs</text>
<text transform="matrix(0.93 0 0 1 445.4502 506.46)" class="st1 st2 st3">PNBE:</text>
<text transform="matrix(0.93 0 0 1 421.4189 525.6602)" class="st1 st2 st3">liv</text>
<text transform="matrix(0.93 0 0 1 436.3735 525.6602)" class="st1 st2 st3">r</text>
<text transform="matrix(0.93 0 0 1 441.3491 525.6602)" class="st1 st2 st3">os infantis</text>
<text transform="matrix(0.93 0 0 1 440.6328 544.8604)" class="st1 st2 st3">escolas</text>
<text transform="matrix(0.93 0 0 1 438.2891 564.0596)" class="st1 st2 st3">públicas</text>
<text transform="matrix(0.93 0 0 1 484.5 639.7197)" class="st1 st2 st3">Guatemala -</text>
<text transform="matrix(0.93 0 0 1 422.2461 658.9199)" class="st1 st2 st3">Eliminação de </text>
<text transform="matrix(0.93 0 0 1 519.4404 658.9199)" class="st1 st2 st3">t</text>
<text transform="matrix(0.93 0 0 1 524.1738 658.9199)" class="st1 st2 st3">odas as formas</text>
<text transform="matrix(0.93 0 0 1 442.1851 678.1201)" class="st1 st2 st3"> de Discriminação cont</text>
<text transform="matrix(0.93 0 0 1 594.5752 678.1201)" class="st1 st2 st3">r</text>
<text transform="matrix(0.93 0 0 1 599.5879 678.1201)" class="st1 st2 st3">a</text>
<text transform="matrix(0.93 0 0 1 448.3232 697.3203)" class="st1 st2 st3">as pessoas </text>
<text transform="matrix(0.93 0 0 1 527.3916 697.3203)" class="st1 st2 st3">P</text>
<text transform="matrix(0.93 0 0 1 536.8125 697.3203)" class="st1 st2 st3">o</text>
<text transform="matrix(0.93 0 0 1 545.2852 697.3203)" class="st1 st2 st3">r</text>
<text transform="matrix(0.93 0 0 1 550.874 697.3203)" class="st1 st2 st3">tado</text>
<text transform="matrix(0.93 0 0 1 580.7461 697.3203)" class="st1 st2 st3">r</text>
<text transform="matrix(0.93 0 0 1 585.7588 697.3203)" class="st1 st2 st3">as</text>
<text transform="matrix(0.93 0 0 1 475.8789 716.5195)" class="st1 st2 st3">de Deficiência</text>
<text transform="matrix(0.93 0 0 1 572.6201 487.7197)" class="st1 st2 st3">Lei</text>
<text transform="matrix(0.93 0 0 1 545.1016 506.9199)" class="st1 st2 st3">n. 10.098 - </text>
<text transform="matrix(0.93 0 0 1 533.8115 526.1201)" class="st1 st2 st3">Acessibilidade</text>
<text transform="matrix(0.93 0 0 1 608.4404 804.7197)" class="st1 st2 st3">Di</text>
<text transform="matrix(0.93 0 0 1 621.9624 804.7197)" class="st1 st2 st3">r</text>
<text transform="matrix(0.93 0 0 1 627.0586 804.7197)" class="st1 st2 st3">etri</text>
<text transform="matrix(0.93 0 0 1 649.0161 804.7197)" class="st1 st2 st3">z</text>
<text transform="matrix(0.93 0 0 1 656.3911 804.7197)" class="st1 st2 st3">es</text>
<text transform="matrix(0.93 0 0 1 607.6963 823.9199)" class="st1 st2 st3">E</text>
<text transform="matrix(0.93 0 0 1 615.9731 823.9199)" class="st1 st2 st3">ducação</text>
<text transform="matrix(0.93 0 0 1 600.4326 843.1201)" class="st1 st2 st3">Especial na </text>
<text transform="matrix(0.93 0 0 1 583.4697 862.3203)" class="st1 st2 st3">E</text>
<text transform="matrix(0.93 0 0 1 591.7466 862.3203)" class="st1 st2 st3">ducação Básica</text>
<text transform="matrix(0.93 0 0 1 758.46 751.4902)" class="st1 st2 st3">G</text>
<text transform="matrix(0.93 0 0 1 768.5879 751.4902)" class="st1 st2 st3">o</text>
<text transform="matrix(0.93 0 0 1 776.9487 751.4902)" class="st1 st2 st3">v</text>
<text transform="matrix(0.93 0 0 1 784.2212 751.4902)" class="st1 st2 st3">erno </text>
<text transform="matrix(0.93 0 0 1 817.8872 751.4902)" class="st1 st2 st3">f</text>
<text transform="matrix(0.93 0 0 1 822.9834 751.4902)" class="st1 st2 st3">ede</text>
<text transform="matrix(0.93 0 0 1 847.3589 751.4902)" class="st1 st2 st3">r</text>
<text transform="matrix(0.93 0 0 1 852.3716 751.4902)" class="st1 st2 st3">al:</text>
<text transform="matrix(0.93 0 0 1 748.6675 770.6904)" class="st1 st2 st3">Con</text>
<text transform="matrix(0.93 0 0 1 775.126 770.6904)" class="st1 st2 st3">v</text>
<text transform="matrix(0.93 0 0 1 782.3984 770.6904)" class="st1 st2 st3">enção Di</text>
<text transform="matrix(0.93 0 0 1 840.1978 770.6904)" class="st1 st2 st3">r</text>
<text transform="matrix(0.93 0 0 1 845.2852 770.6904)" class="st1 st2 st3">ei</text>
<text transform="matrix(0.93 0 0 1 857.0684 770.6904)" class="st1 st2 st3">t</text>
<text transform="matrix(0.93 0 0 1 861.8018 770.6904)" class="st1 st2 st3">os</text>
<text transform="matrix(0.93 0 0 1 754.4521 789.8896)" class="st1 st2 st3">das </text>
<text transform="matrix(0.93 0 0 1 782.2871 789.8896)" class="st1 st2 st3">P</text>
<text transform="matrix(0.93 0 0 1 791.708 789.8896)" class="st1 st2 st3">essoas com</text>
<text transform="matrix(0.93 0 0 1 772.3359 809.0898)" class="st1 st2 st3">Deficiências</text>
<text transform="matrix(0.93 0 0 1 716.5205 601.6299)" class="st1 st2 st3">Dec</text>
<text transform="matrix(0.93 0 0 1 742.0117 601.6299)" class="st1 st2 st3">r</text>
<text transform="matrix(0.93 0 0 1 747.1079 601.6299)" class="st1 st2 st3">e</text>
<text transform="matrix(0.93 0 0 1 755.0967 601.6299)" class="st1 st2 st3">t</text>
<text transform="matrix(0.93 0 0 1 759.8213 601.6299)" class="st1 st2 st3">o-lei:</text>
<text transform="matrix(0.93 0 0 1 710.1685 620.8301)" class="st1 st2 st3">E</text>
<text transform="matrix(0.93 0 0 1 718.4453 620.8301)" class="st1 st2 st3">ducação de </text>
<text transform="matrix(0.93 0 0 1 701.0449 640.0303)" class="st1 st2 st3">P</text>
<text transform="matrix(0.93 0 0 1 710.4565 640.0303)" class="st1 st2 st3">essoas Su</text>
<text transform="matrix(0.93 0 0 1 778.9604 640.0303)" class="st1 st2 st3">r</text>
<text transform="matrix(0.93 0 0 1 784.0566 640.0303)" class="st1 st2 st3">das</text>
<text transform="matrix(0.93 0 0 1 710.8286 659.2305)" class="st1 st2 st3">/ Deficiência </text>
<text transform="matrix(0.93 0 0 1 727.4478 678.4297)" class="st1 st2 st3">A</text>
<text transform="matrix(0.93 0 0 1 737.2686 678.4297)" class="st1 st2 st3">uditi</text>
<text transform="matrix(0.93 0 0 1 766.48 678.4297)" class="st1 st2 st3">v</text>
<text transform="matrix(0.93 0 0 1 773.7339 678.4297)" class="st1 st2 st3">a</text>
<text transform="matrix(0.93 0 0 1 873.4702 825.7197)" class="st1 st2 st3">Resolução n. 4 - </text>
<text transform="matrix(0.93 0 0 1 896.8594 844.9199)" class="st1 st2 st3">Di</text>
<text transform="matrix(0.93 0 0 1 910.3818 844.9199)" class="st1 st2 st3">r</text>
<text transform="matrix(0.93 0 0 1 915.4785 844.9199)" class="st1 st2 st3">etri</text>
<text transform="matrix(0.93 0 0 1 937.4355 844.9199)" class="st1 st2 st3">z</text>
<text transform="matrix(0.93 0 0 1 944.8105 844.9199)" class="st1 st2 st3">es</text>
<text transform="matrix(0.93 0 0 1 869.1826 864.1201)" class="st1 st2 st3">ope</text>
<text transform="matrix(0.93 0 0 1 894.0234 864.1201)" class="st1 st2 st3">r</text>
<text transform="matrix(0.93 0 0 1 899.0361 864.1201)" class="st1 st2 st3">acionais pa</text>
<text transform="matrix(0.93 0 0 1 975.082 864.1201)" class="st1 st2 st3">r</text>
<text transform="matrix(0.93 0 0 1 980.0947 864.1201)" class="st1 st2 st3">a</text>
<text transform="matrix(0.93 0 0 1 879.7754 883.3203)" class="st1 st2 st3">o </text>
<text transform="matrix(0.93 0 0 1 891.9585 883.3203)" class="st1 st2 st3">A</text>
<text transform="matrix(0.93 0 0 1 901.7329 883.3203)" class="st1 st2 st3">tendimen</text>
<text transform="matrix(0.93 0 0 1 964.3496 883.3203)" class="st1 st2 st3">t</text>
<text transform="matrix(0.93 0 0 1 969.084 883.3203)" class="st1 st2 st3">o</text>
<text transform="matrix(0.93 0 0 1 888.1826 902.5195)" class="st1 st2 st3">E</text>
<text transform="matrix(0.93 0 0 1 896.46 902.5195)" class="st1 st2 st3">ducacional</text>
<text transform="matrix(0.93 0 0 1 867.0254 921.7197)" class="st1 st2 st3">Especialização na </text>
<text transform="matrix(0.93 0 0 1 871.8892 940.9199)" class="st1 st2 st3">E</text>
<text transform="matrix(0.93 0 0 1 880.166 940.9199)" class="st1 st2 st3">ducação Básica</text>
<text transform="matrix(0.93 0 0 1 662.9902 487.7197)" class="st1 st2 st3">Lei </text>
<text transform="matrix(0.93 0 0 1 686.5283 487.7197)" class="st1 st2 st3">f</text>
<text transform="matrix(0.93 0 0 1 691.6343 487.7197)" class="st1 st2 st3">ede</text>
<text transform="matrix(0.93 0 0 1 716 487.7197)" class="st1 st2 st3">r</text>
<text transform="matrix(0.93 0 0 1 721.0127 487.7197)" class="st1 st2 st3">al</text>
<text transform="matrix(0.93 0 0 1 663.1113 506.9199)" class="st1 st2 st3">r</text>
<text transform="matrix(0.93 0 0 1 668.2075 506.9199)" class="st1 st2 st3">econhece</text>
<text transform="matrix(0.93 0 0 1 673.0249 526.1201)" class="st1 st2 st3">LIBRAS</text>
<text transform="matrix(0.95 0 0 1 843.4902 560.7998)" class="st1 st2 st3">P</text>
<text transform="matrix(0.95 0 0 1 853.1133 560.7998)" class="st1 st2 st3">olítica </text>
<text transform="matrix(0.95 0 0 1 840.9819 580)" class="st1 st2 st3">Nacional</text>
<text transform="matrix(0.95 0 0 1 835.8711 599.2002)" class="st1 st2 st3">E</text>
<text transform="matrix(0.95 0 0 1 844.3262 599.2002)" class="st1 st2 st3">ducação </text>
<text transform="matrix(0.95 0 0 1 842.4639 618.4004)" class="st1 st2 st3">Especial</text>
<text transform="matrix(0.95 0 0 1 829.0215 637.5996)" class="st1 st2 st3">P</text>
<text transform="matrix(0.95 0 0 1 838.6357 637.5996)" class="st1 st2 st3">erspecti</text>
<text transform="matrix(0.95 0 0 1 893.5928 637.5996)" class="st1 st2 st3">v</text>
<text transform="matrix(0.95 0 0 1 901.0029 637.5996)" class="st1 st2 st3">a </text>
<text transform="matrix(0.95 0 0 1 840.8203 656.7998)" class="st1 st2 st3">Inclusi</text>
<text transform="matrix(0.95 0 0 1 885.5752 656.7998)" class="st1 st2 st3">v</text>
<text transform="matrix(0.95 0 0 1 892.9849 656.7998)" class="st1 st2 st3">a</text>
<line class="st7" x1="236.5" y1="704.4" x2="236.5" y2="711.3"/>
<line class="st8" x1="17.4" y1="373.2" x2="970.3" y2="373.2"/>
<polygon class="st9" points="968.8,378.2 977.4,373.2 968.8,368.2 "/>
<line class="st10" x1="928.6" y1="387" x2="928.6" y2="797.9"/>
<line class="st10" x1="870.9" y1="387" x2="870.9" y2="533.1"/>
<line class="st10" x1="755.6" y1="387" x2="755.6" y2="573.3"/>
<line class="st10" x1="178.8" y1="387" x2="178.8" y2="565.3"/>
<line class="st10" x1="524.8" y1="387" x2="524.8" y2="612.8"/>
<line class="st10" x1="697.9" y1="387" x2="697.9" y2="460.1"/>
<line class="st10" x1="582.5" y1="387" x2="582.5" y2="460.1"/>
<line class="st10" x1="121.1" y1="387" x2="121.1" y2="456.1"/>
<line class="st10" x1="466.3" y1="387" x2="466.3" y2="479.7"/>
<line class="st10" x1="294.1" y1="387" x2="294.1" y2="512.8"/>
<line class="st10" x1="352.1" y1="387" x2="352.1" y2="428.6"/>
<line class="st10" x1="813.2" y1="387" x2="813.2" y2="723.3"/>
<line class="st10" x1="640.2" y1="387" x2="640.2" y2="778.4"/>
<line class="st10" x1="236.5" y1="387" x2="236.5" y2="665.7"/>
<line class="st10" x1="61.3" y1="387" x2="61.3" y2="639.7"/>
<line class="st10" x1="410.3" y1="387" x2="410.3" y2="743.5"/>
</svg>
