<svg width="100%" height="100%" viewBox="0 0 7731 11560" version="1.1" xmlns="http://www.w3.org/2000/svg" xmlns:xlink="http://www.w3.org/1999/xlink" xml:space="preserve" xmlns:serif="http://www.serif.com/" style="fill-rule:evenodd;clip-rule:evenodd;stroke-linejoin:round;stroke-miterlimit:2;">
    <g transform="matrix(1,0,0,1,-6746,-9533)">
        <g transform="matrix(8.33333,0,0,8.33333,0,0)">
            <g transform="matrix(0,1,1,0,1037.69,2016.33)">
                <path d="M228.151,-228.152C354.155,-228.152 456.302,-126.006 456.302,0C456.302,126.004 354.155,228.151 228.151,228.151C102.147,228.151 0.001,126.004 0.001,0C0.001,-126.006 102.147,-228.152 228.151,-228.152" style="fill:#84009f;fill-rule:nonzero;"/>
            </g>
            <g transform="matrix(1,0,0,1,1737.14,1502.07)">
                <path d="M0,670.919C-0.043,670.919 -0.085,670.92 -0.128,670.92L-0.128,497.478L-0.124,497.478C-0.053,497.478 0.018,497.477 0.09,497.477L0.09,-358.067C0.018,-358.067 -0.053,-358.069 -0.124,-358.069C-236.377,-358.069 -427.897,-166.548 -427.897,69.705C-427.897,242.241 -325.747,390.913 -178.628,458.56C-125.578,489.632 -89.937,547.211 -89.937,613.132C-89.937,652.866 -102.881,689.577 -124.782,719.277L-122.365,719.277C-157.236,751.945 -179.034,798.4 -179.034,849.954C-179.034,948.832 -98.878,1028.99 0,1028.99C0.03,1028.99 0.06,1028.99 0.09,1028.99L0.09,670.919L0,670.919" style="fill:#FF4446;fill-rule:nonzero;"/>
            </g>
        </g>
    </g>
</svg>
