<svg viewBox="0 0 501 493" version="1.1" xmlns="http://www.w3.org/2000/svg">
    <g transform="matrix(1,0,0,1,-2641,-6888)">
        <g transform="matrix(8.33333,0,0,8.33333,0,0)">
            <g transform="matrix(0,-1,-1,0,329.34,860.987)">
                <path d="M-12.34,-12.34C-19.155,-12.34 -24.68,-6.815 -24.68,0C-24.68,6.815 -19.155,12.34 -12.34,12.34C-5.525,12.34 0,6.815 0,0C0,-6.815 -5.525,-12.34 -12.34,-12.34" style="fill:rgb(68,221,0);fill-rule:nonzero;"/>
            </g>
            <g transform="matrix(0,-1,-1,0,329.34,826.677)">
                <path d="M-12.34,-12.34C-19.155,-12.34 -24.68,-6.815 -24.68,0C-24.68,6.815 -19.155,12.34 -12.34,12.34C-5.525,12.34 0,6.815 0,0C0,-6.815 -5.525,-12.34 -12.34,-12.34" style="fill:rgb(132,0,159);fill-rule:nonzero;"/>
            </g>
            <g transform="matrix(0,-1,-1,0,364.66,860.987)">
                <path d="M-12.34,-12.34C-19.155,-12.34 -24.68,-6.815 -24.68,0C-24.68,6.815 -19.155,12.34 -12.34,12.34C-5.525,12.34 0,6.815 0,0C0,-6.815 -5.525,-12.34 -12.34,-12.34" style="fill:rgb(255,68,70);fill-rule:nonzero;"/>
            </g>
        </g>
    </g>
</svg>
