<svg xmlns="http://www.w3.org/2000/svg" xmlns:xlink="http://www.w3.org/1999/xlink" viewBox="0 0 1000 530.18"><defs><style>.cls-1,.cls-15,.cls-2{fill:none;stroke-miterlimit:10;}.cls-1{stroke:#08b260;}.cls-15,.cls-2{stroke:#ff930b;}.cls-2{stroke-width:0;}.cls-3{font-size:20px;}.cls-11,.cls-3{fill:#230b05;font-family:Roboto-Regular, Roboto;}.cls-4{letter-spacing:-0.02em;}.cls-5{letter-spacing:-0.01em;}.cls-6{fill:#ff4b0b;}.cls-7{fill:#e10a52;}.cls-8{clip-path:url(#clip-path);}.cls-9{clip-path:url(#clip-path-2);}.cls-10{clip-path:url(#clip-path-3);}.cls-11{font-size:18px;}.cls-12{letter-spacing:-0.01em;}.cls-13{clip-path:url(#clip-path-4);}.cls-14{clip-path:url(#clip-path-5);}.cls-16{clip-path:url(#clip-path-6);}.cls-17{clip-path:url(#clip-path-7);}.cls-18{clip-path:url(#clip-path-8);}.cls-19{clip-path:url(#clip-path-9);}.cls-20{clip-path:url(#clip-path-10);}.cls-21{clip-path:url(#clip-path-11);}</style><clipPath id="clip-path"><path class="cls-1" d="M285.23,428.39V343.8a32.41,32.41,0,0,0-32.4-32.4h0a32.41,32.41,0,0,0-32.4,32.4v84.59Z"/></clipPath><clipPath id="clip-path-2"><path class="cls-1" d="M584.27,428.39a32.38,32.38,0,0,0-28.39-16.79h0a32.38,32.38,0,0,0-28.39,16.79Z"/></clipPath><clipPath id="clip-path-3"><path class="cls-1" d="M882.08,428.39a32.3,32.3,0,0,0-22.42-9h0a32.3,32.3,0,0,0-22.42,9Z"/></clipPath><clipPath id="clip-path-4"><circle class="cls-1" cx="874.26" cy="76.8" r="10.8"/></clipPath><clipPath id="clip-path-5"><path class="cls-2" d="M1134.5,359.92h13.07a0,0,0,0,1,0,0v60.61a6.47,6.47,0,0,1-6.47,6.47H1141a6.47,6.47,0,0,1-6.47-6.47V359.92A0,0,0,0,1,1134.5,359.92Z"/></clipPath><clipPath id="clip-path-6"><path class="cls-2" d="M1307.83,359.92h12.61a0,0,0,0,1,0,0V482.76a6.24,6.24,0,0,1-6.24,6.24h-.13a6.24,6.24,0,0,1-6.24-6.24V359.92a0,0,0,0,1,0,0Z"/></clipPath><clipPath id="clip-path-7"><path class="cls-2" d="M1365.21,359.92h13.07a0,0,0,0,1,0,0v35.61a6.47,6.47,0,0,1-6.47,6.47h-.13a6.47,6.47,0,0,1-6.47-6.47V359.92a0,0,0,0,1,0,0Z"/></clipPath><clipPath id="clip-path-8"><path class="cls-2" d="M1423.19,359.92h12.61a0,0,0,0,1,0,0V712.76a6.24,6.24,0,0,1-6.24,6.24h-.13a6.24,6.24,0,0,1-6.24-6.24V359.92a0,0,0,0,1,0,0Z"/></clipPath><clipPath id="clip-path-9"><path class="cls-2" d="M1192.48,359.92h12.61a0,0,0,0,1,0,0V533.76a6.24,6.24,0,0,1-6.24,6.24h-.13a6.24,6.24,0,0,1-6.24-6.24V359.92a0,0,0,0,1,0,0Z"/></clipPath><clipPath id="clip-path-10"><path class="cls-2" d="M1250.16,359.92h12.61a0,0,0,0,1,0,0V638.76a6.24,6.24,0,0,1-6.24,6.24h-.13a6.24,6.24,0,0,1-6.24-6.24V359.92A0,0,0,0,1,1250.16,359.92Z"/></clipPath><clipPath id="clip-path-11"><path class="cls-2" d="M1075,359.92h12.61a0,0,0,0,1,0,0V606.76a6.24,6.24,0,0,1-6.24,6.24h-.13a6.24,6.24,0,0,1-6.24-6.24V359.92a0,0,0,0,1,0,0Z"/></clipPath></defs><title>Imagem_005</title><g id="Layer_3" data-name="Layer 3"><text class="cls-3" transform="translate(20.15 37.8)">12.000</text><text class="cls-3" transform="translate(20.65 102.69)">10.000</text><text class="cls-3" transform="translate(32.38 167.57)">8.000</text><text class="cls-3" transform="translate(32.88 232.46)">6.000</text><text class="cls-3" transform="translate(33.38 297.35)">4.000</text><text class="cls-3" transform="translate(33.88 362.23)">2.000</text><text class="cls-3" transform="translate(73.34 427.12)">0</text><text class="cls-3" transform="translate(203.03 478.36)">B<tspan class="cls-4" x="12.45" y="0">r</tspan><tspan x="18.83" y="0">asil 2017</tspan><tspan x="12.2" y="24">(14.293)</tspan></text><text class="cls-3" transform="translate(473.63 478.36)">Cent<tspan class="cls-5" x="41.18" y="0">r</tspan><tspan x="47.75" y="0">o-Oeste 2017</tspan><tspan x="51.18" y="24">(1.213)</tspan></text><text class="cls-3" transform="translate(774.82 478.36)">MS 2017<tspan x="15.86" y="24">(522)</tspan></text><path class="cls-6" d="M206.86,428.39V100.46a32.4,32.4,0,0,0-32.4-32.4h0a32.41,32.41,0,0,0-32.4,32.4V428.39Z"/><path class="cls-7" d="M363.46,428.39A32.41,32.41,0,0,0,333,407.17h0a32.42,32.42,0,0,0-30.42,21.22Z"/><path class="cls-6" d="M510.64,428.39V343.8a32.4,32.4,0,0,0-32.4-32.4h0a32.41,32.41,0,0,0-32.4,32.4v84.59Z"/><path class="cls-7" d="M656.22,428.39a32.26,32.26,0,0,0-20.13-7h0a32.26,32.26,0,0,0-20.13,7Z"/><path class="cls-6" d="M814.42,428.39v-7.74a32.4,32.4,0,0,0-32.4-32.4h0a32.41,32.41,0,0,0-32.4,32.4v7.74Z"/><g class="cls-8"><line class="cls-1" x1="-165.79" y1="591.25" x2="338.93" y2="86.53"/><line class="cls-1" x1="-156.65" y1="600.39" x2="348.07" y2="95.67"/><line class="cls-1" x1="-147.51" y1="609.53" x2="357.21" y2="104.81"/><line class="cls-1" x1="-138.37" y1="618.67" x2="366.35" y2="113.95"/><line class="cls-1" x1="-129.23" y1="627.8" x2="375.49" y2="123.09"/><line class="cls-1" x1="-120.1" y1="636.94" x2="384.62" y2="132.22"/><line class="cls-1" x1="-110.96" y1="646.08" x2="393.76" y2="141.36"/><line class="cls-1" x1="-101.82" y1="655.22" x2="402.9" y2="150.5"/><line class="cls-1" x1="-92.68" y1="664.36" x2="412.04" y2="159.64"/><line class="cls-1" x1="-83.54" y1="673.5" x2="421.18" y2="168.78"/><line class="cls-1" x1="-74.4" y1="682.64" x2="430.32" y2="177.92"/><line class="cls-1" x1="-65.26" y1="691.78" x2="439.46" y2="187.06"/><line class="cls-1" x1="-56.12" y1="700.92" x2="448.6" y2="196.2"/><line class="cls-1" x1="-46.98" y1="710.06" x2="457.74" y2="205.34"/><line class="cls-1" x1="-37.84" y1="719.2" x2="466.88" y2="214.48"/><line class="cls-1" x1="-28.7" y1="728.34" x2="476.02" y2="223.62"/><line class="cls-1" x1="-19.56" y1="737.48" x2="485.16" y2="232.76"/><line class="cls-1" x1="-10.42" y1="746.62" x2="494.3" y2="241.9"/><line class="cls-1" x1="-1.28" y1="755.76" x2="503.44" y2="251.04"/><line class="cls-1" x1="7.86" y1="764.89" x2="512.58" y2="260.18"/><line class="cls-1" x1="17" y1="774.03" x2="521.71" y2="269.31"/><line class="cls-1" x1="26.13" y1="783.17" x2="530.85" y2="278.45"/><line class="cls-1" x1="35.27" y1="792.31" x2="539.99" y2="287.59"/><line class="cls-1" x1="44.41" y1="801.45" x2="549.13" y2="296.73"/><line class="cls-1" x1="53.55" y1="810.59" x2="558.27" y2="305.87"/><line class="cls-1" x1="62.69" y1="819.73" x2="567.41" y2="315.01"/><line class="cls-1" x1="71.83" y1="828.87" x2="576.55" y2="324.15"/><line class="cls-1" x1="80.97" y1="838.01" x2="585.69" y2="333.29"/><line class="cls-1" x1="90.11" y1="847.15" x2="594.83" y2="342.43"/><line class="cls-1" x1="99.25" y1="856.29" x2="603.97" y2="351.57"/><line class="cls-1" x1="108.39" y1="865.43" x2="613.11" y2="360.71"/><line class="cls-1" x1="117.53" y1="874.57" x2="622.25" y2="369.85"/><line class="cls-1" x1="126.67" y1="883.71" x2="631.39" y2="378.99"/><line class="cls-1" x1="135.81" y1="892.85" x2="640.53" y2="388.13"/><line class="cls-1" x1="144.95" y1="901.99" x2="649.67" y2="397.27"/><line class="cls-1" x1="154.09" y1="911.12" x2="658.81" y2="406.41"/><line class="cls-1" x1="163.22" y1="920.26" x2="667.94" y2="415.54"/><line class="cls-1" x1="172.36" y1="929.4" x2="677.08" y2="424.68"/><line class="cls-1" x1="181.5" y1="938.54" x2="686.22" y2="433.82"/><line class="cls-1" x1="190.64" y1="947.68" x2="695.36" y2="442.96"/><line class="cls-1" x1="199.78" y1="956.82" x2="704.5" y2="452.1"/><line class="cls-1" x1="208.92" y1="965.96" x2="713.64" y2="461.24"/><line class="cls-1" x1="218.06" y1="975.1" x2="722.78" y2="470.38"/><line class="cls-1" x1="227.2" y1="984.24" x2="731.92" y2="479.52"/><line class="cls-1" x1="236.34" y1="993.38" x2="741.06" y2="488.66"/><line class="cls-1" x1="245.48" y1="1002.52" x2="750.2" y2="497.8"/><line class="cls-1" x1="254.62" y1="1011.66" x2="759.34" y2="506.94"/></g><path class="cls-1" d="M285.23,428.39V343.8a32.41,32.41,0,0,0-32.4-32.4h0a32.41,32.41,0,0,0-32.4,32.4v84.59Z"/><g class="cls-9"><line class="cls-1" x1="137.26" y1="691.45" x2="641.98" y2="186.73"/><line class="cls-1" x1="146.4" y1="700.59" x2="651.12" y2="195.87"/><line class="cls-1" x1="155.54" y1="709.73" x2="660.26" y2="205.01"/><line class="cls-1" x1="164.68" y1="718.87" x2="669.4" y2="214.15"/><line class="cls-1" x1="173.82" y1="728.01" x2="678.54" y2="223.29"/><line class="cls-1" x1="182.95" y1="737.15" x2="687.67" y2="232.43"/><line class="cls-1" x1="192.09" y1="746.29" x2="696.81" y2="241.57"/><line class="cls-1" x1="201.23" y1="755.43" x2="705.95" y2="250.71"/><line class="cls-1" x1="210.37" y1="764.56" x2="715.09" y2="259.85"/><line class="cls-1" x1="219.51" y1="773.7" x2="724.23" y2="268.98"/><line class="cls-1" x1="228.65" y1="782.84" x2="733.37" y2="278.12"/><line class="cls-1" x1="237.79" y1="791.98" x2="742.51" y2="287.26"/><line class="cls-1" x1="246.93" y1="801.12" x2="751.65" y2="296.4"/><line class="cls-1" x1="256.07" y1="810.26" x2="760.79" y2="305.54"/><line class="cls-1" x1="265.21" y1="819.4" x2="769.93" y2="314.68"/><line class="cls-1" x1="274.35" y1="828.54" x2="779.07" y2="323.82"/><line class="cls-1" x1="283.49" y1="837.68" x2="788.21" y2="332.96"/><line class="cls-1" x1="292.63" y1="846.82" x2="797.35" y2="342.1"/><line class="cls-1" x1="301.77" y1="855.96" x2="806.49" y2="351.24"/><line class="cls-1" x1="310.91" y1="865.1" x2="815.63" y2="360.38"/><line class="cls-1" x1="320.05" y1="874.24" x2="824.77" y2="369.52"/><line class="cls-1" x1="329.18" y1="883.38" x2="833.9" y2="378.66"/><line class="cls-1" x1="338.32" y1="892.52" x2="843.04" y2="387.8"/><line class="cls-1" x1="347.46" y1="901.65" x2="852.18" y2="396.94"/><line class="cls-1" x1="356.6" y1="910.79" x2="861.32" y2="406.07"/><line class="cls-1" x1="365.74" y1="919.93" x2="870.46" y2="415.21"/><line class="cls-1" x1="374.88" y1="929.07" x2="879.6" y2="424.35"/><line class="cls-1" x1="384.02" y1="938.21" x2="888.74" y2="433.49"/><line class="cls-1" x1="393.16" y1="947.35" x2="897.88" y2="442.63"/><line class="cls-1" x1="402.3" y1="956.49" x2="907.02" y2="451.77"/><line class="cls-1" x1="411.44" y1="965.63" x2="916.16" y2="460.91"/><line class="cls-1" x1="420.58" y1="974.77" x2="925.3" y2="470.05"/><line class="cls-1" x1="429.72" y1="983.91" x2="934.44" y2="479.19"/><line class="cls-1" x1="438.86" y1="993.05" x2="943.58" y2="488.33"/><line class="cls-1" x1="448" y1="1002.19" x2="952.72" y2="497.47"/><line class="cls-1" x1="457.14" y1="1011.33" x2="961.86" y2="506.61"/><line class="cls-1" x1="466.28" y1="1020.47" x2="970.99" y2="515.75"/><line class="cls-1" x1="475.41" y1="1029.61" x2="980.13" y2="524.89"/></g><path class="cls-1" d="M584.27,428.39a32.38,32.38,0,0,0-28.39-16.79h0a32.38,32.38,0,0,0-28.39,16.79Z"/><g class="cls-10"><line class="cls-1" x1="441.04" y1="699.22" x2="945.76" y2="194.5"/><line class="cls-1" x1="450.18" y1="708.36" x2="954.9" y2="203.64"/><line class="cls-1" x1="459.32" y1="717.5" x2="964.04" y2="212.78"/><line class="cls-1" x1="468.46" y1="726.64" x2="973.18" y2="221.92"/><line class="cls-1" x1="477.6" y1="735.78" x2="982.32" y2="231.06"/><line class="cls-1" x1="486.73" y1="744.92" x2="991.45" y2="240.2"/><line class="cls-1" x1="495.87" y1="754.06" x2="1000.59" y2="249.34"/><line class="cls-1" x1="505.01" y1="763.2" x2="1009.73" y2="258.48"/><line class="cls-1" x1="514.15" y1="772.34" x2="1018.87" y2="267.62"/><line class="cls-1" x1="523.29" y1="781.48" x2="1028.01" y2="276.76"/><line class="cls-1" x1="532.43" y1="790.62" x2="1037.15" y2="285.9"/><line class="cls-1" x1="541.57" y1="799.75" x2="1046.29" y2="295.04"/><line class="cls-1" x1="550.71" y1="808.89" x2="1055.43" y2="304.17"/><line class="cls-1" x1="559.85" y1="818.03" x2="1064.57" y2="313.31"/><line class="cls-1" x1="568.99" y1="827.17" x2="1073.71" y2="322.45"/><line class="cls-1" x1="578.13" y1="836.31" x2="1082.85" y2="331.59"/><line class="cls-1" x1="587.27" y1="845.45" x2="1091.99" y2="340.73"/><line class="cls-1" x1="596.41" y1="854.59" x2="1101.13" y2="349.87"/><line class="cls-1" x1="605.55" y1="863.73" x2="1110.27" y2="359.01"/><line class="cls-1" x1="614.69" y1="872.87" x2="1119.41" y2="368.15"/><line class="cls-1" x1="623.83" y1="882.01" x2="1128.54" y2="377.29"/><line class="cls-1" x1="632.96" y1="891.15" x2="1137.68" y2="386.43"/><line class="cls-1" x1="642.1" y1="900.29" x2="1146.82" y2="395.57"/><line class="cls-1" x1="651.24" y1="909.43" x2="1155.96" y2="404.71"/><line class="cls-1" x1="660.38" y1="918.57" x2="1165.1" y2="413.85"/><line class="cls-1" x1="669.52" y1="927.71" x2="1174.24" y2="422.99"/><line class="cls-1" x1="678.66" y1="936.84" x2="1183.38" y2="432.13"/><line class="cls-1" x1="687.8" y1="945.98" x2="1192.52" y2="441.26"/><line class="cls-1" x1="696.94" y1="955.12" x2="1201.66" y2="450.4"/><line class="cls-1" x1="706.08" y1="964.26" x2="1210.8" y2="459.54"/><line class="cls-1" x1="715.22" y1="973.4" x2="1219.94" y2="468.68"/><line class="cls-1" x1="724.36" y1="982.54" x2="1229.08" y2="477.82"/><line class="cls-1" x1="733.5" y1="991.68" x2="1238.22" y2="486.96"/><line class="cls-1" x1="742.64" y1="1000.82" x2="1247.36" y2="496.1"/><line class="cls-1" x1="751.78" y1="1009.96" x2="1256.5" y2="505.24"/><line class="cls-1" x1="760.92" y1="1019.1" x2="1265.64" y2="514.38"/><line class="cls-1" x1="770.06" y1="1028.24" x2="1274.77" y2="523.52"/></g><path class="cls-1" d="M882.08,428.39a32.3,32.3,0,0,0-22.42-9h0a32.3,32.3,0,0,0-22.42,9Z"/><text class="cls-11" transform="translate(146.82 55)">10.667</text><text class="cls-11" transform="translate(230.63 298.34)">3.385</text><text class="cls-11" transform="translate(318.26 394.15)">241</text><text class="cls-11" transform="translate(463.08 298.34)">984</text><text class="cls-11" transform="translate(540.72 398.98)">202</text><text class="cls-11" transform="translate(626.36 407.51)">27</text><text class="cls-11" transform="translate(767.24 375.19)">492</text><text class="cls-11" transform="translate(849.93 406.31)">30</text><circle class="cls-6" cx="874.26" cy="31.8" r="10.8"/><circle class="cls-7" cx="874.26" cy="122.16" r="10.8"/><text class="cls-11" transform="translate(904.5 37.47)"><tspan class="cls-12">F</tspan><tspan x="9.76" y="0">ede</tspan><tspan class="cls-4" x="38.99" y="0">r</tspan><tspan x="44.73" y="0">al</tspan></text><text class="cls-11" transform="translate(904.5 82.47)">Estadual</text><text class="cls-11" transform="translate(904.5 127.83)">Municipal</text><g class="cls-13"><line class="cls-1" x1="318.2" y1="55.05" x2="822.92" y2="-449.67"/><line class="cls-1" x1="327.34" y1="64.19" x2="832.06" y2="-440.53"/><line class="cls-1" x1="336.48" y1="73.33" x2="841.2" y2="-431.39"/><line class="cls-1" x1="345.62" y1="82.47" x2="850.34" y2="-422.25"/><line class="cls-1" x1="354.76" y1="91.61" x2="859.48" y2="-413.11"/><line class="cls-1" x1="363.9" y1="100.75" x2="868.62" y2="-403.97"/><line class="cls-1" x1="373.04" y1="109.89" x2="877.76" y2="-394.83"/><line class="cls-1" x1="382.17" y1="119.03" x2="886.89" y2="-385.69"/><line class="cls-1" x1="391.31" y1="128.16" x2="896.03" y2="-376.55"/><line class="cls-1" x1="400.45" y1="137.3" x2="905.17" y2="-367.42"/><line class="cls-1" x1="409.59" y1="146.44" x2="914.31" y2="-358.28"/><line class="cls-1" x1="418.73" y1="155.58" x2="923.45" y2="-349.14"/><line class="cls-1" x1="427.87" y1="164.72" x2="932.59" y2="-340"/><line class="cls-1" x1="437.01" y1="173.86" x2="941.73" y2="-330.86"/><line class="cls-1" x1="446.15" y1="183" x2="950.87" y2="-321.72"/><line class="cls-1" x1="455.29" y1="192.14" x2="960.01" y2="-312.58"/><line class="cls-1" x1="464.43" y1="201.28" x2="969.15" y2="-303.44"/><line class="cls-1" x1="473.57" y1="210.42" x2="978.29" y2="-294.3"/><line class="cls-1" x1="482.71" y1="219.56" x2="987.43" y2="-285.16"/><line class="cls-1" x1="491.85" y1="228.7" x2="996.57" y2="-276.02"/><line class="cls-1" x1="500.99" y1="237.84" x2="1005.71" y2="-266.88"/><line class="cls-1" x1="510.13" y1="246.98" x2="1014.85" y2="-257.74"/><line class="cls-1" x1="519.27" y1="256.12" x2="1023.98" y2="-248.6"/><line class="cls-1" x1="528.4" y1="265.25" x2="1033.12" y2="-239.46"/><line class="cls-1" x1="537.54" y1="274.39" x2="1042.26" y2="-230.33"/><line class="cls-1" x1="546.68" y1="283.53" x2="1051.4" y2="-221.19"/><line class="cls-1" x1="555.82" y1="292.67" x2="1060.54" y2="-212.05"/><line class="cls-1" x1="564.96" y1="301.81" x2="1069.68" y2="-202.91"/><line class="cls-1" x1="574.1" y1="310.95" x2="1078.82" y2="-193.77"/><line class="cls-1" x1="583.24" y1="320.09" x2="1087.96" y2="-184.63"/><line class="cls-1" x1="592.38" y1="329.23" x2="1097.1" y2="-175.49"/><line class="cls-1" x1="601.52" y1="338.37" x2="1106.24" y2="-166.35"/><line class="cls-1" x1="610.66" y1="347.51" x2="1115.38" y2="-157.21"/><line class="cls-1" x1="619.8" y1="356.65" x2="1124.52" y2="-148.07"/><line class="cls-1" x1="628.94" y1="365.79" x2="1133.66" y2="-138.93"/><line class="cls-1" x1="638.08" y1="374.93" x2="1142.8" y2="-129.79"/><line class="cls-1" x1="647.22" y1="384.07" x2="1151.94" y2="-120.65"/><line class="cls-1" x1="656.36" y1="393.21" x2="1161.08" y2="-111.51"/><line class="cls-1" x1="665.5" y1="402.35" x2="1170.21" y2="-102.37"/><line class="cls-1" x1="674.63" y1="411.48" x2="1179.35" y2="-93.24"/><line class="cls-1" x1="683.77" y1="420.62" x2="1188.49" y2="-84.1"/><line class="cls-1" x1="692.91" y1="429.76" x2="1197.63" y2="-74.96"/><line class="cls-1" x1="702.05" y1="438.9" x2="1206.77" y2="-65.82"/><line class="cls-1" x1="711.19" y1="448.04" x2="1215.91" y2="-56.68"/><line class="cls-1" x1="720.33" y1="457.18" x2="1225.05" y2="-47.54"/><line class="cls-1" x1="729.47" y1="466.32" x2="1234.19" y2="-38.4"/><line class="cls-1" x1="738.61" y1="475.46" x2="1243.33" y2="-29.26"/></g><circle class="cls-1" cx="874.26" cy="76.8" r="10.8"/><g class="cls-14"><line class="cls-15" x1="671.93" y1="755.21" x2="1176.65" y2="250.49"/><line class="cls-15" x1="681.07" y1="764.35" x2="1185.79" y2="259.63"/><line class="cls-15" x1="690.21" y1="773.49" x2="1194.93" y2="268.77"/><line class="cls-15" x1="699.35" y1="782.63" x2="1204.07" y2="277.91"/><line class="cls-15" x1="708.49" y1="791.77" x2="1213.21" y2="287.05"/><line class="cls-15" x1="717.63" y1="800.91" x2="1222.35" y2="296.19"/><line class="cls-15" x1="726.77" y1="810.05" x2="1231.49" y2="305.33"/><line class="cls-15" x1="735.91" y1="819.19" x2="1240.63" y2="314.47"/><line class="cls-15" x1="745.05" y1="828.32" x2="1249.77" y2="323.61"/><line class="cls-15" x1="754.19" y1="837.46" x2="1258.91" y2="332.74"/><line class="cls-15" x1="763.33" y1="846.6" x2="1268.05" y2="341.88"/><line class="cls-15" x1="772.47" y1="855.74" x2="1277.19" y2="351.02"/><line class="cls-15" x1="781.61" y1="864.88" x2="1286.33" y2="360.16"/><line class="cls-15" x1="790.75" y1="874.02" x2="1295.47" y2="369.3"/><line class="cls-15" x1="799.89" y1="883.16" x2="1304.6" y2="378.44"/><line class="cls-15" x1="809.02" y1="892.3" x2="1313.74" y2="387.58"/><line class="cls-15" x1="818.16" y1="901.44" x2="1322.88" y2="396.72"/><line class="cls-15" x1="827.3" y1="910.58" x2="1332.02" y2="405.86"/><line class="cls-15" x1="836.44" y1="919.72" x2="1341.16" y2="415"/><line class="cls-15" x1="845.58" y1="928.86" x2="1350.3" y2="424.14"/><line class="cls-15" x1="854.72" y1="938" x2="1359.44" y2="433.28"/><line class="cls-15" x1="863.86" y1="947.14" x2="1368.58" y2="442.42"/><line class="cls-15" x1="873" y1="956.28" x2="1377.72" y2="451.56"/><line class="cls-15" x1="882.14" y1="965.42" x2="1386.86" y2="460.7"/><line class="cls-15" x1="891.28" y1="974.55" x2="1396" y2="469.83"/><line class="cls-15" x1="900.42" y1="983.69" x2="1405.14" y2="478.97"/><line class="cls-15" x1="909.56" y1="992.83" x2="1414.28" y2="488.11"/><line class="cls-15" x1="918.7" y1="1001.97" x2="1423.42" y2="497.25"/><line class="cls-15" x1="927.84" y1="1011.11" x2="1432.56" y2="506.39"/><line class="cls-15" x1="936.98" y1="1020.25" x2="1441.7" y2="515.53"/><line class="cls-15" x1="946.12" y1="1029.39" x2="1450.83" y2="524.67"/></g><path class="cls-2" d="M1134.5,359.92h13.07a0,0,0,0,1,0,0v60.61a6.47,6.47,0,0,1-6.47,6.47H1141a6.47,6.47,0,0,1-6.47-6.47V359.92A0,0,0,0,1,1134.5,359.92Z"/><g class="cls-16"><line class="cls-15" x1="801.73" y1="727.44" x2="1306.45" y2="222.72"/><line class="cls-15" x1="810.87" y1="736.57" x2="1315.59" y2="231.86"/><line class="cls-15" x1="820.01" y1="745.71" x2="1324.73" y2="240.99"/><line class="cls-15" x1="829.15" y1="754.85" x2="1333.87" y2="250.13"/><line class="cls-15" x1="838.29" y1="763.99" x2="1343.01" y2="259.27"/><line class="cls-15" x1="847.43" y1="773.13" x2="1352.15" y2="268.41"/><line class="cls-15" x1="856.56" y1="782.27" x2="1361.28" y2="277.55"/><line class="cls-15" x1="865.7" y1="791.41" x2="1370.42" y2="286.69"/><line class="cls-15" x1="874.84" y1="800.55" x2="1379.56" y2="295.83"/><line class="cls-15" x1="883.98" y1="809.69" x2="1388.7" y2="304.97"/><line class="cls-15" x1="893.12" y1="818.83" x2="1397.84" y2="314.11"/><line class="cls-15" x1="902.26" y1="827.97" x2="1406.98" y2="323.25"/><line class="cls-15" x1="911.4" y1="837.11" x2="1416.12" y2="332.39"/><line class="cls-15" x1="920.54" y1="846.25" x2="1425.26" y2="341.53"/><line class="cls-15" x1="929.68" y1="855.39" x2="1434.4" y2="350.67"/><line class="cls-15" x1="938.82" y1="864.53" x2="1443.54" y2="359.81"/><line class="cls-15" x1="947.96" y1="873.66" x2="1452.68" y2="368.95"/><line class="cls-15" x1="957.1" y1="882.8" x2="1461.82" y2="378.08"/><line class="cls-15" x1="966.24" y1="891.94" x2="1470.96" y2="387.22"/><line class="cls-15" x1="975.38" y1="901.08" x2="1480.1" y2="396.36"/><line class="cls-15" x1="984.52" y1="910.22" x2="1489.24" y2="405.5"/><line class="cls-15" x1="993.66" y1="919.36" x2="1498.38" y2="414.64"/></g><path class="cls-2" d="M1307.83,359.92h12.61a0,0,0,0,1,0,0V482.76a6.24,6.24,0,0,1-6.24,6.24h-.13a6.24,6.24,0,0,1-6.24-6.24V359.92a0,0,0,0,1,0,0Z"/><g class="cls-17"><line class="cls-15" x1="857.87" y1="724.02" x2="1362.59" y2="219.3"/><line class="cls-15" x1="867.01" y1="733.15" x2="1371.73" y2="228.43"/><line class="cls-15" x1="876.15" y1="742.29" x2="1380.87" y2="237.57"/><line class="cls-15" x1="885.29" y1="751.43" x2="1390.01" y2="246.71"/><line class="cls-15" x1="894.43" y1="760.57" x2="1399.15" y2="255.85"/><line class="cls-15" x1="903.57" y1="769.71" x2="1408.29" y2="264.99"/><line class="cls-15" x1="912.71" y1="778.85" x2="1417.43" y2="274.13"/><line class="cls-15" x1="921.85" y1="787.99" x2="1426.57" y2="283.27"/><line class="cls-15" x1="930.99" y1="797.13" x2="1435.71" y2="292.41"/><line class="cls-15" x1="940.13" y1="806.27" x2="1444.85" y2="301.55"/><line class="cls-15" x1="949.27" y1="815.41" x2="1453.99" y2="310.69"/><line class="cls-15" x1="958.41" y1="824.55" x2="1463.13" y2="319.83"/><line class="cls-15" x1="967.55" y1="833.69" x2="1472.27" y2="328.97"/><line class="cls-15" x1="976.69" y1="842.83" x2="1481.41" y2="338.11"/><line class="cls-15" x1="985.83" y1="851.97" x2="1490.55" y2="347.25"/><line class="cls-15" x1="994.97" y1="861.11" x2="1499.68" y2="356.39"/></g><path class="cls-2" d="M1365.21,359.92h13.07a0,0,0,0,1,0,0v35.61a6.47,6.47,0,0,1-6.47,6.47h-.13a6.47,6.47,0,0,1-6.47-6.47V359.92a0,0,0,0,1,0,0Z"/><g class="cls-18"><line class="cls-15" x1="937.17" y1="720.59" x2="1441.89" y2="215.88"/><line class="cls-15" x1="946.31" y1="729.73" x2="1451.03" y2="225.01"/><line class="cls-15" x1="955.45" y1="738.87" x2="1460.17" y2="234.15"/><line class="cls-15" x1="964.59" y1="748.01" x2="1469.31" y2="243.29"/><line class="cls-15" x1="973.72" y1="757.15" x2="1478.44" y2="252.43"/><line class="cls-15" x1="982.86" y1="766.29" x2="1487.58" y2="261.57"/><line class="cls-15" x1="992" y1="775.43" x2="1496.72" y2="270.71"/></g><path class="cls-2" d="M1423.19,359.92h12.61a0,0,0,0,1,0,0V712.76a6.24,6.24,0,0,1-6.24,6.24h-.13a6.24,6.24,0,0,1-6.24-6.24V359.92a0,0,0,0,1,0,0Z"/><g class="cls-19"><line class="cls-15" x1="776.67" y1="740.15" x2="1281.39" y2="235.44"/><line class="cls-15" x1="785.81" y1="749.29" x2="1290.53" y2="244.57"/><line class="cls-15" x1="794.95" y1="758.43" x2="1299.67" y2="253.71"/><line class="cls-15" x1="804.09" y1="767.57" x2="1308.81" y2="262.85"/><line class="cls-15" x1="813.23" y1="776.71" x2="1317.95" y2="271.99"/><line class="cls-15" x1="822.37" y1="785.85" x2="1327.09" y2="281.13"/><line class="cls-15" x1="831.51" y1="794.99" x2="1336.23" y2="290.27"/><line class="cls-15" x1="840.65" y1="804.13" x2="1345.37" y2="299.41"/><line class="cls-15" x1="849.79" y1="813.27" x2="1354.51" y2="308.55"/><line class="cls-15" x1="858.93" y1="822.41" x2="1363.65" y2="317.69"/><line class="cls-15" x1="868.07" y1="831.55" x2="1372.79" y2="326.83"/><line class="cls-15" x1="877.21" y1="840.69" x2="1381.93" y2="335.97"/><line class="cls-15" x1="886.35" y1="849.83" x2="1391.07" y2="345.11"/><line class="cls-15" x1="895.49" y1="858.97" x2="1400.21" y2="354.25"/><line class="cls-15" x1="904.63" y1="868.11" x2="1409.35" y2="363.39"/><line class="cls-15" x1="913.77" y1="877.24" x2="1418.49" y2="372.53"/><line class="cls-15" x1="922.9" y1="886.38" x2="1427.62" y2="381.66"/><line class="cls-15" x1="932.04" y1="895.52" x2="1436.76" y2="390.8"/><line class="cls-15" x1="941.18" y1="904.66" x2="1445.9" y2="399.94"/><line class="cls-15" x1="950.32" y1="913.8" x2="1455.04" y2="409.08"/><line class="cls-15" x1="959.46" y1="922.94" x2="1464.18" y2="418.22"/><line class="cls-15" x1="968.6" y1="932.08" x2="1473.32" y2="427.36"/><line class="cls-15" x1="977.74" y1="941.22" x2="1482.46" y2="436.5"/><line class="cls-15" x1="986.88" y1="950.36" x2="1491.6" y2="445.64"/><line class="cls-15" x1="996.02" y1="959.5" x2="1500.74" y2="454.78"/></g><path class="cls-2" d="M1192.48,359.92h12.61a0,0,0,0,1,0,0V533.76a6.24,6.24,0,0,1-6.24,6.24h-.13a6.24,6.24,0,0,1-6.24-6.24V359.92a0,0,0,0,1,0,0Z"/><g class="cls-20"><line class="cls-15" x1="793.9" y1="755.21" x2="1298.62" y2="250.49"/><line class="cls-15" x1="803.04" y1="764.35" x2="1307.75" y2="259.63"/><line class="cls-15" x1="812.17" y1="773.49" x2="1316.89" y2="268.77"/><line class="cls-15" x1="821.31" y1="782.63" x2="1326.03" y2="277.91"/><line class="cls-15" x1="830.45" y1="791.77" x2="1335.17" y2="287.05"/><line class="cls-15" x1="839.59" y1="800.91" x2="1344.31" y2="296.19"/><line class="cls-15" x1="848.73" y1="810.05" x2="1353.45" y2="305.33"/><line class="cls-15" x1="857.87" y1="819.19" x2="1362.59" y2="314.47"/><line class="cls-15" x1="867.01" y1="828.32" x2="1371.73" y2="323.61"/><line class="cls-15" x1="876.15" y1="837.46" x2="1380.87" y2="332.74"/><line class="cls-15" x1="885.29" y1="846.6" x2="1390.01" y2="341.88"/><line class="cls-15" x1="894.43" y1="855.74" x2="1399.15" y2="351.02"/><line class="cls-15" x1="903.57" y1="864.88" x2="1408.29" y2="360.16"/><line class="cls-15" x1="912.71" y1="874.02" x2="1417.43" y2="369.3"/><line class="cls-15" x1="921.85" y1="883.16" x2="1426.57" y2="378.44"/><line class="cls-15" x1="930.99" y1="892.3" x2="1435.71" y2="387.58"/><line class="cls-15" x1="940.13" y1="901.44" x2="1444.85" y2="396.72"/><line class="cls-15" x1="949.26" y1="910.58" x2="1453.98" y2="405.86"/><line class="cls-15" x1="958.4" y1="919.72" x2="1463.12" y2="415"/><line class="cls-15" x1="967.54" y1="928.86" x2="1472.26" y2="424.14"/><line class="cls-15" x1="976.68" y1="938" x2="1481.4" y2="433.28"/><line class="cls-15" x1="985.82" y1="947.14" x2="1490.54" y2="442.42"/><line class="cls-15" x1="994.96" y1="956.28" x2="1499.68" y2="451.56"/></g><path class="cls-2" d="M1250.16,359.92h12.61a0,0,0,0,1,0,0V638.76a6.24,6.24,0,0,1-6.24,6.24h-.13a6.24,6.24,0,0,1-6.24-6.24V359.92A0,0,0,0,1,1250.16,359.92Z"/><g class="cls-21"><line class="cls-15" x1="625.06" y1="717.51" x2="1129.78" y2="212.79"/><line class="cls-15" x1="634.2" y1="726.65" x2="1138.92" y2="221.93"/><line class="cls-15" x1="643.34" y1="735.79" x2="1148.06" y2="231.07"/><line class="cls-15" x1="652.48" y1="744.93" x2="1157.2" y2="240.21"/><line class="cls-15" x1="661.62" y1="754.07" x2="1166.34" y2="249.35"/><line class="cls-15" x1="670.75" y1="763.21" x2="1175.47" y2="258.49"/><line class="cls-15" x1="679.89" y1="772.35" x2="1184.61" y2="267.63"/><line class="cls-15" x1="689.03" y1="781.49" x2="1193.75" y2="276.77"/><line class="cls-15" x1="698.17" y1="790.63" x2="1202.89" y2="285.91"/><line class="cls-15" x1="707.31" y1="799.77" x2="1212.03" y2="295.05"/><line class="cls-15" x1="716.45" y1="808.91" x2="1221.17" y2="304.19"/><line class="cls-15" x1="725.59" y1="818.04" x2="1230.31" y2="313.33"/><line class="cls-15" x1="734.73" y1="827.18" x2="1239.45" y2="322.46"/><line class="cls-15" x1="743.87" y1="836.32" x2="1248.59" y2="331.6"/><line class="cls-15" x1="753.01" y1="845.46" x2="1257.73" y2="340.74"/><line class="cls-15" x1="762.15" y1="854.6" x2="1266.87" y2="349.88"/><line class="cls-15" x1="771.29" y1="863.74" x2="1276.01" y2="359.02"/><line class="cls-15" x1="780.43" y1="872.88" x2="1285.15" y2="368.16"/><line class="cls-15" x1="789.57" y1="882.02" x2="1294.29" y2="377.3"/><line class="cls-15" x1="798.71" y1="891.16" x2="1303.43" y2="386.44"/><line class="cls-15" x1="807.85" y1="900.3" x2="1312.57" y2="395.58"/><line class="cls-15" x1="816.98" y1="909.44" x2="1321.7" y2="404.72"/><line class="cls-15" x1="826.12" y1="918.58" x2="1330.84" y2="413.86"/><line class="cls-15" x1="835.26" y1="927.72" x2="1339.98" y2="423"/><line class="cls-15" x1="844.4" y1="936.86" x2="1349.12" y2="432.14"/><line class="cls-15" x1="853.54" y1="946" x2="1358.26" y2="441.28"/><line class="cls-15" x1="862.68" y1="955.14" x2="1367.4" y2="450.42"/><line class="cls-15" x1="871.82" y1="964.27" x2="1376.54" y2="459.56"/><line class="cls-15" x1="880.96" y1="973.41" x2="1385.68" y2="468.69"/><line class="cls-15" x1="890.1" y1="982.55" x2="1394.82" y2="477.83"/><line class="cls-15" x1="899.24" y1="991.69" x2="1403.96" y2="486.97"/><line class="cls-15" x1="908.38" y1="1000.83" x2="1413.1" y2="496.11"/><line class="cls-15" x1="917.52" y1="1009.97" x2="1422.24" y2="505.25"/><line class="cls-15" x1="926.66" y1="1019.11" x2="1431.38" y2="514.39"/><line class="cls-15" x1="935.8" y1="1028.25" x2="1440.52" y2="523.53"/></g><path class="cls-2" d="M1075,359.92h12.61a0,0,0,0,1,0,0V606.76a6.24,6.24,0,0,1-6.24,6.24h-.13a6.24,6.24,0,0,1-6.24-6.24V359.92a0,0,0,0,1,0,0Z"/></g></svg>