<svg xmlns="http://www.w3.org/2000/svg" xmlns:xlink="http://www.w3.org/1999/xlink" viewBox="0 0 1000 884.76"><defs><style>.cls-1{fill:#e10a52;}.cls-2,.cls-6{font-size:20px;}.cls-2,.cls-23{font-family:Roboto-Regular, Roboto;}.cls-3{fill:#ff930b;}.cls-4{fill:none;stroke:#ff930b;stroke-miterlimit:10;}.cls-5{fill:#fff;}.cls-22,.cls-6{font-family:Roboto-Medium, Roboto;font-weight:500;}.cls-7{letter-spacing:-0.02em;}.cls-8{letter-spacing:-0.01em;}.cls-9{letter-spacing:0.02em;}.cls-10{clip-path:url(#clip-path);}.cls-11{clip-path:url(#clip-path-2);}.cls-12{clip-path:url(#clip-path-3);}.cls-13{clip-path:url(#clip-path-4);}.cls-14{clip-path:url(#clip-path-5);}.cls-15{clip-path:url(#clip-path-6);}.cls-16{clip-path:url(#clip-path-7);}.cls-17{clip-path:url(#clip-path-8);}.cls-18{clip-path:url(#clip-path-9);}.cls-19{clip-path:url(#clip-path-10);}.cls-20{clip-path:url(#clip-path-11);}.cls-21{clip-path:url(#clip-path-12);}.cls-22,.cls-23{font-size:15px;}.cls-24{letter-spacing:-0.01em;}.cls-25{letter-spacing:-0.01em;}.cls-26{letter-spacing:-0.02em;}.cls-27{letter-spacing:-0.01em;}.cls-28{letter-spacing:-0.01em;}.cls-29{letter-spacing:-0.04em;}.cls-30{letter-spacing:-0.01em;}</style><clipPath id="clip-path"><path class="cls-1" d="M602.45,535H606a8.12,8.12,0,0,1,8.12,8.12v7.58a0,0,0,0,1,0,0H594.34a0,0,0,0,1,0,0v-7.58A8.12,8.12,0,0,1,602.45,535Z"/></clipPath><clipPath id="clip-path-2"><path class="cls-1" d="M669.24,550.68H649.49v-.59a8.11,8.11,0,0,1,8.12-8.11h3.51a8.12,8.12,0,0,1,8.12,8.12Z"/></clipPath><clipPath id="clip-path-3"><path class="cls-1" d="M724.39,550.68H704.64v-.59a8.12,8.12,0,0,1,8.12-8.11h3.52a8.11,8.11,0,0,1,8.11,8.12Z"/></clipPath><clipPath id="clip-path-4"><path class="cls-1" d="M780.76,550.68H761v-.59a8.12,8.12,0,0,1,8.12-8.11h3.52a8.11,8.11,0,0,1,8.11,8.12Z"/></clipPath><clipPath id="clip-path-5"><path class="cls-1" d="M338.31,550.68H318.56l.3-65.23a8.12,8.12,0,0,1,8.12-8.12h3.51a8.13,8.13,0,0,1,8.12,8.12Z"/></clipPath><clipPath id="clip-path-6"><path class="cls-1" d="M393.47,550.68H373.72l.15-46.1a8.11,8.11,0,0,1,8.11-8.12h3.52a8.11,8.11,0,0,1,8.11,8.12Z"/></clipPath><clipPath id="clip-path-7"><path class="cls-1" d="M448.55,550.68H428.8l.15-42.1a8.11,8.11,0,0,1,8.11-8.12h3.52a8.12,8.12,0,0,1,8.12,8.12Z"/></clipPath><clipPath id="clip-path-8"><path class="cls-1" d="M504.31,550.68H484.56l.15-25.1a8.11,8.11,0,0,1,8.12-8.12h3.51a8.12,8.12,0,0,1,8.12,8.12Z"/></clipPath><clipPath id="clip-path-9"><path class="cls-1" d="M560,550.68H540.32l.15-17.1a8.1,8.1,0,0,1,8.09-8.12h3.51a8.1,8.1,0,0,1,8.09,8.12Z"/></clipPath><clipPath id="clip-path-10"><path class="cls-1" d="M287.4,550.68H267.65L264.58,357c0-4.48,4.42-8.12,9.88-8.12h0c5.45,0,9.87,3.64,9.87,8.12Z"/></clipPath><clipPath id="clip-path-11"><path class="cls-1" d="M228,550.68H208.26l.58-305.53c0-4.48,4.42-8.12,9.88-8.12h0c5.45,0,9.87,3.64,9.87,8.12Z"/></clipPath><clipPath id="clip-path-12"><path class="cls-1" d="M172.27,550.68H152.52L153.69,153c0-4.48,4.42-8.12,9.87-8.12h0c5.46,0,9.88,3.64,9.88,8.12Z"/></clipPath></defs><title>Imagem_017</title><g id="Layer_3" data-name="Layer 3"><text class="cls-2" transform="translate(93.02 80.67)">250</text><text class="cls-2" transform="translate(93.02 174.39)">200</text><text class="cls-2" transform="translate(93.02 268.1)">150</text><text class="cls-2" transform="translate(93.02 361.82)">100</text><text class="cls-2" transform="translate(98.64 455.54)">50</text><text class="cls-2" transform="translate(104.25 549.26)">0</text><line class="cls-3" x1="383.59" y1="558.01" x2="383.59" y2="623.48"/><line class="cls-4" x1="383.59" y1="558.01" x2="383.59" y2="619.52"/><path class="cls-5" d="M379.91,619.31a3.69,3.69,0,1,0,3.68-3.69A3.68,3.68,0,0,0,379.91,619.31Z"/><path class="cls-3" d="M379.42,619.31a4.18,4.18,0,1,1,4.17,4.17,4.18,4.18,0,0,1-4.17-4.17Zm7.37,0a3.2,3.2,0,1,0-3.2,3.19,3.2,3.2,0,0,0,3.2-3.19Z"/><line class="cls-3" x1="550.27" y1="558" x2="550.27" y2="767.61"/><line class="cls-4" x1="550.27" y1="558" x2="550.27" y2="763.65"/><path class="cls-5" d="M546.59,763.44a3.69,3.69,0,1,0,3.68-3.69A3.68,3.68,0,0,0,546.59,763.44Z"/><path class="cls-3" d="M546.1,763.44a4.18,4.18,0,1,1,4.17,4.17,4.18,4.18,0,0,1-4.17-4.17Zm7.37,0a3.2,3.2,0,1,0-3.2,3.19,3.21,3.21,0,0,0,3.2-3.19Z"/><line class="cls-3" x1="770.89" y1="558.01" x2="770.89" y2="623.48"/><line class="cls-4" x1="770.89" y1="558.01" x2="770.89" y2="619.52"/><circle class="cls-5" cx="770.89" cy="619.31" r="3.68"/><path class="cls-3" d="M766.71,619.31a4.18,4.18,0,1,1,4.18,4.17,4.19,4.19,0,0,1-4.18-4.17Zm7.37,0a3.2,3.2,0,1,0-3.19,3.19,3.2,3.2,0,0,0,3.19-3.19Z"/><line class="cls-3" x1="438.75" y1="558.01" x2="438.75" y2="767.62"/><line class="cls-4" x1="438.75" y1="558.01" x2="438.75" y2="763.65"/><path class="cls-5" d="M435.06,763.44a3.69,3.69,0,1,0,3.69-3.68A3.69,3.69,0,0,0,435.06,763.44Z"/><path class="cls-3" d="M434.57,763.44a4.18,4.18,0,1,1,4.18,4.18,4.18,4.18,0,0,1-4.18-4.18Zm7.37,0a3.2,3.2,0,1,0-3.19,3.2,3.19,3.19,0,0,0,3.19-3.2Z"/><line class="cls-3" x1="824.82" y1="558.01" x2="824.83" y2="787.27"/><line class="cls-4" x1="824.83" y1="558.01" x2="824.83" y2="783.31"/><path class="cls-5" d="M821.14,783.1a3.69,3.69,0,1,0,3.69-3.69A3.69,3.69,0,0,0,821.14,783.1Z"/><path class="cls-3" d="M820.65,783.1a4.18,4.18,0,1,1,4.18,4.17,4.18,4.18,0,0,1-4.18-4.17Zm7.37,0a3.2,3.2,0,1,0-3.19,3.19A3.2,3.2,0,0,0,828,783.1Z"/><line class="cls-3" x1="218.13" y1="557.99" x2="218.13" y2="755.68"/><line class="cls-4" x1="218.13" y1="557.99" x2="218.13" y2="751.71"/><circle class="cls-5" cx="218.13" cy="751.51" r="3.68"/><path class="cls-3" d="M214,751.51a4.18,4.18,0,1,1,4.18,4.17,4.18,4.18,0,0,1-4.18-4.17Zm7.37,0a3.2,3.2,0,1,0-3.19,3.19,3.19,3.19,0,0,0,3.19-3.19Z"/><line class="cls-3" x1="328.44" y1="558" x2="328.44" y2="701.68"/><line class="cls-4" x1="328.44" y1="558" x2="328.44" y2="697.71"/><circle class="cls-5" cx="328.44" cy="697.51" r="3.68"/><path class="cls-3" d="M324.26,697.51a4.18,4.18,0,1,1,4.18,4.17,4.18,4.18,0,0,1-4.18-4.17Zm7.37,0a3.2,3.2,0,1,0-3.19,3.19,3.19,3.19,0,0,0,3.19-3.19Z"/><line class="cls-3" x1="659.36" y1="558.01" x2="659.36" y2="596.12"/><line class="cls-4" x1="659.36" y1="558.01" x2="659.36" y2="592.16"/><path class="cls-5" d="M655.68,592a3.69,3.69,0,1,0,3.68-3.69A3.68,3.68,0,0,0,655.68,592Z"/><path class="cls-3" d="M655.19,592a4.18,4.18,0,1,1,4.17,4.17,4.18,4.18,0,0,1-4.17-4.17Zm7.37,0a3.2,3.2,0,1,0-3.2,3.19,3.2,3.2,0,0,0,3.2-3.19Z"/><line class="cls-3" x1="879.98" y1="558" x2="879.98" y2="695.4"/><line class="cls-4" x1="879.98" y1="558" x2="879.98" y2="691.43"/><path class="cls-5" d="M876.29,691.22a3.69,3.69,0,1,0,3.69-3.68A3.69,3.69,0,0,0,876.29,691.22Z"/><path class="cls-3" d="M875.8,691.22A4.18,4.18,0,1,1,880,695.4a4.18,4.18,0,0,1-4.18-4.18Zm7.37,0a3.2,3.2,0,1,0-3.19,3.2,3.19,3.19,0,0,0,3.19-3.2Z"/><line class="cls-3" x1="493.9" y1="558.01" x2="493.9" y2="639.83"/><line class="cls-4" x1="493.9" y1="558.01" x2="493.9" y2="635.87"/><path class="cls-5" d="M490.22,635.66A3.68,3.68,0,1,0,493.9,632,3.68,3.68,0,0,0,490.22,635.66Z"/><path class="cls-3" d="M489.73,635.66a4.17,4.17,0,1,1,4.17,4.17,4.18,4.18,0,0,1-4.17-4.17Zm7.36,0a3.19,3.19,0,1,0-3.19,3.19,3.2,3.2,0,0,0,3.19-3.19Z"/><line class="cls-3" x1="273.87" y1="558.01" x2="273.87" y2="596.12"/><line class="cls-4" x1="273.87" y1="558.01" x2="273.87" y2="592.15"/><path class="cls-5" d="M270.19,591.94a3.68,3.68,0,1,0,3.68-3.68A3.69,3.69,0,0,0,270.19,591.94Z"/><path class="cls-3" d="M269.7,591.94a4.17,4.17,0,1,1,4.17,4.18,4.17,4.17,0,0,1-4.17-4.18Zm7.36,0a3.19,3.19,0,1,0-3.19,3.2,3.19,3.19,0,0,0,3.19-3.2Z"/><line class="cls-3" x1="714.52" y1="558" x2="714.52" y2="732.37"/><line class="cls-4" x1="714.52" y1="558" x2="714.52" y2="728.4"/><path class="cls-5" d="M710.83,728.19a3.69,3.69,0,1,0,3.69-3.68A3.69,3.69,0,0,0,710.83,728.19Z"/><path class="cls-3" d="M710.34,728.19a4.18,4.18,0,1,1,4.18,4.18,4.18,4.18,0,0,1-4.18-4.18Zm7.37,0a3.2,3.2,0,1,0-3.19,3.2,3.19,3.19,0,0,0,3.19-3.2Z"/><line class="cls-3" x1="935.13" y1="558" x2="935.13" y2="605.56"/><line class="cls-4" x1="935.13" y1="558" x2="935.13" y2="601.59"/><path class="cls-5" d="M931.45,601.38a3.69,3.69,0,1,0,3.68-3.68A3.69,3.69,0,0,0,931.45,601.38Z"/><path class="cls-3" d="M931,601.38a4.18,4.18,0,1,1,4.17,4.18,4.17,4.17,0,0,1-4.17-4.18Zm7.37,0a3.2,3.2,0,1,0-3.2,3.2,3.19,3.19,0,0,0,3.2-3.2Z"/><line class="cls-3" x1="604.21" y1="557.99" x2="604.21" y2="629.83"/><line class="cls-4" x1="604.21" y1="557.99" x2="604.21" y2="625.86"/><path class="cls-5" d="M600.52,625.65a3.69,3.69,0,1,0,3.69-3.68A3.69,3.69,0,0,0,600.52,625.65Z"/><path class="cls-3" d="M600,625.65a4.18,4.18,0,1,1,4.18,4.18,4.18,4.18,0,0,1-4.18-4.18Zm7.37,0a3.2,3.2,0,1,0-3.19,3.2,3.19,3.19,0,0,0,3.19-3.2Z"/><text class="cls-6" transform="translate(37.72 427.12) rotate(-90)">Núme<tspan class="cls-7" x="53.45" y="0">r</tspan><tspan x="60.13" y="0">o de pessoas</tspan></text><text class="cls-6" transform="translate(387.26 40.83)">Tipo de deficiência <tspan class="cls-8" x="174.9" y="0">r</tspan><tspan x="181.75" y="0">epo</tspan><tspan class="cls-9" x="215.13" y="0">r</tspan><tspan x="222.65" y="0">tada</tspan></text><path class="cls-1" d="M602.45,535H606a8.12,8.12,0,0,1,8.12,8.12v7.58a0,0,0,0,1,0,0H594.34a0,0,0,0,1,0,0v-7.58A8.12,8.12,0,0,1,602.45,535Z"/><g class="cls-10"><line class="cls-1" x1="377.04" y1="716.35" x2="990.96" y2="211.63"/><line class="cls-1" x1="388.16" y1="725.49" x2="1002.08" y2="220.77"/><line class="cls-1" x1="399.28" y1="734.63" x2="1013.19" y2="229.91"/><line class="cls-1" x1="410.39" y1="743.76" x2="1024.31" y2="239.05"/><line class="cls-1" x1="421.51" y1="752.9" x2="1035.43" y2="248.18"/><line class="cls-1" x1="432.63" y1="762.04" x2="1046.54" y2="257.32"/><line class="cls-1" x1="443.74" y1="771.18" x2="1057.66" y2="266.46"/><line class="cls-1" x1="454.86" y1="780.32" x2="1068.78" y2="275.6"/><line class="cls-1" x1="465.98" y1="789.46" x2="1079.89" y2="284.74"/><line class="cls-1" x1="477.09" y1="798.6" x2="1091.01" y2="293.88"/><line class="cls-1" x1="488.21" y1="807.74" x2="1102.13" y2="303.02"/><line class="cls-1" x1="499.33" y1="816.88" x2="1113.24" y2="312.16"/><line class="cls-1" x1="510.44" y1="826.02" x2="1124.36" y2="321.3"/><line class="cls-1" x1="521.56" y1="835.16" x2="1135.48" y2="330.44"/><line class="cls-1" x1="532.68" y1="844.3" x2="1146.59" y2="339.58"/><line class="cls-1" x1="543.79" y1="853.44" x2="1157.71" y2="348.72"/><line class="cls-1" x1="554.91" y1="862.58" x2="1168.83" y2="357.86"/><line class="cls-1" x1="566.03" y1="871.72" x2="1179.94" y2="367"/><line class="cls-1" x1="577.14" y1="880.85" x2="1191.06" y2="376.14"/><line class="cls-1" x1="588.26" y1="889.99" x2="1202.18" y2="385.27"/><line class="cls-1" x1="599.38" y1="899.13" x2="1213.29" y2="394.41"/><line class="cls-1" x1="610.49" y1="908.27" x2="1224.41" y2="403.55"/><line class="cls-1" x1="621.61" y1="917.41" x2="1235.53" y2="412.69"/><line class="cls-1" x1="632.73" y1="926.55" x2="1246.64" y2="421.83"/><line class="cls-1" x1="643.84" y1="935.69" x2="1257.76" y2="430.97"/><line class="cls-1" x1="654.96" y1="944.83" x2="1268.88" y2="440.11"/><line class="cls-1" x1="666.08" y1="953.97" x2="1279.99" y2="449.25"/><line class="cls-1" x1="677.19" y1="963.11" x2="1291.11" y2="458.39"/><line class="cls-1" x1="688.31" y1="972.25" x2="1302.23" y2="467.53"/><line class="cls-1" x1="699.43" y1="981.39" x2="1313.34" y2="476.67"/><line class="cls-1" x1="710.54" y1="990.53" x2="1324.46" y2="485.81"/><line class="cls-1" x1="721.66" y1="999.67" x2="1335.58" y2="494.95"/><line class="cls-1" x1="732.78" y1="1008.81" x2="1346.69" y2="504.09"/><line class="cls-1" x1="743.89" y1="1017.95" x2="1357.81" y2="513.23"/><line class="cls-1" x1="755.01" y1="1027.08" x2="1368.93" y2="522.37"/><line class="cls-1" x1="766.13" y1="1036.22" x2="1380.04" y2="531.5"/><line class="cls-1" x1="777.24" y1="1045.36" x2="1391.16" y2="540.64"/><line class="cls-1" x1="788.36" y1="1054.5" x2="1402.28" y2="549.78"/><line class="cls-1" x1="799.48" y1="1063.64" x2="1413.39" y2="558.92"/><line class="cls-1" x1="810.59" y1="1072.78" x2="1424.51" y2="568.06"/><line class="cls-1" x1="821.71" y1="1081.92" x2="1435.63" y2="577.2"/><line class="cls-1" x1="832.83" y1="1091.06" x2="1446.74" y2="586.34"/><line class="cls-1" x1="843.94" y1="1100.2" x2="1457.86" y2="595.48"/><line class="cls-1" x1="855.06" y1="1109.34" x2="1468.98" y2="604.62"/><line class="cls-1" x1="866.18" y1="1118.48" x2="1480.09" y2="613.76"/><line class="cls-1" x1="877.29" y1="1127.62" x2="1491.21" y2="622.9"/><line class="cls-1" x1="888.41" y1="1136.76" x2="1502.33" y2="632.04"/></g><path class="cls-1" d="M669.24,550.68H649.49v-.59a8.11,8.11,0,0,1,8.12-8.11h3.51a8.12,8.12,0,0,1,8.12,8.12Z"/><g class="cls-11"><line class="cls-1" x1="432.2" y1="723.35" x2="1046.11" y2="218.63"/><line class="cls-1" x1="443.31" y1="732.49" x2="1057.23" y2="227.77"/><line class="cls-1" x1="454.43" y1="741.63" x2="1068.35" y2="236.91"/><line class="cls-1" x1="465.55" y1="750.76" x2="1079.46" y2="246.05"/><line class="cls-1" x1="476.66" y1="759.9" x2="1090.58" y2="255.18"/><line class="cls-1" x1="487.78" y1="769.04" x2="1101.7" y2="264.32"/><line class="cls-1" x1="498.9" y1="778.18" x2="1112.81" y2="273.46"/><line class="cls-1" x1="510.01" y1="787.32" x2="1123.93" y2="282.6"/><line class="cls-1" x1="521.13" y1="796.46" x2="1135.05" y2="291.74"/><line class="cls-1" x1="532.25" y1="805.6" x2="1146.16" y2="300.88"/><line class="cls-1" x1="543.36" y1="814.74" x2="1157.28" y2="310.02"/><line class="cls-1" x1="554.48" y1="823.88" x2="1168.4" y2="319.16"/><line class="cls-1" x1="565.6" y1="833.02" x2="1179.51" y2="328.3"/><line class="cls-1" x1="576.71" y1="842.16" x2="1190.63" y2="337.44"/><line class="cls-1" x1="587.83" y1="851.3" x2="1201.75" y2="346.58"/><line class="cls-1" x1="598.95" y1="860.44" x2="1212.86" y2="355.72"/><line class="cls-1" x1="610.06" y1="869.58" x2="1223.98" y2="364.86"/><line class="cls-1" x1="621.18" y1="878.72" x2="1235.1" y2="374"/><line class="cls-1" x1="632.3" y1="887.85" x2="1246.21" y2="383.14"/><line class="cls-1" x1="643.41" y1="896.99" x2="1257.33" y2="392.27"/><line class="cls-1" x1="654.53" y1="906.13" x2="1268.45" y2="401.41"/><line class="cls-1" x1="665.65" y1="915.27" x2="1279.56" y2="410.55"/><line class="cls-1" x1="676.76" y1="924.41" x2="1290.68" y2="419.69"/><line class="cls-1" x1="687.88" y1="933.55" x2="1301.8" y2="428.83"/><line class="cls-1" x1="699" y1="942.69" x2="1312.91" y2="437.97"/><line class="cls-1" x1="710.11" y1="951.83" x2="1324.03" y2="447.11"/><line class="cls-1" x1="721.23" y1="960.97" x2="1335.15" y2="456.25"/><line class="cls-1" x1="732.35" y1="970.11" x2="1346.26" y2="465.39"/><line class="cls-1" x1="743.46" y1="979.25" x2="1357.38" y2="474.53"/><line class="cls-1" x1="754.58" y1="988.39" x2="1368.5" y2="483.67"/><line class="cls-1" x1="765.7" y1="997.53" x2="1379.61" y2="492.81"/><line class="cls-1" x1="776.81" y1="1006.67" x2="1390.73" y2="501.95"/><line class="cls-1" x1="787.93" y1="1015.81" x2="1401.85" y2="511.09"/><line class="cls-1" x1="799.05" y1="1024.95" x2="1412.96" y2="520.23"/><line class="cls-1" x1="810.16" y1="1034.08" x2="1424.08" y2="529.37"/><line class="cls-1" x1="821.28" y1="1043.22" x2="1435.2" y2="538.5"/><line class="cls-1" x1="832.4" y1="1052.36" x2="1446.31" y2="547.64"/><line class="cls-1" x1="843.51" y1="1061.5" x2="1457.43" y2="556.78"/><line class="cls-1" x1="854.63" y1="1070.64" x2="1468.55" y2="565.92"/><line class="cls-1" x1="865.75" y1="1079.78" x2="1479.66" y2="575.06"/><line class="cls-1" x1="876.86" y1="1088.92" x2="1490.78" y2="584.2"/><line class="cls-1" x1="887.98" y1="1098.06" x2="1501.9" y2="593.34"/><line class="cls-1" x1="899.1" y1="1107.2" x2="1513.01" y2="602.48"/><line class="cls-1" x1="910.21" y1="1116.34" x2="1524.13" y2="611.62"/><line class="cls-1" x1="921.33" y1="1125.48" x2="1535.25" y2="620.76"/><line class="cls-1" x1="932.45" y1="1134.62" x2="1546.36" y2="629.9"/><line class="cls-1" x1="943.56" y1="1143.76" x2="1557.48" y2="639.04"/></g><path class="cls-1" d="M724.39,550.68H704.64v-.59a8.12,8.12,0,0,1,8.12-8.11h3.52a8.11,8.11,0,0,1,8.11,8.12Z"/><g class="cls-12"><line class="cls-1" x1="487.35" y1="723.35" x2="1101.27" y2="218.63"/><line class="cls-1" x1="498.47" y1="732.49" x2="1112.39" y2="227.77"/><line class="cls-1" x1="509.59" y1="741.63" x2="1123.5" y2="236.91"/><line class="cls-1" x1="520.7" y1="750.76" x2="1134.62" y2="246.05"/><line class="cls-1" x1="531.82" y1="759.9" x2="1145.74" y2="255.18"/><line class="cls-1" x1="542.94" y1="769.04" x2="1156.85" y2="264.32"/><line class="cls-1" x1="554.05" y1="778.18" x2="1167.97" y2="273.46"/><line class="cls-1" x1="565.17" y1="787.32" x2="1179.09" y2="282.6"/><line class="cls-1" x1="576.29" y1="796.46" x2="1190.2" y2="291.74"/><line class="cls-1" x1="587.4" y1="805.6" x2="1201.32" y2="300.88"/><line class="cls-1" x1="598.52" y1="814.74" x2="1212.44" y2="310.02"/><line class="cls-1" x1="609.64" y1="823.88" x2="1223.55" y2="319.16"/><line class="cls-1" x1="620.75" y1="833.02" x2="1234.67" y2="328.3"/><line class="cls-1" x1="631.87" y1="842.16" x2="1245.79" y2="337.44"/><line class="cls-1" x1="642.99" y1="851.3" x2="1256.9" y2="346.58"/><line class="cls-1" x1="654.1" y1="860.44" x2="1268.02" y2="355.72"/><line class="cls-1" x1="665.22" y1="869.58" x2="1279.14" y2="364.86"/><line class="cls-1" x1="676.34" y1="878.72" x2="1290.25" y2="374"/><line class="cls-1" x1="687.45" y1="887.85" x2="1301.37" y2="383.14"/><line class="cls-1" x1="698.57" y1="896.99" x2="1312.49" y2="392.27"/><line class="cls-1" x1="709.69" y1="906.13" x2="1323.6" y2="401.41"/><line class="cls-1" x1="720.8" y1="915.27" x2="1334.72" y2="410.55"/><line class="cls-1" x1="731.92" y1="924.41" x2="1345.84" y2="419.69"/><line class="cls-1" x1="743.04" y1="933.55" x2="1356.95" y2="428.83"/><line class="cls-1" x1="754.15" y1="942.69" x2="1368.07" y2="437.97"/><line class="cls-1" x1="765.27" y1="951.83" x2="1379.19" y2="447.11"/><line class="cls-1" x1="776.39" y1="960.97" x2="1390.3" y2="456.25"/><line class="cls-1" x1="787.5" y1="970.11" x2="1401.42" y2="465.39"/><line class="cls-1" x1="798.62" y1="979.25" x2="1412.54" y2="474.53"/><line class="cls-1" x1="809.74" y1="988.39" x2="1423.65" y2="483.67"/><line class="cls-1" x1="820.85" y1="997.53" x2="1434.77" y2="492.81"/><line class="cls-1" x1="831.97" y1="1006.67" x2="1445.89" y2="501.95"/><line class="cls-1" x1="843.09" y1="1015.81" x2="1457" y2="511.09"/><line class="cls-1" x1="854.2" y1="1024.95" x2="1468.12" y2="520.23"/><line class="cls-1" x1="865.32" y1="1034.08" x2="1479.24" y2="529.37"/><line class="cls-1" x1="876.44" y1="1043.22" x2="1490.35" y2="538.5"/><line class="cls-1" x1="887.55" y1="1052.36" x2="1501.47" y2="547.64"/><line class="cls-1" x1="898.67" y1="1061.5" x2="1512.59" y2="556.78"/><line class="cls-1" x1="909.79" y1="1070.64" x2="1523.7" y2="565.92"/><line class="cls-1" x1="920.9" y1="1079.78" x2="1534.82" y2="575.06"/><line class="cls-1" x1="932.02" y1="1088.92" x2="1545.94" y2="584.2"/><line class="cls-1" x1="943.14" y1="1098.06" x2="1557.05" y2="593.34"/><line class="cls-1" x1="954.25" y1="1107.2" x2="1568.17" y2="602.48"/><line class="cls-1" x1="965.37" y1="1116.34" x2="1579.29" y2="611.62"/><line class="cls-1" x1="976.49" y1="1125.48" x2="1590.4" y2="620.76"/><line class="cls-1" x1="987.6" y1="1134.62" x2="1601.52" y2="629.9"/><line class="cls-1" x1="998.72" y1="1143.76" x2="1612.64" y2="639.04"/></g><path class="cls-1" d="M780.76,550.68H761v-.59a8.12,8.12,0,0,1,8.12-8.11h3.52a8.11,8.11,0,0,1,8.11,8.12Z"/><g class="cls-13"><line class="cls-1" x1="543.72" y1="723.35" x2="1157.64" y2="218.63"/><line class="cls-1" x1="554.84" y1="732.49" x2="1168.76" y2="227.77"/><line class="cls-1" x1="565.96" y1="741.63" x2="1179.87" y2="236.91"/><line class="cls-1" x1="577.07" y1="750.76" x2="1190.99" y2="246.05"/><line class="cls-1" x1="588.19" y1="759.9" x2="1202.11" y2="255.18"/><line class="cls-1" x1="599.31" y1="769.04" x2="1213.22" y2="264.32"/><line class="cls-1" x1="610.42" y1="778.18" x2="1224.34" y2="273.46"/><line class="cls-1" x1="621.54" y1="787.32" x2="1235.46" y2="282.6"/><line class="cls-1" x1="632.66" y1="796.46" x2="1246.57" y2="291.74"/><line class="cls-1" x1="643.77" y1="805.6" x2="1257.69" y2="300.88"/><line class="cls-1" x1="654.89" y1="814.74" x2="1268.81" y2="310.02"/><line class="cls-1" x1="666.01" y1="823.88" x2="1279.92" y2="319.16"/><line class="cls-1" x1="677.12" y1="833.02" x2="1291.04" y2="328.3"/><line class="cls-1" x1="688.24" y1="842.16" x2="1302.16" y2="337.44"/><line class="cls-1" x1="699.36" y1="851.3" x2="1313.27" y2="346.58"/><line class="cls-1" x1="710.47" y1="860.44" x2="1324.39" y2="355.72"/><line class="cls-1" x1="721.59" y1="869.58" x2="1335.51" y2="364.86"/><line class="cls-1" x1="732.71" y1="878.72" x2="1346.62" y2="374"/><line class="cls-1" x1="743.82" y1="887.85" x2="1357.74" y2="383.14"/><line class="cls-1" x1="754.94" y1="896.99" x2="1368.86" y2="392.27"/><line class="cls-1" x1="766.06" y1="906.13" x2="1379.97" y2="401.41"/><line class="cls-1" x1="777.17" y1="915.27" x2="1391.09" y2="410.55"/><line class="cls-1" x1="788.29" y1="924.41" x2="1402.21" y2="419.69"/><line class="cls-1" x1="799.41" y1="933.55" x2="1413.32" y2="428.83"/><line class="cls-1" x1="810.52" y1="942.69" x2="1424.44" y2="437.97"/><line class="cls-1" x1="821.64" y1="951.83" x2="1435.56" y2="447.11"/><line class="cls-1" x1="832.76" y1="960.97" x2="1446.67" y2="456.25"/><line class="cls-1" x1="843.87" y1="970.11" x2="1457.79" y2="465.39"/><line class="cls-1" x1="854.99" y1="979.25" x2="1468.91" y2="474.53"/><line class="cls-1" x1="866.11" y1="988.39" x2="1480.02" y2="483.67"/><line class="cls-1" x1="877.22" y1="997.53" x2="1491.14" y2="492.81"/><line class="cls-1" x1="888.34" y1="1006.67" x2="1502.26" y2="501.95"/><line class="cls-1" x1="899.46" y1="1015.81" x2="1513.37" y2="511.09"/><line class="cls-1" x1="910.57" y1="1024.95" x2="1524.49" y2="520.23"/><line class="cls-1" x1="921.69" y1="1034.08" x2="1535.61" y2="529.37"/><line class="cls-1" x1="932.81" y1="1043.22" x2="1546.72" y2="538.5"/><line class="cls-1" x1="943.92" y1="1052.36" x2="1557.84" y2="547.64"/><line class="cls-1" x1="955.04" y1="1061.5" x2="1568.96" y2="556.78"/><line class="cls-1" x1="966.16" y1="1070.64" x2="1580.07" y2="565.92"/><line class="cls-1" x1="977.27" y1="1079.78" x2="1591.19" y2="575.06"/><line class="cls-1" x1="988.39" y1="1088.92" x2="1602.31" y2="584.2"/><line class="cls-1" x1="999.51" y1="1098.06" x2="1613.42" y2="593.34"/></g><path class="cls-1" d="M834.33,550.68a8.1,8.1,0,0,0-7.75-5.7h-3.51a8.11,8.11,0,0,0-7.75,5.7Z"/><path class="cls-1" d="M889.49,550.68a8.11,8.11,0,0,0-7.75-5.7h-3.52a8.11,8.11,0,0,0-7.75,5.7Z"/><path class="cls-1" d="M338.31,550.68H318.56l.3-65.23a8.12,8.12,0,0,1,8.12-8.12h3.51a8.13,8.13,0,0,1,8.12,8.12Z"/><g class="cls-14"><line class="cls-1" x1="-18.62" y1="653.22" x2="595.3" y2="148.5"/><line class="cls-1" x1="-7.5" y1="662.35" x2="606.42" y2="157.64"/><line class="cls-1" x1="3.62" y1="671.49" x2="617.53" y2="166.77"/><line class="cls-1" x1="14.73" y1="680.63" x2="628.65" y2="175.91"/><line class="cls-1" x1="25.85" y1="689.77" x2="639.77" y2="185.05"/><line class="cls-1" x1="36.97" y1="698.91" x2="650.88" y2="194.19"/><line class="cls-1" x1="48.08" y1="708.05" x2="662" y2="203.33"/><line class="cls-1" x1="59.2" y1="717.19" x2="673.12" y2="212.47"/><line class="cls-1" x1="70.32" y1="726.33" x2="684.23" y2="221.61"/><line class="cls-1" x1="81.43" y1="735.47" x2="695.35" y2="230.75"/><line class="cls-1" x1="92.55" y1="744.61" x2="706.47" y2="239.89"/><line class="cls-1" x1="103.67" y1="753.75" x2="717.58" y2="249.03"/><line class="cls-1" x1="114.78" y1="762.89" x2="728.7" y2="258.17"/><line class="cls-1" x1="125.9" y1="772.03" x2="739.82" y2="267.31"/><line class="cls-1" x1="137.02" y1="781.17" x2="750.93" y2="276.45"/><line class="cls-1" x1="148.13" y1="790.31" x2="762.05" y2="285.59"/><line class="cls-1" x1="159.25" y1="799.45" x2="773.17" y2="294.73"/><line class="cls-1" x1="170.37" y1="808.58" x2="784.28" y2="303.87"/><line class="cls-1" x1="181.48" y1="817.72" x2="795.4" y2="313"/><line class="cls-1" x1="192.6" y1="826.86" x2="806.52" y2="322.14"/><line class="cls-1" x1="203.72" y1="836" x2="817.63" y2="331.28"/><line class="cls-1" x1="214.83" y1="845.14" x2="828.75" y2="340.42"/><line class="cls-1" x1="225.95" y1="854.28" x2="839.87" y2="349.56"/><line class="cls-1" x1="237.07" y1="863.42" x2="850.98" y2="358.7"/><line class="cls-1" x1="248.18" y1="872.56" x2="862.1" y2="367.84"/><line class="cls-1" x1="259.3" y1="881.7" x2="873.22" y2="376.98"/><line class="cls-1" x1="270.42" y1="890.84" x2="884.33" y2="386.12"/><line class="cls-1" x1="281.53" y1="899.98" x2="895.45" y2="395.26"/><line class="cls-1" x1="292.65" y1="909.12" x2="906.57" y2="404.4"/><line class="cls-1" x1="303.77" y1="918.26" x2="917.68" y2="413.54"/><line class="cls-1" x1="314.88" y1="927.4" x2="928.8" y2="422.68"/><line class="cls-1" x1="326" y1="936.54" x2="939.92" y2="431.82"/><line class="cls-1" x1="337.12" y1="945.67" x2="951.03" y2="440.96"/><line class="cls-1" x1="348.23" y1="954.81" x2="962.15" y2="450.09"/><line class="cls-1" x1="359.35" y1="963.95" x2="973.27" y2="459.23"/><line class="cls-1" x1="370.47" y1="973.09" x2="984.38" y2="468.37"/><line class="cls-1" x1="381.58" y1="982.23" x2="995.5" y2="477.51"/><line class="cls-1" x1="392.7" y1="991.37" x2="1006.62" y2="486.65"/><line class="cls-1" x1="403.82" y1="1000.51" x2="1017.73" y2="495.79"/><line class="cls-1" x1="414.93" y1="1009.65" x2="1028.85" y2="504.93"/><line class="cls-1" x1="426.05" y1="1018.79" x2="1039.97" y2="514.07"/><line class="cls-1" x1="437.17" y1="1027.93" x2="1051.08" y2="523.21"/><line class="cls-1" x1="448.28" y1="1037.07" x2="1062.2" y2="532.35"/><line class="cls-1" x1="459.4" y1="1046.21" x2="1073.32" y2="541.49"/><line class="cls-1" x1="470.52" y1="1055.35" x2="1084.43" y2="550.63"/><line class="cls-1" x1="481.63" y1="1064.49" x2="1095.55" y2="559.77"/><line class="cls-1" x1="492.75" y1="1073.63" x2="1106.67" y2="568.91"/></g><path class="cls-1" d="M393.47,550.68H373.72l.15-46.1a8.11,8.11,0,0,1,8.11-8.12h3.52a8.11,8.11,0,0,1,8.11,8.12Z"/><g class="cls-15"><line class="cls-1" x1="36.39" y1="672.34" x2="650.31" y2="167.62"/><line class="cls-1" x1="47.51" y1="681.48" x2="661.42" y2="176.76"/><line class="cls-1" x1="58.62" y1="690.62" x2="672.54" y2="185.9"/><line class="cls-1" x1="69.74" y1="699.76" x2="683.66" y2="195.04"/><line class="cls-1" x1="80.86" y1="708.9" x2="694.77" y2="204.18"/><line class="cls-1" x1="91.97" y1="718.04" x2="705.89" y2="213.32"/><line class="cls-1" x1="103.09" y1="727.18" x2="717.01" y2="222.46"/><line class="cls-1" x1="114.21" y1="736.32" x2="728.12" y2="231.6"/><line class="cls-1" x1="125.32" y1="745.46" x2="739.24" y2="240.74"/><line class="cls-1" x1="136.44" y1="754.59" x2="750.36" y2="249.88"/><line class="cls-1" x1="147.56" y1="763.73" x2="761.47" y2="259.01"/><line class="cls-1" x1="158.67" y1="772.87" x2="772.59" y2="268.15"/><line class="cls-1" x1="169.79" y1="782.01" x2="783.71" y2="277.29"/><line class="cls-1" x1="180.91" y1="791.15" x2="794.82" y2="286.43"/><line class="cls-1" x1="192.02" y1="800.29" x2="805.94" y2="295.57"/><line class="cls-1" x1="203.14" y1="809.43" x2="817.06" y2="304.71"/><line class="cls-1" x1="214.26" y1="818.57" x2="828.17" y2="313.85"/><line class="cls-1" x1="225.37" y1="827.71" x2="839.29" y2="322.99"/><line class="cls-1" x1="236.49" y1="836.85" x2="850.41" y2="332.13"/><line class="cls-1" x1="247.61" y1="845.99" x2="861.52" y2="341.27"/><line class="cls-1" x1="258.72" y1="855.13" x2="872.64" y2="350.41"/><line class="cls-1" x1="269.84" y1="864.27" x2="883.76" y2="359.55"/><line class="cls-1" x1="280.96" y1="873.41" x2="894.87" y2="368.69"/><line class="cls-1" x1="292.07" y1="882.55" x2="905.99" y2="377.83"/><line class="cls-1" x1="303.19" y1="891.69" x2="917.11" y2="386.97"/><line class="cls-1" x1="314.31" y1="900.82" x2="928.22" y2="396.1"/><line class="cls-1" x1="325.42" y1="909.96" x2="939.34" y2="405.24"/><line class="cls-1" x1="336.54" y1="919.1" x2="950.46" y2="414.38"/><line class="cls-1" x1="347.66" y1="928.24" x2="961.57" y2="423.52"/><line class="cls-1" x1="358.77" y1="937.38" x2="972.69" y2="432.66"/><line class="cls-1" x1="369.89" y1="946.52" x2="983.81" y2="441.8"/><line class="cls-1" x1="381.01" y1="955.66" x2="994.92" y2="450.94"/><line class="cls-1" x1="392.12" y1="964.8" x2="1006.04" y2="460.08"/><line class="cls-1" x1="403.24" y1="973.94" x2="1017.16" y2="469.22"/><line class="cls-1" x1="414.36" y1="983.08" x2="1028.27" y2="478.36"/><line class="cls-1" x1="425.47" y1="992.22" x2="1039.39" y2="487.5"/><line class="cls-1" x1="436.59" y1="1001.36" x2="1050.51" y2="496.64"/><line class="cls-1" x1="447.71" y1="1010.5" x2="1061.62" y2="505.78"/><line class="cls-1" x1="458.82" y1="1019.64" x2="1072.74" y2="514.92"/><line class="cls-1" x1="469.94" y1="1028.78" x2="1083.86" y2="524.06"/><line class="cls-1" x1="481.06" y1="1037.91" x2="1094.97" y2="533.2"/><line class="cls-1" x1="492.17" y1="1047.05" x2="1106.09" y2="542.33"/><line class="cls-1" x1="503.29" y1="1056.19" x2="1117.21" y2="551.47"/><line class="cls-1" x1="514.41" y1="1065.33" x2="1128.32" y2="560.61"/><line class="cls-1" x1="525.52" y1="1074.47" x2="1139.44" y2="569.75"/><line class="cls-1" x1="536.64" y1="1083.61" x2="1150.56" y2="578.89"/><line class="cls-1" x1="547.76" y1="1092.75" x2="1161.67" y2="588.03"/></g><path class="cls-1" d="M448.55,550.68H428.8l.15-42.1a8.11,8.11,0,0,1,8.11-8.12h3.52a8.12,8.12,0,0,1,8.12,8.12Z"/><g class="cls-16"><line class="cls-1" x1="91.47" y1="676.34" x2="705.39" y2="171.62"/><line class="cls-1" x1="102.59" y1="685.48" x2="716.5" y2="180.76"/><line class="cls-1" x1="113.7" y1="694.62" x2="727.62" y2="189.9"/><line class="cls-1" x1="124.82" y1="703.76" x2="738.74" y2="199.04"/><line class="cls-1" x1="135.94" y1="712.9" x2="749.85" y2="208.18"/><line class="cls-1" x1="147.05" y1="722.04" x2="760.97" y2="217.32"/><line class="cls-1" x1="158.17" y1="731.18" x2="772.09" y2="226.46"/><line class="cls-1" x1="169.29" y1="740.32" x2="783.2" y2="235.6"/><line class="cls-1" x1="180.4" y1="749.46" x2="794.32" y2="244.74"/><line class="cls-1" x1="191.52" y1="758.59" x2="805.44" y2="253.88"/><line class="cls-1" x1="202.64" y1="767.73" x2="816.55" y2="263.01"/><line class="cls-1" x1="213.75" y1="776.87" x2="827.67" y2="272.15"/><line class="cls-1" x1="224.87" y1="786.01" x2="838.79" y2="281.29"/><line class="cls-1" x1="235.99" y1="795.15" x2="849.9" y2="290.43"/><line class="cls-1" x1="247.1" y1="804.29" x2="861.02" y2="299.57"/><line class="cls-1" x1="258.22" y1="813.43" x2="872.14" y2="308.71"/><line class="cls-1" x1="269.34" y1="822.57" x2="883.25" y2="317.85"/><line class="cls-1" x1="280.45" y1="831.71" x2="894.37" y2="326.99"/><line class="cls-1" x1="291.57" y1="840.85" x2="905.49" y2="336.13"/><line class="cls-1" x1="302.69" y1="849.99" x2="916.6" y2="345.27"/><line class="cls-1" x1="313.8" y1="859.13" x2="927.72" y2="354.41"/><line class="cls-1" x1="324.92" y1="868.27" x2="938.84" y2="363.55"/><line class="cls-1" x1="336.04" y1="877.41" x2="949.95" y2="372.69"/><line class="cls-1" x1="347.15" y1="886.55" x2="961.07" y2="381.83"/><line class="cls-1" x1="358.27" y1="895.69" x2="972.19" y2="390.97"/><line class="cls-1" x1="369.39" y1="904.82" x2="983.3" y2="400.1"/><line class="cls-1" x1="380.5" y1="913.96" x2="994.42" y2="409.24"/><line class="cls-1" x1="391.62" y1="923.1" x2="1005.54" y2="418.38"/><line class="cls-1" x1="402.74" y1="932.24" x2="1016.65" y2="427.52"/><line class="cls-1" x1="413.85" y1="941.38" x2="1027.77" y2="436.66"/><line class="cls-1" x1="424.97" y1="950.52" x2="1038.89" y2="445.8"/><line class="cls-1" x1="436.09" y1="959.66" x2="1050" y2="454.94"/><line class="cls-1" x1="447.2" y1="968.8" x2="1061.12" y2="464.08"/><line class="cls-1" x1="458.32" y1="977.94" x2="1072.24" y2="473.22"/><line class="cls-1" x1="469.44" y1="987.08" x2="1083.35" y2="482.36"/><line class="cls-1" x1="480.55" y1="996.22" x2="1094.47" y2="491.5"/><line class="cls-1" x1="491.67" y1="1005.36" x2="1105.59" y2="500.64"/><line class="cls-1" x1="502.79" y1="1014.5" x2="1116.7" y2="509.78"/><line class="cls-1" x1="513.9" y1="1023.64" x2="1127.82" y2="518.92"/><line class="cls-1" x1="525.02" y1="1032.78" x2="1138.94" y2="528.06"/><line class="cls-1" x1="536.14" y1="1041.91" x2="1150.05" y2="537.2"/><line class="cls-1" x1="547.25" y1="1051.05" x2="1161.17" y2="546.33"/><line class="cls-1" x1="558.37" y1="1060.19" x2="1172.29" y2="555.47"/><line class="cls-1" x1="569.49" y1="1069.33" x2="1183.4" y2="564.61"/><line class="cls-1" x1="580.6" y1="1078.47" x2="1194.52" y2="573.75"/><line class="cls-1" x1="591.72" y1="1087.61" x2="1205.64" y2="582.89"/><line class="cls-1" x1="602.84" y1="1096.75" x2="1216.75" y2="592.03"/></g><path class="cls-1" d="M504.31,550.68H484.56l.15-25.1a8.11,8.11,0,0,1,8.12-8.12h3.51a8.12,8.12,0,0,1,8.12,8.12Z"/><g class="cls-17"><line class="cls-1" x1="147.23" y1="693.34" x2="761.15" y2="188.62"/><line class="cls-1" x1="158.35" y1="702.48" x2="772.26" y2="197.76"/><line class="cls-1" x1="169.47" y1="711.62" x2="783.38" y2="206.9"/><line class="cls-1" x1="180.58" y1="720.76" x2="794.5" y2="216.04"/><line class="cls-1" x1="191.7" y1="729.9" x2="805.61" y2="225.18"/><line class="cls-1" x1="202.82" y1="739.04" x2="816.73" y2="234.32"/><line class="cls-1" x1="213.93" y1="748.18" x2="827.85" y2="243.46"/><line class="cls-1" x1="225.05" y1="757.32" x2="838.96" y2="252.6"/><line class="cls-1" x1="236.17" y1="766.46" x2="850.08" y2="261.74"/><line class="cls-1" x1="247.28" y1="775.59" x2="861.2" y2="270.88"/><line class="cls-1" x1="258.4" y1="784.73" x2="872.31" y2="280.01"/><line class="cls-1" x1="269.52" y1="793.87" x2="883.43" y2="289.15"/><line class="cls-1" x1="280.63" y1="803.01" x2="894.55" y2="298.29"/><line class="cls-1" x1="291.75" y1="812.15" x2="905.66" y2="307.43"/><line class="cls-1" x1="302.87" y1="821.29" x2="916.78" y2="316.57"/><line class="cls-1" x1="313.98" y1="830.43" x2="927.9" y2="325.71"/><line class="cls-1" x1="325.1" y1="839.57" x2="939.01" y2="334.85"/><line class="cls-1" x1="336.22" y1="848.71" x2="950.13" y2="343.99"/><line class="cls-1" x1="347.33" y1="857.85" x2="961.25" y2="353.13"/><line class="cls-1" x1="358.45" y1="866.99" x2="972.36" y2="362.27"/><line class="cls-1" x1="369.57" y1="876.13" x2="983.48" y2="371.41"/><line class="cls-1" x1="380.68" y1="885.27" x2="994.6" y2="380.55"/><line class="cls-1" x1="391.8" y1="894.41" x2="1005.71" y2="389.69"/><line class="cls-1" x1="402.92" y1="903.55" x2="1016.83" y2="398.83"/><line class="cls-1" x1="414.03" y1="912.69" x2="1027.95" y2="407.97"/><line class="cls-1" x1="425.15" y1="921.82" x2="1039.06" y2="417.1"/><line class="cls-1" x1="436.27" y1="930.96" x2="1050.18" y2="426.24"/><line class="cls-1" x1="447.38" y1="940.1" x2="1061.3" y2="435.38"/><line class="cls-1" x1="458.5" y1="949.24" x2="1072.41" y2="444.52"/><line class="cls-1" x1="469.62" y1="958.38" x2="1083.53" y2="453.66"/><line class="cls-1" x1="480.73" y1="967.52" x2="1094.65" y2="462.8"/><line class="cls-1" x1="491.85" y1="976.66" x2="1105.76" y2="471.94"/><line class="cls-1" x1="502.97" y1="985.8" x2="1116.88" y2="481.08"/><line class="cls-1" x1="514.08" y1="994.94" x2="1128" y2="490.22"/><line class="cls-1" x1="525.2" y1="1004.08" x2="1139.11" y2="499.36"/><line class="cls-1" x1="536.32" y1="1013.22" x2="1150.23" y2="508.5"/><line class="cls-1" x1="547.43" y1="1022.36" x2="1161.35" y2="517.64"/><line class="cls-1" x1="558.55" y1="1031.5" x2="1172.46" y2="526.78"/><line class="cls-1" x1="569.67" y1="1040.64" x2="1183.58" y2="535.92"/><line class="cls-1" x1="580.78" y1="1049.78" x2="1194.7" y2="545.06"/><line class="cls-1" x1="591.9" y1="1058.91" x2="1205.81" y2="554.2"/><line class="cls-1" x1="603.02" y1="1068.05" x2="1216.93" y2="563.33"/><line class="cls-1" x1="614.13" y1="1077.19" x2="1228.05" y2="572.47"/><line class="cls-1" x1="625.25" y1="1086.33" x2="1239.16" y2="581.61"/><line class="cls-1" x1="636.37" y1="1095.47" x2="1250.28" y2="590.75"/><line class="cls-1" x1="647.48" y1="1104.61" x2="1261.4" y2="599.89"/><line class="cls-1" x1="658.6" y1="1113.75" x2="1272.51" y2="609.03"/></g><path class="cls-1" d="M560,550.68H540.32l.15-17.1a8.1,8.1,0,0,1,8.09-8.12h3.51a8.1,8.1,0,0,1,8.09,8.12Z"/><g class="cls-18"><line class="cls-1" x1="203.99" y1="701.34" x2="816.09" y2="196.62"/><line class="cls-1" x1="215.08" y1="710.48" x2="827.18" y2="205.76"/><line class="cls-1" x1="226.16" y1="719.62" x2="838.26" y2="214.9"/><line class="cls-1" x1="237.24" y1="728.76" x2="849.34" y2="224.04"/><line class="cls-1" x1="248.33" y1="737.9" x2="860.43" y2="233.18"/><line class="cls-1" x1="259.41" y1="747.04" x2="871.51" y2="242.32"/><line class="cls-1" x1="270.5" y1="756.18" x2="882.6" y2="251.46"/><line class="cls-1" x1="281.58" y1="765.32" x2="893.68" y2="260.6"/><line class="cls-1" x1="292.66" y1="774.46" x2="904.76" y2="269.74"/><line class="cls-1" x1="303.75" y1="783.59" x2="915.85" y2="278.88"/><line class="cls-1" x1="314.83" y1="792.73" x2="926.93" y2="288.01"/><line class="cls-1" x1="325.91" y1="801.87" x2="938.02" y2="297.15"/><line class="cls-1" x1="337" y1="811.01" x2="949.1" y2="306.29"/><line class="cls-1" x1="348.08" y1="820.15" x2="960.18" y2="315.43"/><line class="cls-1" x1="359.17" y1="829.29" x2="971.27" y2="324.57"/><line class="cls-1" x1="370.25" y1="838.43" x2="982.35" y2="333.71"/><line class="cls-1" x1="381.33" y1="847.57" x2="993.43" y2="342.85"/><line class="cls-1" x1="392.42" y1="856.71" x2="1004.52" y2="351.99"/><line class="cls-1" x1="403.5" y1="865.85" x2="1015.6" y2="361.13"/><line class="cls-1" x1="414.58" y1="874.99" x2="1026.69" y2="370.27"/><line class="cls-1" x1="425.67" y1="884.13" x2="1037.77" y2="379.41"/><line class="cls-1" x1="436.75" y1="893.27" x2="1048.85" y2="388.55"/><line class="cls-1" x1="447.84" y1="902.41" x2="1059.94" y2="397.69"/><line class="cls-1" x1="458.92" y1="911.55" x2="1071.02" y2="406.83"/><line class="cls-1" x1="470" y1="920.69" x2="1082.1" y2="415.97"/><line class="cls-1" x1="481.09" y1="929.82" x2="1093.19" y2="425.1"/><line class="cls-1" x1="492.17" y1="938.96" x2="1104.27" y2="434.24"/><line class="cls-1" x1="503.25" y1="948.1" x2="1115.36" y2="443.38"/><line class="cls-1" x1="514.34" y1="957.24" x2="1126.44" y2="452.52"/><line class="cls-1" x1="525.42" y1="966.38" x2="1137.52" y2="461.66"/><line class="cls-1" x1="536.51" y1="975.52" x2="1148.61" y2="470.8"/><line class="cls-1" x1="547.59" y1="984.66" x2="1159.69" y2="479.94"/><line class="cls-1" x1="558.67" y1="993.8" x2="1170.78" y2="489.08"/><line class="cls-1" x1="569.76" y1="1002.94" x2="1181.86" y2="498.22"/><line class="cls-1" x1="580.84" y1="1012.08" x2="1192.94" y2="507.36"/><line class="cls-1" x1="591.93" y1="1021.22" x2="1204.03" y2="516.5"/><line class="cls-1" x1="603.01" y1="1030.36" x2="1215.11" y2="525.64"/><line class="cls-1" x1="614.09" y1="1039.5" x2="1226.19" y2="534.78"/><line class="cls-1" x1="625.18" y1="1048.64" x2="1237.28" y2="543.92"/><line class="cls-1" x1="636.26" y1="1057.78" x2="1248.36" y2="553.06"/><line class="cls-1" x1="647.34" y1="1066.91" x2="1259.45" y2="562.2"/><line class="cls-1" x1="658.43" y1="1076.05" x2="1270.53" y2="571.33"/><line class="cls-1" x1="669.51" y1="1085.19" x2="1281.61" y2="580.47"/><line class="cls-1" x1="680.6" y1="1094.33" x2="1292.7" y2="589.61"/><line class="cls-1" x1="691.68" y1="1103.47" x2="1303.78" y2="598.75"/><line class="cls-1" x1="702.76" y1="1112.61" x2="1314.86" y2="607.89"/><line class="cls-1" x1="713.85" y1="1121.75" x2="1325.95" y2="617.03"/></g><path class="cls-1" d="M287.4,550.68H267.65L264.58,357c0-4.48,4.42-8.12,9.88-8.12h0c5.45,0,9.87,3.64,9.87,8.12Z"/><g class="cls-19"><line class="cls-1" x1="-62.79" y1="524.75" x2="551.13" y2="20.03"/><line class="cls-1" x1="-51.67" y1="533.89" x2="562.25" y2="29.17"/><line class="cls-1" x1="-40.55" y1="543.03" x2="573.36" y2="38.31"/><line class="cls-1" x1="-29.44" y1="552.17" x2="584.48" y2="47.45"/><line class="cls-1" x1="-18.32" y1="561.31" x2="595.6" y2="56.59"/><line class="cls-1" x1="-7.2" y1="570.45" x2="606.71" y2="65.73"/><line class="cls-1" x1="3.91" y1="579.59" x2="617.83" y2="74.87"/><line class="cls-1" x1="15.03" y1="588.73" x2="628.95" y2="84.01"/><line class="cls-1" x1="26.15" y1="597.87" x2="640.06" y2="93.15"/><line class="cls-1" x1="37.26" y1="607.01" x2="651.18" y2="102.29"/><line class="cls-1" x1="48.38" y1="616.15" x2="662.3" y2="111.43"/><line class="cls-1" x1="59.5" y1="625.28" x2="673.41" y2="120.57"/><line class="cls-1" x1="70.61" y1="634.42" x2="684.53" y2="129.7"/><line class="cls-1" x1="81.73" y1="643.56" x2="695.65" y2="138.84"/><line class="cls-1" x1="92.85" y1="652.7" x2="706.76" y2="147.98"/><line class="cls-1" x1="103.96" y1="661.84" x2="717.88" y2="157.12"/><line class="cls-1" x1="115.08" y1="670.98" x2="729" y2="166.26"/><line class="cls-1" x1="126.2" y1="680.12" x2="740.11" y2="175.4"/><line class="cls-1" x1="137.31" y1="689.26" x2="751.23" y2="184.54"/><line class="cls-1" x1="148.43" y1="698.4" x2="762.35" y2="193.68"/><line class="cls-1" x1="159.55" y1="707.54" x2="773.46" y2="202.82"/><line class="cls-1" x1="170.66" y1="716.68" x2="784.58" y2="211.96"/><line class="cls-1" x1="181.78" y1="725.82" x2="795.7" y2="221.1"/><line class="cls-1" x1="192.9" y1="734.96" x2="806.81" y2="230.24"/><line class="cls-1" x1="204.01" y1="744.1" x2="817.93" y2="239.38"/><line class="cls-1" x1="215.13" y1="753.24" x2="829.05" y2="248.52"/><line class="cls-1" x1="226.25" y1="762.38" x2="840.16" y2="257.66"/><line class="cls-1" x1="237.36" y1="771.51" x2="851.28" y2="266.79"/><line class="cls-1" x1="248.48" y1="780.65" x2="862.4" y2="275.93"/><line class="cls-1" x1="259.6" y1="789.79" x2="873.51" y2="285.07"/><line class="cls-1" x1="270.71" y1="798.93" x2="884.63" y2="294.21"/><line class="cls-1" x1="281.83" y1="808.07" x2="895.75" y2="303.35"/><line class="cls-1" x1="292.95" y1="817.21" x2="906.86" y2="312.49"/><line class="cls-1" x1="304.06" y1="826.35" x2="917.98" y2="321.63"/><line class="cls-1" x1="315.18" y1="835.49" x2="929.1" y2="330.77"/><line class="cls-1" x1="326.3" y1="844.63" x2="940.21" y2="339.91"/><line class="cls-1" x1="337.41" y1="853.77" x2="951.33" y2="349.05"/><line class="cls-1" x1="348.53" y1="862.91" x2="962.45" y2="358.19"/><line class="cls-1" x1="359.65" y1="872.05" x2="973.56" y2="367.33"/><line class="cls-1" x1="370.76" y1="881.19" x2="984.68" y2="376.47"/><line class="cls-1" x1="381.88" y1="890.33" x2="995.8" y2="385.61"/><line class="cls-1" x1="393" y1="899.47" x2="1006.91" y2="394.75"/><line class="cls-1" x1="404.11" y1="908.6" x2="1018.03" y2="403.89"/><line class="cls-1" x1="415.23" y1="917.74" x2="1029.15" y2="413.02"/><line class="cls-1" x1="426.35" y1="926.88" x2="1040.26" y2="422.16"/><line class="cls-1" x1="437.46" y1="936.02" x2="1051.38" y2="431.3"/><line class="cls-1" x1="448.58" y1="945.16" x2="1062.5" y2="440.44"/></g><path class="cls-1" d="M228,550.68H208.26l.58-305.53c0-4.48,4.42-8.12,9.88-8.12h0c5.45,0,9.87,3.64,9.87,8.12Z"/><g class="cls-20"><line class="cls-1" x1="-118.53" y1="412.93" x2="495.39" y2="-91.79"/><line class="cls-1" x1="-107.41" y1="422.07" x2="506.51" y2="-82.65"/><line class="cls-1" x1="-96.29" y1="431.21" x2="517.62" y2="-73.51"/><line class="cls-1" x1="-85.18" y1="440.35" x2="528.74" y2="-64.37"/><line class="cls-1" x1="-74.06" y1="449.49" x2="539.86" y2="-55.23"/><line class="cls-1" x1="-62.94" y1="458.63" x2="550.97" y2="-46.09"/><line class="cls-1" x1="-51.83" y1="467.77" x2="562.09" y2="-36.95"/><line class="cls-1" x1="-40.71" y1="476.91" x2="573.21" y2="-27.81"/><line class="cls-1" x1="-29.59" y1="486.05" x2="584.32" y2="-18.67"/><line class="cls-1" x1="-18.48" y1="495.19" x2="595.44" y2="-9.53"/><line class="cls-1" x1="-7.36" y1="504.32" x2="606.56" y2="-0.39"/><line class="cls-1" x1="3.76" y1="513.46" x2="617.67" y2="8.74"/><line class="cls-1" x1="14.87" y1="522.6" x2="628.79" y2="17.88"/><line class="cls-1" x1="25.99" y1="531.74" x2="639.91" y2="27.02"/><line class="cls-1" x1="37.11" y1="540.88" x2="651.02" y2="36.16"/><line class="cls-1" x1="48.22" y1="550.02" x2="662.14" y2="45.3"/><line class="cls-1" x1="59.34" y1="559.16" x2="673.26" y2="54.44"/><line class="cls-1" x1="70.46" y1="568.3" x2="684.37" y2="63.58"/><line class="cls-1" x1="81.57" y1="577.44" x2="695.49" y2="72.72"/><line class="cls-1" x1="92.69" y1="586.58" x2="706.61" y2="81.86"/><line class="cls-1" x1="103.81" y1="595.72" x2="717.72" y2="91"/><line class="cls-1" x1="114.92" y1="604.86" x2="728.84" y2="100.14"/><line class="cls-1" x1="126.04" y1="614" x2="739.96" y2="109.28"/><line class="cls-1" x1="137.16" y1="623.14" x2="751.07" y2="118.42"/><line class="cls-1" x1="148.27" y1="632.28" x2="762.19" y2="127.56"/><line class="cls-1" x1="159.39" y1="641.42" x2="773.31" y2="136.7"/><line class="cls-1" x1="170.51" y1="650.55" x2="784.42" y2="145.83"/><line class="cls-1" x1="181.62" y1="659.69" x2="795.54" y2="154.97"/><line class="cls-1" x1="192.74" y1="668.83" x2="806.66" y2="164.11"/><line class="cls-1" x1="203.86" y1="677.97" x2="817.77" y2="173.25"/><line class="cls-1" x1="214.97" y1="687.11" x2="828.89" y2="182.39"/><line class="cls-1" x1="226.09" y1="696.25" x2="840.01" y2="191.53"/><line class="cls-1" x1="237.21" y1="705.39" x2="851.12" y2="200.67"/><line class="cls-1" x1="248.32" y1="714.53" x2="862.24" y2="209.81"/><line class="cls-1" x1="259.44" y1="723.67" x2="873.36" y2="218.95"/><line class="cls-1" x1="270.56" y1="732.81" x2="884.47" y2="228.09"/><line class="cls-1" x1="281.67" y1="741.95" x2="895.59" y2="237.23"/><line class="cls-1" x1="292.79" y1="751.09" x2="906.71" y2="246.37"/><line class="cls-1" x1="303.91" y1="760.23" x2="917.82" y2="255.51"/><line class="cls-1" x1="315.02" y1="769.37" x2="928.94" y2="264.65"/><line class="cls-1" x1="326.14" y1="778.51" x2="940.06" y2="273.79"/><line class="cls-1" x1="337.26" y1="787.64" x2="951.17" y2="282.93"/><line class="cls-1" x1="348.37" y1="796.78" x2="962.29" y2="292.06"/><line class="cls-1" x1="359.49" y1="805.92" x2="973.41" y2="301.2"/><line class="cls-1" x1="370.61" y1="815.06" x2="984.52" y2="310.34"/><line class="cls-1" x1="381.72" y1="824.2" x2="995.64" y2="319.48"/><line class="cls-1" x1="392.84" y1="833.34" x2="1006.76" y2="328.62"/></g><path class="cls-1" d="M172.27,550.68H152.52L153.69,153c0-4.48,4.42-8.12,9.87-8.12h0c5.46,0,9.88,3.64,9.88,8.12Z"/><g class="cls-21"><line class="cls-1" x1="-173.68" y1="320.73" x2="440.24" y2="-183.99"/><line class="cls-1" x1="-162.56" y1="329.87" x2="451.35" y2="-174.85"/><line class="cls-1" x1="-151.45" y1="339.01" x2="462.47" y2="-165.71"/><line class="cls-1" x1="-140.33" y1="348.15" x2="473.59" y2="-156.57"/><line class="cls-1" x1="-129.21" y1="357.29" x2="484.7" y2="-147.43"/><line class="cls-1" x1="-118.1" y1="366.43" x2="495.82" y2="-138.29"/><line class="cls-1" x1="-106.98" y1="375.57" x2="506.94" y2="-129.15"/><line class="cls-1" x1="-95.86" y1="384.71" x2="518.05" y2="-120.01"/><line class="cls-1" x1="-84.75" y1="393.85" x2="529.17" y2="-110.87"/><line class="cls-1" x1="-73.63" y1="402.99" x2="540.29" y2="-101.73"/><line class="cls-1" x1="-62.51" y1="412.13" x2="551.4" y2="-92.59"/><line class="cls-1" x1="-51.4" y1="421.27" x2="562.52" y2="-83.45"/><line class="cls-1" x1="-40.28" y1="430.41" x2="573.64" y2="-74.31"/><line class="cls-1" x1="-29.16" y1="439.54" x2="584.75" y2="-65.17"/><line class="cls-1" x1="-18.05" y1="448.68" x2="595.87" y2="-56.04"/><line class="cls-1" x1="-6.93" y1="457.82" x2="606.99" y2="-46.9"/><line class="cls-1" x1="4.19" y1="466.96" x2="618.1" y2="-37.76"/><line class="cls-1" x1="15.3" y1="476.1" x2="629.22" y2="-28.62"/><line class="cls-1" x1="26.42" y1="485.24" x2="640.34" y2="-19.48"/><line class="cls-1" x1="37.54" y1="494.38" x2="651.45" y2="-10.34"/><line class="cls-1" x1="48.65" y1="503.52" x2="662.57" y2="-1.2"/><line class="cls-1" x1="59.77" y1="512.66" x2="673.69" y2="7.94"/><line class="cls-1" x1="70.89" y1="521.8" x2="684.8" y2="17.08"/><line class="cls-1" x1="82" y1="530.94" x2="695.92" y2="26.22"/><line class="cls-1" x1="93.12" y1="540.08" x2="707.04" y2="35.36"/><line class="cls-1" x1="104.24" y1="549.22" x2="718.15" y2="44.5"/><line class="cls-1" x1="115.35" y1="558.36" x2="729.27" y2="53.64"/><line class="cls-1" x1="126.47" y1="567.5" x2="740.39" y2="62.78"/><line class="cls-1" x1="137.59" y1="576.63" x2="751.5" y2="71.92"/><line class="cls-1" x1="148.7" y1="585.77" x2="762.62" y2="81.05"/><line class="cls-1" x1="159.82" y1="594.91" x2="773.74" y2="90.19"/><line class="cls-1" x1="170.94" y1="604.05" x2="784.85" y2="99.33"/><line class="cls-1" x1="182.05" y1="613.19" x2="795.97" y2="108.47"/><line class="cls-1" x1="193.17" y1="622.33" x2="807.09" y2="117.61"/><line class="cls-1" x1="204.29" y1="631.47" x2="818.2" y2="126.75"/><line class="cls-1" x1="215.4" y1="640.61" x2="829.32" y2="135.89"/><line class="cls-1" x1="226.52" y1="649.75" x2="840.44" y2="145.03"/><line class="cls-1" x1="237.64" y1="658.89" x2="851.55" y2="154.17"/><line class="cls-1" x1="248.75" y1="668.03" x2="862.67" y2="163.31"/><line class="cls-1" x1="259.87" y1="677.17" x2="873.79" y2="172.45"/><line class="cls-1" x1="270.99" y1="686.31" x2="884.9" y2="181.59"/><line class="cls-1" x1="282.1" y1="695.45" x2="896.02" y2="190.73"/><line class="cls-1" x1="293.22" y1="704.59" x2="907.14" y2="199.87"/><line class="cls-1" x1="304.34" y1="713.73" x2="918.25" y2="209.01"/><line class="cls-1" x1="315.45" y1="722.86" x2="929.37" y2="218.14"/><line class="cls-1" x1="326.57" y1="732" x2="940.49" y2="227.28"/><line class="cls-1" x1="337.69" y1="741.14" x2="951.6" y2="236.42"/></g><text class="cls-22" transform="translate(150.19 128.83)">202</text><text class="cls-22" transform="translate(205.64 222.54)">155</text><text class="cls-22" transform="translate(263.2 334.36)">100</text><text class="cls-22" transform="translate(320.06 460.96)">33</text><text class="cls-22" transform="translate(375.07 481.97)">26</text><text class="cls-22" transform="translate(430.22 485.51)">25</text><text class="cls-22" transform="translate(485.37 500.72)">17</text><text class="cls-22" transform="translate(541.72 510.21)">11</text><text class="cls-22" transform="translate(599.95 519.94)">6</text><text class="cls-23" transform="translate(655.15 525.57)">3</text><text class="cls-22" transform="translate(710.26 525.57)">3</text><text class="cls-22" transform="translate(765.41 525.46)">3</text><text class="cls-22" transform="translate(820.56 530.19)">2</text><text class="cls-22" transform="translate(875.72 530.18)">2</text><text class="cls-22" transform="translate(930.48 531.19)">1</text><path class="cls-1" d="M942.77,550.68a8.08,8.08,0,0,0-6.27-3H933a8.08,8.08,0,0,0-6.27,3Z"/><line class="cls-3" x1="162.98" y1="558.34" x2="162.98" y2="641.55"/><line class="cls-4" x1="162.98" y1="558.34" x2="162.98" y2="637.58"/><path class="cls-5" d="M159.29,637.37a3.69,3.69,0,1,0,3.69-3.68A3.69,3.69,0,0,0,159.29,637.37Z"/><path class="cls-3" d="M158.8,637.37a4.18,4.18,0,1,1,4.18,4.18,4.18,4.18,0,0,1-4.18-4.18Zm7.37,0a3.2,3.2,0,1,0-3.19,3.2,3.19,3.19,0,0,0,3.19-3.2Z"/><text class="cls-2" transform="translate(119.49 668.56)">Visual ou <tspan x="-6.43" y="24">baixa visão</tspan></text><text class="cls-2" transform="translate(176 787.27)">Física ou <tspan x="-9.43" y="24">mobilidade </tspan><tspan class="cls-8" x="4.22" y="48">r</tspan><tspan x="10.8" y="48">eduzida</tspan></text><text class="cls-2" transform="translate(237.56 623.48)"><tspan class="cls-24">A</tspan><tspan x="12.94" y="0">uditi</tspan><tspan class="cls-25" x="51.48" y="0">v</tspan><tspan x="61.03" y="0">a </tspan><tspan x="-1.61" y="24">ou baixa </tspan><tspan x="3.03" y="48">audição</tspan></text><text class="cls-2" transform="translate(303.3 732.37)">Altas <tspan x="-25.72" y="24">habilidades</tspan></text><text class="cls-2" transform="translate(354.23 652.45)">Out<tspan class="cls-26" x="31.31" y="0">r</tspan><tspan x="37.69" y="0">as</tspan></text><text class="cls-2" transform="translate(397.08 799.72)">Cogniti<tspan class="cls-25" x="62.92" y="0">v</tspan><tspan x="72.46" y="0">a</tspan></text><text class="cls-2" transform="translate(510.1 799.72)">Aspe<tspan class="cls-8" x="45.18" y="0">r</tspan><tspan x="51.76" y="0">ger</tspan></text><text class="cls-2" transform="translate(554.65 659.49)">Linguagem</text><text class="cls-2" transform="translate(669.95 767.61)">Déficit de <tspan class="cls-27" x="7.67" y="24">A</tspan><tspan x="20.55" y="24">tenção</tspan><tspan x="11.6" y="48">(T</tspan><tspan class="cls-28" x="30.37" y="48">D</tspan><tspan x="43.28" y="48">AH)</tspan></text><text class="cls-2" transform="translate(752.62 646.72)">Não<tspan x="-33.96" y="24">identificada</tspan></text><text class="cls-2" transform="translate(845.29 725.49)">Dislexia</text><text class="cls-2" transform="translate(776.45 815.72)"><tspan class="cls-29">T</tspan><tspan class="cls-26" x="11.2" y="0">r</tspan><tspan x="17.58" y="0">ans</tspan><tspan class="cls-30" x="49.8" y="0">t</tspan><tspan x="56.14" y="0">orno</tspan><tspan x="-15.55" y="24">Desinteg</tspan><tspan class="cls-26" x="62.71" y="24">r</tspan><tspan x="69.09" y="24">ati</tspan><tspan class="cls-25" x="91.36" y="24">v</tspan><tspan x="100.9" y="24">o</tspan><tspan x="-0.94" y="48">da Infância</tspan></text><text class="cls-2" transform="translate(896.94 631.84)"><tspan class="cls-24">P</tspan><tspan x="12.51" y="0">a</tspan><tspan class="cls-26" x="23.39" y="0">r</tspan><tspan x="29.77" y="0">alisia</tspan><tspan x="1.14" y="24">Ce</tspan><tspan class="cls-8" x="24.75" y="24">r</tspan><tspan x="31.33" y="24">eb</tspan><tspan class="cls-26" x="53.15" y="24">r</tspan><tspan x="59.53" y="24">al</tspan></text><text class="cls-2" transform="translate(622.06 615.77)"><tspan class="cls-24">A</tspan><tspan x="12.94" y="0">utismo</tspan></text><text class="cls-2" transform="translate(453.51 668.56)">Multiplas<tspan x="-12.57" y="24">deficiências</tspan></text></g></svg>