<svg xmlns="http://www.w3.org/2000/svg" xmlns:xlink="http://www.w3.org/1999/xlink" viewBox="0 0 1000 833.72"><defs><style>.cls-1{fill:#08b260;}.cls-2,.cls-25,.cls-33{fill:none;}.cls-2,.cls-25{stroke:#ff930b;stroke-miterlimit:10;}.cls-2{stroke-width:0;}.cls-3{clip-path:url(#clip-path);}.cls-4{clip-path:url(#clip-path-2);}.cls-5{clip-path:url(#clip-path-3);}.cls-6{clip-path:url(#clip-path-4);}.cls-7{clip-path:url(#clip-path-5);}.cls-8{clip-path:url(#clip-path-6);}.cls-9{clip-path:url(#clip-path-7);}.cls-10{clip-path:url(#clip-path-8);}.cls-11{clip-path:url(#clip-path-9);}.cls-12{clip-path:url(#clip-path-10);}.cls-13{clip-path:url(#clip-path-11);}.cls-14{clip-path:url(#clip-path-12);}.cls-15{clip-path:url(#clip-path-13);}.cls-16{clip-path:url(#clip-path-14);}.cls-17{clip-path:url(#clip-path-15);}.cls-18{clip-path:url(#clip-path-16);}.cls-19{clip-path:url(#clip-path-17);}.cls-20{clip-path:url(#clip-path-18);}.cls-21{clip-path:url(#clip-path-19);}.cls-22,.cls-35{font-size:20px;}.cls-22,.cls-27,.cls-35{fill:#230b05;}.cls-22{font-family:Roboto-Regular, Roboto;}.cls-23{letter-spacing:-0.01em;}.cls-24{fill:#ff930b;}.cls-26{fill:#fff;}.cls-27{font-size:15px;}.cls-27,.cls-35{font-family:Roboto-Medium, Roboto;font-weight:500;}.cls-28{letter-spacing:-0.01em;}.cls-29{letter-spacing:-0.02em;}.cls-30{letter-spacing:-0.01em;}.cls-31{letter-spacing:-0.02em;}.cls-32{letter-spacing:-0.01em;}.cls-33{stroke:#ff4b0b;stroke-linecap:round;stroke-linejoin:round;stroke-width:3px;}.cls-34{fill:#ff4b0b;}.cls-36{clip-path:url(#clip-path-20);}.cls-37{clip-path:url(#clip-path-21);}.cls-38{clip-path:url(#clip-path-22);}.cls-39{clip-path:url(#clip-path-23);}.cls-40{clip-path:url(#clip-path-24);}.cls-41{clip-path:url(#clip-path-25);}</style><clipPath id="clip-path"><path class="cls-1" d="M779.48,489.71h0a8.12,8.12,0,0,1,8.12,8.12v47.24a0,0,0,0,1,0,0H771.36a0,0,0,0,1,0,0V497.82A8.12,8.12,0,0,1,779.48,489.71Z"/></clipPath><clipPath id="clip-path-2"><path class="cls-1" d="M824.82,526h0a8.12,8.12,0,0,1,8.12,8.12v11a0,0,0,0,1,0,0H816.7a0,0,0,0,1,0,0v-11A8.12,8.12,0,0,1,824.82,526Z"/></clipPath><clipPath id="clip-path-3"><path class="cls-1" d="M870.16,532.21h0a8.12,8.12,0,0,1,8.12,8.12v4.73a0,0,0,0,1,0,0H862a0,0,0,0,1,0,0v-4.73a8.12,8.12,0,0,1,8.12-8.12Z"/></clipPath><clipPath id="clip-path-4"><path class="cls-1" d="M923.15,545.06H906.92l.47-47.24a8.11,8.11,0,0,1,8.12-8.11h0a8.12,8.12,0,0,1,8.12,8.11Z"/></clipPath><clipPath id="clip-path-5"><path class="cls-1" d="M734.13,527.41h0a8.12,8.12,0,0,1,8.12,8.12v9.18a0,0,0,0,1,0,0H726a0,0,0,0,1,0,0v-9.18A8.12,8.12,0,0,1,734.13,527.41Z"/></clipPath><clipPath id="clip-path-6"><path class="cls-1" d="M688.79,532.21h0a8.12,8.12,0,0,1,8.12,8.12v4.73a0,0,0,0,1,0,0H680.67a0,0,0,0,1,0,0v-4.73a8.12,8.12,0,0,1,8.12-8.12Z"/></clipPath><clipPath id="clip-path-7"><path class="cls-1" d="M643.44,529.41h0a8.12,8.12,0,0,1,8.12,8.12v7.18a0,0,0,0,1,0,0H635.33a0,0,0,0,1,0,0v-7.18a8.12,8.12,0,0,1,8.12-8.12Z"/></clipPath><clipPath id="clip-path-8"><path class="cls-1" d="M598.1,298.69h0a8.12,8.12,0,0,1,8.12,8.12V545.06a0,0,0,0,1,0,0H590a0,0,0,0,1,0,0V306.81a8.12,8.12,0,0,1,8.12-8.12Z"/></clipPath><clipPath id="clip-path-9"><path class="cls-1" d="M552.76,524.82h0a8.12,8.12,0,0,1,8.12,8.12v12.18a0,0,0,0,1,0,0H544.64a0,0,0,0,1,0,0V532.93A8.12,8.12,0,0,1,552.76,524.82Z"/></clipPath><clipPath id="clip-path-10"><path class="cls-1" d="M507.41,518.06h0a8.12,8.12,0,0,1,8.12,8.12v18.88a0,0,0,0,1,0,0H499.29a0,0,0,0,1,0,0V526.18A8.12,8.12,0,0,1,507.41,518.06Z"/></clipPath><clipPath id="clip-path-11"><path class="cls-1" d="M462.07,519.36h0a8.12,8.12,0,0,1,8.12,8.12v17.58a0,0,0,0,1,0,0H454a0,0,0,0,1,0,0V527.48a8.12,8.12,0,0,1,8.12-8.12Z"/></clipPath><clipPath id="clip-path-12"><path class="cls-1" d="M416.73,529.36h0a8.12,8.12,0,0,1,8.12,8.12v7.58a0,0,0,0,1,0,0H408.61a0,0,0,0,1,0,0v-7.58A8.12,8.12,0,0,1,416.73,529.36Z"/></clipPath><clipPath id="clip-path-13"><path class="cls-1" d="M371.38,522.82h0a8.12,8.12,0,0,1,8.12,8.12v14.13a0,0,0,0,1,0,0H363.26a0,0,0,0,1,0,0V530.93A8.12,8.12,0,0,1,371.38,522.82Z"/></clipPath><clipPath id="clip-path-14"><path class="cls-1" d="M334.15,545.06H317.92v-2.24a8.11,8.11,0,0,1,8.12-8.11h0a8.12,8.12,0,0,1,8.12,8.11Z"/></clipPath><clipPath id="clip-path-15"><path class="cls-1" d="M280.69,461h0a8.12,8.12,0,0,1,8.12,8.12v76a0,0,0,0,1,0,0H272.57a0,0,0,0,1,0,0v-76A8.12,8.12,0,0,1,280.69,461Z"/></clipPath><clipPath id="clip-path-16"><path class="cls-1" d="M235.35,510.57h0a8.12,8.12,0,0,1,8.12,8.12v26.37a0,0,0,0,1,0,0H227.23a0,0,0,0,1,0,0V518.69A8.12,8.12,0,0,1,235.35,510.57Z"/></clipPath><clipPath id="clip-path-17"><path class="cls-1" d="M198.12,545.06H181.89l1-378.72a8.11,8.11,0,0,1,8.12-8.12h0a8.11,8.11,0,0,1,8.11,8.12Z"/></clipPath><clipPath id="clip-path-18"><path class="cls-1" d="M144.66,525.82h0a8.12,8.12,0,0,1,8.12,8.12v11.13a0,0,0,0,1,0,0H136.54a0,0,0,0,1,0,0V533.93a8.12,8.12,0,0,1,8.12-8.12Z"/></clipPath><clipPath id="clip-path-19"><path class="cls-1" d="M99.32,476.08h0a8.12,8.12,0,0,1,8.12,8.12v60.86a0,0,0,0,1,0,0H91.2a0,0,0,0,1,0,0V484.2a8.12,8.12,0,0,1,8.12-8.12Z"/></clipPath><clipPath id="clip-path-20"><path class="cls-2" d="M-386.11,359.92h12.61a0,0,0,0,1,0,0V745.76a6.24,6.24,0,0,1-6.24,6.24h-.13a6.24,6.24,0,0,1-6.24-6.24V359.92a0,0,0,0,1,0,0Z"/></clipPath><clipPath id="clip-path-21"><path class="cls-2" d="M-328.43,359.92h12.61a0,0,0,0,1,0,0v68.84a6.24,6.24,0,0,1-6.24,6.24h-.13a6.24,6.24,0,0,1-6.24-6.24V359.92A0,0,0,0,1-328.43,359.92Z"/></clipPath><clipPath id="clip-path-22"><path class="cls-2" d="M-213.07,359.92h12.61a0,0,0,0,1,0,0V691.76a6.24,6.24,0,0,1-6.24,6.24h-.13a6.24,6.24,0,0,1-6.24-6.24V359.92a0,0,0,0,1,0,0Z"/></clipPath><clipPath id="clip-path-23"><path class="cls-2" d="M-155.4,359.92h12.61a0,0,0,0,1,0,0V501.76A6.24,6.24,0,0,1-149,508h-.13a6.24,6.24,0,0,1-6.24-6.24V359.92A0,0,0,0,1-155.4,359.92Z"/></clipPath><clipPath id="clip-path-24"><path class="cls-2" d="M-97.72,358.92h12.61a0,0,0,0,1,0,0V766.76A6.24,6.24,0,0,1-91.35,773h-.13a6.24,6.24,0,0,1-6.24-6.24V358.92A0,0,0,0,1-97.72,358.92Z"/></clipPath><clipPath id="clip-path-25"><path class="cls-2" d="M-270.75,359.92h12.61a0,0,0,0,1,0,0V543.76a6.24,6.24,0,0,1-6.24,6.24h-.13a6.24,6.24,0,0,1-6.24-6.24V359.92a0,0,0,0,1,0,0Z"/></clipPath></defs><title>Imagem_013</title><g id="Layer_3" data-name="Layer 3"><path class="cls-1" d="M779.48,489.71h0a8.12,8.12,0,0,1,8.12,8.12v47.24a0,0,0,0,1,0,0H771.36a0,0,0,0,1,0,0V497.82A8.12,8.12,0,0,1,779.48,489.71Z"/><g class="cls-3"><line class="cls-1" x1="479.34" y1="751.95" x2="984.06" y2="247.23"/><line class="cls-1" x1="488.48" y1="761.09" x2="993.2" y2="256.37"/><line class="cls-1" x1="497.62" y1="770.23" x2="1002.34" y2="265.51"/><line class="cls-1" x1="506.76" y1="779.37" x2="1011.48" y2="274.65"/><line class="cls-1" x1="515.9" y1="788.51" x2="1020.62" y2="283.79"/><line class="cls-1" x1="525.04" y1="797.65" x2="1029.76" y2="292.93"/><line class="cls-1" x1="534.18" y1="806.79" x2="1038.89" y2="302.07"/><line class="cls-1" x1="543.31" y1="815.93" x2="1048.03" y2="311.21"/><line class="cls-1" x1="552.45" y1="825.06" x2="1057.17" y2="320.35"/><line class="cls-1" x1="561.59" y1="834.2" x2="1066.31" y2="329.48"/><line class="cls-1" x1="570.73" y1="843.34" x2="1075.45" y2="338.62"/><line class="cls-1" x1="579.87" y1="852.48" x2="1084.59" y2="347.76"/><line class="cls-1" x1="589.01" y1="861.62" x2="1093.73" y2="356.9"/><line class="cls-1" x1="598.15" y1="870.76" x2="1102.87" y2="366.04"/><line class="cls-1" x1="607.29" y1="879.9" x2="1112.01" y2="375.18"/><line class="cls-1" x1="616.43" y1="889.04" x2="1121.15" y2="384.32"/><line class="cls-1" x1="625.57" y1="898.18" x2="1130.29" y2="393.46"/><line class="cls-1" x1="634.71" y1="907.32" x2="1139.43" y2="402.6"/><line class="cls-1" x1="643.85" y1="916.46" x2="1148.57" y2="411.74"/><line class="cls-1" x1="652.99" y1="925.6" x2="1157.71" y2="420.88"/><line class="cls-1" x1="662.13" y1="934.74" x2="1166.85" y2="430.02"/><line class="cls-1" x1="671.27" y1="943.88" x2="1175.99" y2="439.16"/><line class="cls-1" x1="680.4" y1="953.02" x2="1185.12" y2="448.3"/><line class="cls-1" x1="689.54" y1="962.15" x2="1194.26" y2="457.44"/><line class="cls-1" x1="698.68" y1="971.29" x2="1203.4" y2="466.57"/><line class="cls-1" x1="707.82" y1="980.43" x2="1212.54" y2="475.71"/><line class="cls-1" x1="716.96" y1="989.57" x2="1221.68" y2="484.85"/><line class="cls-1" x1="726.1" y1="998.71" x2="1230.82" y2="493.99"/><line class="cls-1" x1="735.24" y1="1007.85" x2="1239.96" y2="503.13"/><line class="cls-1" x1="744.38" y1="1016.99" x2="1249.1" y2="512.27"/><line class="cls-1" x1="753.52" y1="1026.13" x2="1258.24" y2="521.41"/><line class="cls-1" x1="762.66" y1="1035.27" x2="1267.38" y2="530.55"/><line class="cls-1" x1="771.8" y1="1044.41" x2="1276.52" y2="539.69"/><line class="cls-1" x1="780.94" y1="1053.55" x2="1285.66" y2="548.83"/><line class="cls-1" x1="790.08" y1="1062.69" x2="1294.8" y2="557.97"/><line class="cls-1" x1="799.22" y1="1071.83" x2="1303.94" y2="567.11"/><line class="cls-1" x1="808.36" y1="1080.97" x2="1313.08" y2="576.25"/><line class="cls-1" x1="817.5" y1="1090.11" x2="1322.21" y2="585.39"/><line class="cls-1" x1="826.63" y1="1099.25" x2="1331.35" y2="594.53"/><line class="cls-1" x1="835.77" y1="1108.38" x2="1340.49" y2="603.66"/><line class="cls-1" x1="844.91" y1="1117.52" x2="1349.63" y2="612.8"/><line class="cls-1" x1="854.05" y1="1126.66" x2="1358.77" y2="621.94"/><line class="cls-1" x1="863.19" y1="1135.8" x2="1367.91" y2="631.08"/><line class="cls-1" x1="872.33" y1="1144.94" x2="1377.05" y2="640.22"/><line class="cls-1" x1="881.47" y1="1154.08" x2="1386.19" y2="649.36"/><line class="cls-1" x1="890.61" y1="1163.22" x2="1395.33" y2="658.5"/><line class="cls-1" x1="899.75" y1="1172.36" x2="1404.47" y2="667.64"/></g><path class="cls-1" d="M824.82,526h0a8.12,8.12,0,0,1,8.12,8.12v11a0,0,0,0,1,0,0H816.7a0,0,0,0,1,0,0v-11A8.12,8.12,0,0,1,824.82,526Z"/><g class="cls-4"><line class="cls-1" x1="552.45" y1="720.18" x2="1057.17" y2="215.46"/><line class="cls-1" x1="561.59" y1="729.32" x2="1066.31" y2="224.6"/><line class="cls-1" x1="570.73" y1="738.46" x2="1075.45" y2="233.74"/><line class="cls-1" x1="579.87" y1="747.6" x2="1084.59" y2="242.88"/><line class="cls-1" x1="589.01" y1="756.74" x2="1093.73" y2="252.02"/><line class="cls-1" x1="598.15" y1="765.88" x2="1102.87" y2="261.16"/><line class="cls-1" x1="607.29" y1="775.02" x2="1112.01" y2="270.3"/><line class="cls-1" x1="616.43" y1="784.15" x2="1121.15" y2="279.44"/><line class="cls-1" x1="625.57" y1="793.29" x2="1130.29" y2="288.57"/><line class="cls-1" x1="634.71" y1="802.43" x2="1139.43" y2="297.71"/><line class="cls-1" x1="643.85" y1="811.57" x2="1148.57" y2="306.85"/><line class="cls-1" x1="652.99" y1="820.71" x2="1157.71" y2="315.99"/><line class="cls-1" x1="662.13" y1="829.85" x2="1166.85" y2="325.13"/><line class="cls-1" x1="671.27" y1="838.99" x2="1175.99" y2="334.27"/><line class="cls-1" x1="680.4" y1="848.13" x2="1185.12" y2="343.41"/><line class="cls-1" x1="689.54" y1="857.27" x2="1194.26" y2="352.55"/><line class="cls-1" x1="698.68" y1="866.41" x2="1203.4" y2="361.69"/><line class="cls-1" x1="707.82" y1="875.55" x2="1212.54" y2="370.83"/><line class="cls-1" x1="716.96" y1="884.69" x2="1221.68" y2="379.97"/><line class="cls-1" x1="726.1" y1="893.83" x2="1230.82" y2="389.11"/><line class="cls-1" x1="735.24" y1="902.97" x2="1239.96" y2="398.25"/><line class="cls-1" x1="744.38" y1="912.11" x2="1249.1" y2="407.39"/><line class="cls-1" x1="753.52" y1="921.25" x2="1258.24" y2="416.53"/><line class="cls-1" x1="762.66" y1="930.38" x2="1267.38" y2="425.67"/><line class="cls-1" x1="771.8" y1="939.52" x2="1276.52" y2="434.8"/><line class="cls-1" x1="780.94" y1="948.66" x2="1285.66" y2="443.94"/><line class="cls-1" x1="790.08" y1="957.8" x2="1294.8" y2="453.08"/><line class="cls-1" x1="799.22" y1="966.94" x2="1303.94" y2="462.22"/><line class="cls-1" x1="808.36" y1="976.08" x2="1313.08" y2="471.36"/><line class="cls-1" x1="817.5" y1="985.22" x2="1322.21" y2="480.5"/><line class="cls-1" x1="826.63" y1="994.36" x2="1331.35" y2="489.64"/><line class="cls-1" x1="835.77" y1="1003.5" x2="1340.49" y2="498.78"/><line class="cls-1" x1="844.91" y1="1012.64" x2="1349.63" y2="507.92"/><line class="cls-1" x1="854.05" y1="1021.78" x2="1358.77" y2="517.06"/><line class="cls-1" x1="863.19" y1="1030.92" x2="1367.91" y2="526.2"/><line class="cls-1" x1="872.33" y1="1040.06" x2="1377.05" y2="535.34"/><line class="cls-1" x1="881.47" y1="1049.2" x2="1386.19" y2="544.48"/><line class="cls-1" x1="890.61" y1="1058.34" x2="1395.33" y2="553.62"/><line class="cls-1" x1="899.75" y1="1067.47" x2="1404.47" y2="562.76"/><line class="cls-1" x1="908.89" y1="1076.61" x2="1413.61" y2="571.89"/><line class="cls-1" x1="918.03" y1="1085.75" x2="1422.75" y2="581.03"/><line class="cls-1" x1="927.17" y1="1094.89" x2="1431.89" y2="590.17"/><line class="cls-1" x1="936.31" y1="1104.03" x2="1441.03" y2="599.31"/><line class="cls-1" x1="945.45" y1="1113.17" x2="1450.17" y2="608.45"/><line class="cls-1" x1="954.59" y1="1122.31" x2="1459.31" y2="617.59"/><line class="cls-1" x1="963.73" y1="1131.45" x2="1468.44" y2="626.73"/><line class="cls-1" x1="972.86" y1="1140.59" x2="1477.58" y2="635.87"/></g><path class="cls-1" d="M870.16,532.21h0a8.12,8.12,0,0,1,8.12,8.12v4.73a0,0,0,0,1,0,0H862a0,0,0,0,1,0,0v-4.73a8.12,8.12,0,0,1,8.12-8.12Z"/><g class="cls-5"><line class="cls-1" x1="488.48" y1="788.51" x2="993.2" y2="283.79"/><line class="cls-1" x1="497.62" y1="797.65" x2="1002.34" y2="292.93"/><line class="cls-1" x1="506.76" y1="806.79" x2="1011.48" y2="302.07"/><line class="cls-1" x1="515.9" y1="815.93" x2="1020.62" y2="311.21"/><line class="cls-1" x1="525.04" y1="825.06" x2="1029.76" y2="320.35"/><line class="cls-1" x1="534.18" y1="834.2" x2="1038.89" y2="329.48"/><line class="cls-1" x1="543.31" y1="843.34" x2="1048.03" y2="338.62"/><line class="cls-1" x1="552.45" y1="852.48" x2="1057.17" y2="347.76"/><line class="cls-1" x1="561.59" y1="861.62" x2="1066.31" y2="356.9"/><line class="cls-1" x1="570.73" y1="870.76" x2="1075.45" y2="366.04"/><line class="cls-1" x1="579.87" y1="879.9" x2="1084.59" y2="375.18"/><line class="cls-1" x1="589.01" y1="889.04" x2="1093.73" y2="384.32"/><line class="cls-1" x1="598.15" y1="898.18" x2="1102.87" y2="393.46"/><line class="cls-1" x1="607.29" y1="907.32" x2="1112.01" y2="402.6"/><line class="cls-1" x1="616.43" y1="916.46" x2="1121.15" y2="411.74"/><line class="cls-1" x1="625.57" y1="925.6" x2="1130.29" y2="420.88"/><line class="cls-1" x1="634.71" y1="934.74" x2="1139.43" y2="430.02"/><line class="cls-1" x1="643.85" y1="943.88" x2="1148.57" y2="439.16"/><line class="cls-1" x1="652.99" y1="953.02" x2="1157.71" y2="448.3"/><line class="cls-1" x1="662.13" y1="962.15" x2="1166.85" y2="457.44"/><line class="cls-1" x1="671.27" y1="971.29" x2="1175.99" y2="466.57"/><line class="cls-1" x1="680.4" y1="980.43" x2="1185.12" y2="475.71"/><line class="cls-1" x1="689.54" y1="989.57" x2="1194.26" y2="484.85"/><line class="cls-1" x1="698.68" y1="998.71" x2="1203.4" y2="493.99"/><line class="cls-1" x1="707.82" y1="1007.85" x2="1212.54" y2="503.13"/><line class="cls-1" x1="716.96" y1="1016.99" x2="1221.68" y2="512.27"/><line class="cls-1" x1="726.1" y1="1026.13" x2="1230.82" y2="521.41"/><line class="cls-1" x1="735.24" y1="1035.27" x2="1239.96" y2="530.55"/><line class="cls-1" x1="744.38" y1="1044.41" x2="1249.1" y2="539.69"/><line class="cls-1" x1="753.52" y1="1053.55" x2="1258.24" y2="548.83"/><line class="cls-1" x1="762.66" y1="1062.69" x2="1267.38" y2="557.97"/><line class="cls-1" x1="771.8" y1="1071.83" x2="1276.52" y2="567.11"/><line class="cls-1" x1="780.94" y1="1080.97" x2="1285.66" y2="576.25"/><line class="cls-1" x1="790.08" y1="1090.11" x2="1294.8" y2="585.39"/><line class="cls-1" x1="799.22" y1="1099.25" x2="1303.94" y2="594.53"/><line class="cls-1" x1="808.36" y1="1108.38" x2="1313.08" y2="603.67"/><line class="cls-1" x1="817.5" y1="1117.52" x2="1322.21" y2="612.8"/><line class="cls-1" x1="826.63" y1="1126.66" x2="1331.35" y2="621.94"/><line class="cls-1" x1="835.77" y1="1135.8" x2="1340.49" y2="631.08"/><line class="cls-1" x1="844.91" y1="1144.94" x2="1349.63" y2="640.22"/><line class="cls-1" x1="854.05" y1="1154.08" x2="1358.77" y2="649.36"/><line class="cls-1" x1="863.19" y1="1163.22" x2="1367.91" y2="658.5"/><line class="cls-1" x1="872.33" y1="1172.36" x2="1377.05" y2="667.64"/><line class="cls-1" x1="881.47" y1="1181.5" x2="1386.19" y2="676.78"/><line class="cls-1" x1="890.61" y1="1190.64" x2="1395.33" y2="685.92"/><line class="cls-1" x1="899.75" y1="1199.78" x2="1404.47" y2="695.06"/><line class="cls-1" x1="908.89" y1="1208.92" x2="1413.61" y2="704.2"/></g><path class="cls-1" d="M923.15,545.06H906.92l.47-47.24a8.11,8.11,0,0,1,8.12-8.11h0a8.12,8.12,0,0,1,8.12,8.11Z"/><g class="cls-6"><line class="cls-1" x1="457.08" y1="880.46" x2="961.8" y2="375.74"/><line class="cls-1" x1="466.22" y1="889.59" x2="970.94" y2="384.88"/><line class="cls-1" x1="475.36" y1="898.73" x2="980.08" y2="394.01"/><line class="cls-1" x1="484.5" y1="907.87" x2="989.22" y2="403.15"/><line class="cls-1" x1="493.64" y1="917.01" x2="998.36" y2="412.29"/><line class="cls-1" x1="502.78" y1="926.15" x2="1007.5" y2="421.43"/><line class="cls-1" x1="511.92" y1="935.29" x2="1016.64" y2="430.57"/><line class="cls-1" x1="521.06" y1="944.43" x2="1025.78" y2="439.71"/><line class="cls-1" x1="530.2" y1="953.57" x2="1034.92" y2="448.85"/><line class="cls-1" x1="539.34" y1="962.71" x2="1044.06" y2="457.99"/><line class="cls-1" x1="548.48" y1="971.85" x2="1053.2" y2="467.13"/><line class="cls-1" x1="557.62" y1="980.99" x2="1062.34" y2="476.27"/><line class="cls-1" x1="566.75" y1="990.13" x2="1071.47" y2="485.41"/><line class="cls-1" x1="575.89" y1="999.27" x2="1080.61" y2="494.55"/><line class="cls-1" x1="585.03" y1="1008.41" x2="1089.75" y2="503.69"/><line class="cls-1" x1="594.17" y1="1017.55" x2="1098.89" y2="512.83"/><line class="cls-1" x1="603.31" y1="1026.69" x2="1108.03" y2="521.97"/><line class="cls-1" x1="612.45" y1="1035.82" x2="1117.17" y2="531.1"/><line class="cls-1" x1="621.59" y1="1044.96" x2="1126.31" y2="540.24"/><line class="cls-1" x1="630.73" y1="1054.1" x2="1135.45" y2="549.38"/><line class="cls-1" x1="639.87" y1="1063.24" x2="1144.59" y2="558.52"/><line class="cls-1" x1="649.01" y1="1072.38" x2="1153.73" y2="567.66"/><line class="cls-1" x1="658.15" y1="1081.52" x2="1162.87" y2="576.8"/><line class="cls-1" x1="667.29" y1="1090.66" x2="1172.01" y2="585.94"/><line class="cls-1" x1="676.43" y1="1099.8" x2="1181.15" y2="595.08"/><line class="cls-1" x1="685.57" y1="1108.94" x2="1190.29" y2="604.22"/><line class="cls-1" x1="694.71" y1="1118.08" x2="1199.43" y2="613.36"/><line class="cls-1" x1="703.85" y1="1127.22" x2="1208.57" y2="622.5"/><line class="cls-1" x1="712.98" y1="1136.36" x2="1217.7" y2="631.64"/><line class="cls-1" x1="722.12" y1="1145.5" x2="1226.84" y2="640.78"/><line class="cls-1" x1="731.26" y1="1154.64" x2="1235.98" y2="649.92"/><line class="cls-1" x1="740.4" y1="1163.78" x2="1245.12" y2="659.06"/><line class="cls-1" x1="749.54" y1="1172.91" x2="1254.26" y2="668.2"/><line class="cls-1" x1="758.68" y1="1182.05" x2="1263.4" y2="677.33"/><line class="cls-1" x1="767.82" y1="1191.19" x2="1272.54" y2="686.47"/><line class="cls-1" x1="776.96" y1="1200.33" x2="1281.68" y2="695.61"/><line class="cls-1" x1="786.1" y1="1209.47" x2="1290.82" y2="704.75"/><line class="cls-1" x1="795.24" y1="1218.61" x2="1299.96" y2="713.89"/><line class="cls-1" x1="804.38" y1="1227.75" x2="1309.1" y2="723.03"/><line class="cls-1" x1="813.52" y1="1236.89" x2="1318.24" y2="732.17"/><line class="cls-1" x1="822.66" y1="1246.03" x2="1327.38" y2="741.31"/><line class="cls-1" x1="831.8" y1="1255.17" x2="1336.52" y2="750.45"/><line class="cls-1" x1="840.94" y1="1264.31" x2="1345.66" y2="759.59"/><line class="cls-1" x1="850.08" y1="1273.45" x2="1354.79" y2="768.73"/><line class="cls-1" x1="859.21" y1="1282.59" x2="1363.93" y2="777.87"/><line class="cls-1" x1="868.35" y1="1291.73" x2="1373.07" y2="787.01"/><line class="cls-1" x1="877.49" y1="1300.87" x2="1382.21" y2="796.15"/></g><path class="cls-1" d="M734.13,527.41h0a8.12,8.12,0,0,1,8.12,8.12v9.18a0,0,0,0,1,0,0H726a0,0,0,0,1,0,0v-9.18A8.12,8.12,0,0,1,734.13,527.41Z"/><g class="cls-7"><line class="cls-1" x1="457.08" y1="767.65" x2="961.8" y2="262.93"/><line class="cls-1" x1="466.22" y1="776.79" x2="970.94" y2="272.07"/><line class="cls-1" x1="475.36" y1="785.93" x2="980.08" y2="281.21"/><line class="cls-1" x1="484.5" y1="795.06" x2="989.22" y2="290.34"/><line class="cls-1" x1="493.64" y1="804.2" x2="998.36" y2="299.48"/><line class="cls-1" x1="502.78" y1="813.34" x2="1007.5" y2="308.62"/><line class="cls-1" x1="511.92" y1="822.48" x2="1016.64" y2="317.76"/><line class="cls-1" x1="521.06" y1="831.62" x2="1025.78" y2="326.9"/><line class="cls-1" x1="530.2" y1="840.76" x2="1034.92" y2="336.04"/><line class="cls-1" x1="539.34" y1="849.9" x2="1044.06" y2="345.18"/><line class="cls-1" x1="548.48" y1="859.04" x2="1053.2" y2="354.32"/><line class="cls-1" x1="557.62" y1="868.18" x2="1062.34" y2="363.46"/><line class="cls-1" x1="566.75" y1="877.32" x2="1071.47" y2="372.6"/><line class="cls-1" x1="575.89" y1="886.46" x2="1080.61" y2="381.74"/><line class="cls-1" x1="585.03" y1="895.6" x2="1089.75" y2="390.88"/><line class="cls-1" x1="594.17" y1="904.74" x2="1098.89" y2="400.02"/><line class="cls-1" x1="603.31" y1="913.88" x2="1108.03" y2="409.16"/><line class="cls-1" x1="612.45" y1="923.02" x2="1117.17" y2="418.3"/><line class="cls-1" x1="621.59" y1="932.15" x2="1126.31" y2="427.44"/><line class="cls-1" x1="630.73" y1="941.29" x2="1135.45" y2="436.57"/><line class="cls-1" x1="639.87" y1="950.43" x2="1144.59" y2="445.71"/><line class="cls-1" x1="649.01" y1="959.57" x2="1153.73" y2="454.85"/><line class="cls-1" x1="658.15" y1="968.71" x2="1162.87" y2="463.99"/><line class="cls-1" x1="667.29" y1="977.85" x2="1172.01" y2="473.13"/><line class="cls-1" x1="676.43" y1="986.99" x2="1181.15" y2="482.27"/><line class="cls-1" x1="685.57" y1="996.13" x2="1190.29" y2="491.41"/><line class="cls-1" x1="694.71" y1="1005.27" x2="1199.43" y2="500.55"/><line class="cls-1" x1="703.85" y1="1014.41" x2="1208.57" y2="509.69"/><line class="cls-1" x1="712.98" y1="1023.55" x2="1217.7" y2="518.83"/><line class="cls-1" x1="722.12" y1="1032.69" x2="1226.84" y2="527.97"/><line class="cls-1" x1="731.26" y1="1041.83" x2="1235.98" y2="537.11"/><line class="cls-1" x1="740.4" y1="1050.97" x2="1245.12" y2="546.25"/><line class="cls-1" x1="749.54" y1="1060.11" x2="1254.26" y2="555.39"/><line class="cls-1" x1="758.68" y1="1069.24" x2="1263.4" y2="564.53"/><line class="cls-1" x1="767.82" y1="1078.38" x2="1272.54" y2="573.66"/><line class="cls-1" x1="776.96" y1="1087.52" x2="1281.68" y2="582.8"/><line class="cls-1" x1="786.1" y1="1096.66" x2="1290.82" y2="591.94"/><line class="cls-1" x1="795.24" y1="1105.8" x2="1299.96" y2="601.08"/><line class="cls-1" x1="804.38" y1="1114.94" x2="1309.1" y2="610.22"/><line class="cls-1" x1="813.52" y1="1124.08" x2="1318.24" y2="619.36"/><line class="cls-1" x1="822.66" y1="1133.22" x2="1327.38" y2="628.5"/><line class="cls-1" x1="831.8" y1="1142.36" x2="1336.52" y2="637.64"/><line class="cls-1" x1="840.94" y1="1151.5" x2="1345.66" y2="646.78"/><line class="cls-1" x1="850.08" y1="1160.64" x2="1354.79" y2="655.92"/><line class="cls-1" x1="859.21" y1="1169.78" x2="1363.93" y2="665.06"/><line class="cls-1" x1="868.35" y1="1178.92" x2="1373.07" y2="674.2"/><line class="cls-1" x1="877.49" y1="1188.06" x2="1382.21" y2="683.34"/></g><path class="cls-1" d="M688.79,532.21h0a8.12,8.12,0,0,1,8.12,8.12v4.73a0,0,0,0,1,0,0H680.67a0,0,0,0,1,0,0v-4.73a8.12,8.12,0,0,1,8.12-8.12Z"/><g class="cls-8"><line class="cls-1" x1="433.64" y1="761.09" x2="938.36" y2="256.37"/><line class="cls-1" x1="442.78" y1="770.23" x2="947.5" y2="265.51"/><line class="cls-1" x1="451.92" y1="779.37" x2="956.64" y2="274.65"/><line class="cls-1" x1="461.06" y1="788.51" x2="965.78" y2="283.79"/><line class="cls-1" x1="470.2" y1="797.65" x2="974.92" y2="292.93"/><line class="cls-1" x1="479.34" y1="806.79" x2="984.06" y2="302.07"/><line class="cls-1" x1="488.48" y1="815.93" x2="993.2" y2="311.21"/><line class="cls-1" x1="497.62" y1="825.06" x2="1002.34" y2="320.35"/><line class="cls-1" x1="506.76" y1="834.2" x2="1011.48" y2="329.48"/><line class="cls-1" x1="515.9" y1="843.34" x2="1020.62" y2="338.62"/><line class="cls-1" x1="525.04" y1="852.48" x2="1029.76" y2="347.76"/><line class="cls-1" x1="534.18" y1="861.62" x2="1038.89" y2="356.9"/><line class="cls-1" x1="543.31" y1="870.76" x2="1048.03" y2="366.04"/><line class="cls-1" x1="552.45" y1="879.9" x2="1057.17" y2="375.18"/><line class="cls-1" x1="561.59" y1="889.04" x2="1066.31" y2="384.32"/><line class="cls-1" x1="570.73" y1="898.18" x2="1075.45" y2="393.46"/><line class="cls-1" x1="579.87" y1="907.32" x2="1084.59" y2="402.6"/><line class="cls-1" x1="589.01" y1="916.46" x2="1093.73" y2="411.74"/><line class="cls-1" x1="598.15" y1="925.6" x2="1102.87" y2="420.88"/><line class="cls-1" x1="607.29" y1="934.74" x2="1112.01" y2="430.02"/><line class="cls-1" x1="616.43" y1="943.88" x2="1121.15" y2="439.16"/><line class="cls-1" x1="625.57" y1="953.02" x2="1130.29" y2="448.3"/><line class="cls-1" x1="634.71" y1="962.15" x2="1139.43" y2="457.44"/><line class="cls-1" x1="643.85" y1="971.29" x2="1148.57" y2="466.57"/><line class="cls-1" x1="652.99" y1="980.43" x2="1157.71" y2="475.71"/><line class="cls-1" x1="662.13" y1="989.57" x2="1166.85" y2="484.85"/><line class="cls-1" x1="671.27" y1="998.71" x2="1175.99" y2="493.99"/><line class="cls-1" x1="680.4" y1="1007.85" x2="1185.12" y2="503.13"/><line class="cls-1" x1="689.54" y1="1016.99" x2="1194.26" y2="512.27"/><line class="cls-1" x1="698.68" y1="1026.13" x2="1203.4" y2="521.41"/><line class="cls-1" x1="707.82" y1="1035.27" x2="1212.54" y2="530.55"/><line class="cls-1" x1="716.96" y1="1044.41" x2="1221.68" y2="539.69"/><line class="cls-1" x1="726.1" y1="1053.55" x2="1230.82" y2="548.83"/><line class="cls-1" x1="735.24" y1="1062.69" x2="1239.96" y2="557.97"/><line class="cls-1" x1="744.38" y1="1071.83" x2="1249.1" y2="567.11"/><line class="cls-1" x1="753.52" y1="1080.97" x2="1258.24" y2="576.25"/><line class="cls-1" x1="762.66" y1="1090.11" x2="1267.38" y2="585.39"/><line class="cls-1" x1="771.8" y1="1099.25" x2="1276.52" y2="594.53"/><line class="cls-1" x1="780.94" y1="1108.38" x2="1285.66" y2="603.66"/><line class="cls-1" x1="790.08" y1="1117.52" x2="1294.8" y2="612.8"/><line class="cls-1" x1="799.22" y1="1126.66" x2="1303.94" y2="621.94"/><line class="cls-1" x1="808.36" y1="1135.8" x2="1313.08" y2="631.08"/><line class="cls-1" x1="817.5" y1="1144.94" x2="1322.21" y2="640.22"/><line class="cls-1" x1="826.63" y1="1154.08" x2="1331.35" y2="649.36"/><line class="cls-1" x1="835.77" y1="1163.22" x2="1340.49" y2="658.5"/><line class="cls-1" x1="844.91" y1="1172.36" x2="1349.63" y2="667.64"/><line class="cls-1" x1="854.05" y1="1181.5" x2="1358.77" y2="676.78"/></g><path class="cls-1" d="M643.44,529.41h0a8.12,8.12,0,0,1,8.12,8.12v7.18a0,0,0,0,1,0,0H635.33a0,0,0,0,1,0,0v-7.18a8.12,8.12,0,0,1,8.12-8.12Z"/><g class="cls-9"><line class="cls-1" x1="394.65" y1="751.95" x2="899.37" y2="247.23"/><line class="cls-1" x1="403.79" y1="761.09" x2="908.51" y2="256.37"/><line class="cls-1" x1="412.93" y1="770.23" x2="917.65" y2="265.51"/><line class="cls-1" x1="422.07" y1="779.37" x2="926.79" y2="274.65"/><line class="cls-1" x1="431.21" y1="788.51" x2="935.93" y2="283.79"/><line class="cls-1" x1="440.35" y1="797.65" x2="945.07" y2="292.93"/><line class="cls-1" x1="449.49" y1="806.79" x2="954.21" y2="302.07"/><line class="cls-1" x1="458.63" y1="815.93" x2="963.35" y2="311.21"/><line class="cls-1" x1="467.77" y1="825.06" x2="972.49" y2="320.35"/><line class="cls-1" x1="476.91" y1="834.2" x2="981.63" y2="329.48"/><line class="cls-1" x1="486.05" y1="843.34" x2="990.77" y2="338.62"/><line class="cls-1" x1="495.19" y1="852.48" x2="999.91" y2="347.76"/><line class="cls-1" x1="504.33" y1="861.62" x2="1009.05" y2="356.9"/><line class="cls-1" x1="513.47" y1="870.76" x2="1018.19" y2="366.04"/><line class="cls-1" x1="522.61" y1="879.9" x2="1027.32" y2="375.18"/><line class="cls-1" x1="531.74" y1="889.04" x2="1036.46" y2="384.32"/><line class="cls-1" x1="540.88" y1="898.18" x2="1045.6" y2="393.46"/><line class="cls-1" x1="550.02" y1="907.32" x2="1054.74" y2="402.6"/><line class="cls-1" x1="559.16" y1="916.46" x2="1063.88" y2="411.74"/><line class="cls-1" x1="568.3" y1="925.6" x2="1073.02" y2="420.88"/><line class="cls-1" x1="577.44" y1="934.74" x2="1082.16" y2="430.02"/><line class="cls-1" x1="586.58" y1="943.88" x2="1091.3" y2="439.16"/><line class="cls-1" x1="595.72" y1="953.02" x2="1100.44" y2="448.3"/><line class="cls-1" x1="604.86" y1="962.15" x2="1109.58" y2="457.44"/><line class="cls-1" x1="614" y1="971.29" x2="1118.72" y2="466.57"/><line class="cls-1" x1="623.14" y1="980.43" x2="1127.86" y2="475.71"/><line class="cls-1" x1="632.28" y1="989.57" x2="1137" y2="484.85"/><line class="cls-1" x1="641.42" y1="998.71" x2="1146.14" y2="493.99"/><line class="cls-1" x1="650.56" y1="1007.85" x2="1155.28" y2="503.13"/><line class="cls-1" x1="659.7" y1="1016.99" x2="1164.42" y2="512.27"/><line class="cls-1" x1="668.83" y1="1026.13" x2="1173.55" y2="521.41"/><line class="cls-1" x1="677.97" y1="1035.27" x2="1182.69" y2="530.55"/><line class="cls-1" x1="687.11" y1="1044.41" x2="1191.83" y2="539.69"/><line class="cls-1" x1="696.25" y1="1053.55" x2="1200.97" y2="548.83"/><line class="cls-1" x1="705.39" y1="1062.69" x2="1210.11" y2="557.97"/><line class="cls-1" x1="714.53" y1="1071.83" x2="1219.25" y2="567.11"/><line class="cls-1" x1="723.67" y1="1080.97" x2="1228.39" y2="576.25"/><line class="cls-1" x1="732.81" y1="1090.11" x2="1237.53" y2="585.39"/><line class="cls-1" x1="741.95" y1="1099.25" x2="1246.67" y2="594.53"/><line class="cls-1" x1="751.09" y1="1108.38" x2="1255.81" y2="603.67"/><line class="cls-1" x1="760.23" y1="1117.52" x2="1264.95" y2="612.8"/><line class="cls-1" x1="769.37" y1="1126.66" x2="1274.09" y2="621.94"/><line class="cls-1" x1="778.51" y1="1135.8" x2="1283.23" y2="631.08"/><line class="cls-1" x1="787.65" y1="1144.94" x2="1292.37" y2="640.22"/><line class="cls-1" x1="796.79" y1="1154.08" x2="1301.51" y2="649.36"/><line class="cls-1" x1="805.93" y1="1163.22" x2="1310.65" y2="658.5"/><line class="cls-1" x1="815.06" y1="1172.36" x2="1319.78" y2="667.64"/></g><path class="cls-1" d="M598.1,298.69h0a8.12,8.12,0,0,1,8.12,8.12V545.06a0,0,0,0,1,0,0H590a0,0,0,0,1,0,0V306.81a8.12,8.12,0,0,1,8.12-8.12Z"/><g class="cls-10"><line class="cls-1" x1="319.91" y1="550.15" x2="824.63" y2="45.44"/><line class="cls-1" x1="329.05" y1="559.29" x2="833.77" y2="54.57"/><line class="cls-1" x1="338.19" y1="568.43" x2="842.91" y2="63.71"/><line class="cls-1" x1="347.33" y1="577.57" x2="852.05" y2="72.85"/><line class="cls-1" x1="356.47" y1="586.71" x2="861.19" y2="81.99"/><line class="cls-1" x1="365.61" y1="595.85" x2="870.33" y2="91.13"/><line class="cls-1" x1="374.75" y1="604.99" x2="879.47" y2="100.27"/><line class="cls-1" x1="383.89" y1="614.13" x2="888.6" y2="109.41"/><line class="cls-1" x1="393.02" y1="623.27" x2="897.74" y2="118.55"/><line class="cls-1" x1="402.16" y1="632.41" x2="906.88" y2="127.69"/><line class="cls-1" x1="411.3" y1="641.55" x2="916.02" y2="136.83"/><line class="cls-1" x1="420.44" y1="650.69" x2="925.16" y2="145.97"/><line class="cls-1" x1="429.58" y1="659.83" x2="934.3" y2="155.11"/><line class="cls-1" x1="438.72" y1="668.97" x2="943.44" y2="164.25"/><line class="cls-1" x1="447.86" y1="678.11" x2="952.58" y2="173.39"/><line class="cls-1" x1="457" y1="687.24" x2="961.72" y2="182.53"/><line class="cls-1" x1="466.14" y1="696.38" x2="970.86" y2="191.66"/><line class="cls-1" x1="475.28" y1="705.52" x2="980" y2="200.8"/><line class="cls-1" x1="484.42" y1="714.66" x2="989.14" y2="209.94"/><line class="cls-1" x1="493.56" y1="723.8" x2="998.28" y2="219.08"/><line class="cls-1" x1="502.7" y1="732.94" x2="1007.42" y2="228.22"/><line class="cls-1" x1="511.84" y1="742.08" x2="1016.56" y2="237.36"/><line class="cls-1" x1="520.98" y1="751.22" x2="1025.7" y2="246.5"/><line class="cls-1" x1="530.11" y1="760.36" x2="1034.83" y2="255.64"/><line class="cls-1" x1="539.25" y1="769.5" x2="1043.97" y2="264.78"/><line class="cls-1" x1="548.39" y1="778.64" x2="1053.11" y2="273.92"/><line class="cls-1" x1="557.53" y1="787.78" x2="1062.25" y2="283.06"/><line class="cls-1" x1="566.67" y1="796.92" x2="1071.39" y2="292.2"/><line class="cls-1" x1="575.81" y1="806.06" x2="1080.53" y2="301.34"/><line class="cls-1" x1="584.95" y1="815.2" x2="1089.67" y2="310.48"/><line class="cls-1" x1="594.09" y1="824.34" x2="1098.81" y2="319.62"/><line class="cls-1" x1="603.23" y1="833.47" x2="1107.95" y2="328.76"/><line class="cls-1" x1="612.37" y1="842.61" x2="1117.09" y2="337.89"/><line class="cls-1" x1="621.51" y1="851.75" x2="1126.23" y2="347.03"/><line class="cls-1" x1="630.65" y1="860.89" x2="1135.37" y2="356.17"/><line class="cls-1" x1="639.79" y1="870.03" x2="1144.51" y2="365.31"/><line class="cls-1" x1="648.93" y1="879.17" x2="1153.65" y2="374.45"/><line class="cls-1" x1="658.07" y1="888.31" x2="1162.79" y2="383.59"/><line class="cls-1" x1="667.21" y1="897.45" x2="1171.92" y2="392.73"/><line class="cls-1" x1="676.34" y1="906.59" x2="1181.06" y2="401.87"/><line class="cls-1" x1="685.48" y1="915.73" x2="1190.2" y2="411.01"/><line class="cls-1" x1="694.62" y1="924.87" x2="1199.34" y2="420.15"/><line class="cls-1" x1="703.76" y1="934.01" x2="1208.48" y2="429.29"/><line class="cls-1" x1="712.9" y1="943.15" x2="1217.62" y2="438.43"/><line class="cls-1" x1="722.04" y1="952.29" x2="1226.76" y2="447.57"/><line class="cls-1" x1="731.18" y1="961.43" x2="1235.9" y2="456.71"/><line class="cls-1" x1="740.32" y1="970.56" x2="1245.04" y2="465.85"/></g><path class="cls-1" d="M552.76,524.82h0a8.12,8.12,0,0,1,8.12,8.12v12.18a0,0,0,0,1,0,0H544.64a0,0,0,0,1,0,0V532.93A8.12,8.12,0,0,1,552.76,524.82Z"/><g class="cls-11"><line class="cls-1" x1="269.13" y1="755.21" x2="773.85" y2="250.49"/><line class="cls-1" x1="278.27" y1="764.35" x2="782.99" y2="259.63"/><line class="cls-1" x1="287.41" y1="773.49" x2="792.13" y2="268.77"/><line class="cls-1" x1="296.55" y1="782.63" x2="801.27" y2="277.91"/><line class="cls-1" x1="305.69" y1="791.77" x2="810.41" y2="287.05"/><line class="cls-1" x1="314.83" y1="800.91" x2="819.55" y2="296.19"/><line class="cls-1" x1="323.97" y1="810.05" x2="828.69" y2="305.33"/><line class="cls-1" x1="333.11" y1="819.19" x2="837.83" y2="314.47"/><line class="cls-1" x1="342.25" y1="828.32" x2="846.97" y2="323.61"/><line class="cls-1" x1="351.39" y1="837.46" x2="856.11" y2="332.74"/><line class="cls-1" x1="360.53" y1="846.6" x2="865.25" y2="341.88"/><line class="cls-1" x1="369.67" y1="855.74" x2="874.39" y2="351.02"/><line class="cls-1" x1="378.81" y1="864.88" x2="883.53" y2="360.16"/><line class="cls-1" x1="387.95" y1="874.02" x2="892.66" y2="369.3"/><line class="cls-1" x1="397.08" y1="883.16" x2="901.8" y2="378.44"/><line class="cls-1" x1="406.22" y1="892.3" x2="910.94" y2="387.58"/><line class="cls-1" x1="415.36" y1="901.44" x2="920.08" y2="396.72"/><line class="cls-1" x1="424.5" y1="910.58" x2="929.22" y2="405.86"/><line class="cls-1" x1="433.64" y1="919.72" x2="938.36" y2="415"/><line class="cls-1" x1="442.78" y1="928.86" x2="947.5" y2="424.14"/><line class="cls-1" x1="451.92" y1="938" x2="956.64" y2="433.28"/><line class="cls-1" x1="461.06" y1="947.14" x2="965.78" y2="442.42"/><line class="cls-1" x1="470.2" y1="956.28" x2="974.92" y2="451.56"/><line class="cls-1" x1="479.34" y1="965.42" x2="984.06" y2="460.7"/><line class="cls-1" x1="488.48" y1="974.55" x2="993.2" y2="469.83"/><line class="cls-1" x1="497.62" y1="983.69" x2="1002.34" y2="478.97"/><line class="cls-1" x1="506.76" y1="992.83" x2="1011.48" y2="488.11"/><line class="cls-1" x1="515.9" y1="1001.97" x2="1020.62" y2="497.25"/><line class="cls-1" x1="525.04" y1="1011.11" x2="1029.76" y2="506.39"/><line class="cls-1" x1="534.18" y1="1020.25" x2="1038.89" y2="515.53"/><line class="cls-1" x1="543.31" y1="1029.39" x2="1048.03" y2="524.67"/><line class="cls-1" x1="552.45" y1="1038.53" x2="1057.17" y2="533.81"/><line class="cls-1" x1="561.59" y1="1047.67" x2="1066.31" y2="542.95"/><line class="cls-1" x1="570.73" y1="1056.81" x2="1075.45" y2="552.09"/><line class="cls-1" x1="579.87" y1="1065.95" x2="1084.59" y2="561.23"/><line class="cls-1" x1="589.01" y1="1075.09" x2="1093.73" y2="570.37"/><line class="cls-1" x1="598.15" y1="1084.23" x2="1102.87" y2="579.51"/><line class="cls-1" x1="607.29" y1="1093.37" x2="1112.01" y2="588.65"/><line class="cls-1" x1="616.43" y1="1102.51" x2="1121.15" y2="597.79"/><line class="cls-1" x1="625.57" y1="1111.64" x2="1130.29" y2="606.93"/><line class="cls-1" x1="634.71" y1="1120.78" x2="1139.43" y2="616.06"/><line class="cls-1" x1="643.85" y1="1129.92" x2="1148.57" y2="625.2"/><line class="cls-1" x1="652.99" y1="1139.06" x2="1157.71" y2="634.34"/><line class="cls-1" x1="662.13" y1="1148.2" x2="1166.85" y2="643.48"/><line class="cls-1" x1="671.27" y1="1157.34" x2="1175.99" y2="652.62"/><line class="cls-1" x1="680.4" y1="1166.48" x2="1185.12" y2="661.76"/><line class="cls-1" x1="689.54" y1="1175.62" x2="1194.26" y2="670.9"/></g><path class="cls-1" d="M507.41,518.06h0a8.12,8.12,0,0,1,8.12,8.12v18.88a0,0,0,0,1,0,0H499.29a0,0,0,0,1,0,0V526.18A8.12,8.12,0,0,1,507.41,518.06Z"/><g class="cls-12"><line class="cls-1" x1="256.73" y1="755.21" x2="761.45" y2="250.49"/><line class="cls-1" x1="265.87" y1="764.35" x2="770.59" y2="259.63"/><line class="cls-1" x1="275.01" y1="773.49" x2="779.73" y2="268.77"/><line class="cls-1" x1="284.15" y1="782.63" x2="788.87" y2="277.91"/><line class="cls-1" x1="293.29" y1="791.77" x2="798.01" y2="287.05"/><line class="cls-1" x1="302.43" y1="800.91" x2="807.15" y2="296.19"/><line class="cls-1" x1="311.57" y1="810.05" x2="816.29" y2="305.33"/><line class="cls-1" x1="320.71" y1="819.19" x2="825.43" y2="314.47"/><line class="cls-1" x1="329.85" y1="828.32" x2="834.57" y2="323.61"/><line class="cls-1" x1="338.99" y1="837.46" x2="843.71" y2="332.74"/><line class="cls-1" x1="348.13" y1="846.6" x2="852.85" y2="341.88"/><line class="cls-1" x1="357.27" y1="855.74" x2="861.99" y2="351.02"/><line class="cls-1" x1="366.41" y1="864.88" x2="871.13" y2="360.16"/><line class="cls-1" x1="375.55" y1="874.02" x2="880.27" y2="369.3"/><line class="cls-1" x1="384.69" y1="883.16" x2="889.4" y2="378.44"/><line class="cls-1" x1="393.82" y1="892.3" x2="898.54" y2="387.58"/><line class="cls-1" x1="402.96" y1="901.44" x2="907.68" y2="396.72"/><line class="cls-1" x1="412.1" y1="910.58" x2="916.82" y2="405.86"/><line class="cls-1" x1="421.24" y1="919.72" x2="925.96" y2="415"/><line class="cls-1" x1="430.38" y1="928.86" x2="935.1" y2="424.14"/><line class="cls-1" x1="439.52" y1="938" x2="944.24" y2="433.28"/><line class="cls-1" x1="448.66" y1="947.14" x2="953.38" y2="442.42"/><line class="cls-1" x1="457.8" y1="956.28" x2="962.52" y2="451.56"/><line class="cls-1" x1="466.94" y1="965.42" x2="971.66" y2="460.7"/><line class="cls-1" x1="476.08" y1="974.55" x2="980.8" y2="469.83"/><line class="cls-1" x1="485.22" y1="983.69" x2="989.94" y2="478.97"/><line class="cls-1" x1="494.36" y1="992.83" x2="999.08" y2="488.11"/><line class="cls-1" x1="503.5" y1="1001.97" x2="1008.22" y2="497.25"/><line class="cls-1" x1="512.64" y1="1011.11" x2="1017.36" y2="506.39"/><line class="cls-1" x1="521.78" y1="1020.25" x2="1026.5" y2="515.53"/><line class="cls-1" x1="530.91" y1="1029.39" x2="1035.63" y2="524.67"/><line class="cls-1" x1="540.05" y1="1038.53" x2="1044.77" y2="533.81"/><line class="cls-1" x1="549.19" y1="1047.67" x2="1053.91" y2="542.95"/><line class="cls-1" x1="558.33" y1="1056.81" x2="1063.05" y2="552.09"/><line class="cls-1" x1="567.47" y1="1065.95" x2="1072.19" y2="561.23"/><line class="cls-1" x1="576.61" y1="1075.09" x2="1081.33" y2="570.37"/><line class="cls-1" x1="585.75" y1="1084.23" x2="1090.47" y2="579.51"/><line class="cls-1" x1="594.89" y1="1093.37" x2="1099.61" y2="588.65"/><line class="cls-1" x1="604.03" y1="1102.51" x2="1108.75" y2="597.79"/><line class="cls-1" x1="613.17" y1="1111.64" x2="1117.89" y2="606.93"/><line class="cls-1" x1="622.31" y1="1120.78" x2="1127.03" y2="616.06"/><line class="cls-1" x1="631.45" y1="1129.92" x2="1136.17" y2="625.2"/><line class="cls-1" x1="640.59" y1="1139.06" x2="1145.31" y2="634.34"/><line class="cls-1" x1="649.73" y1="1148.2" x2="1154.45" y2="643.48"/><line class="cls-1" x1="658.87" y1="1157.34" x2="1163.59" y2="652.62"/><line class="cls-1" x1="668.01" y1="1166.48" x2="1172.73" y2="661.76"/><line class="cls-1" x1="677.14" y1="1175.62" x2="1181.86" y2="670.9"/></g><path class="cls-1" d="M462.07,519.36h0a8.12,8.12,0,0,1,8.12,8.12v17.58a0,0,0,0,1,0,0H454a0,0,0,0,1,0,0V527.48a8.12,8.12,0,0,1,8.12-8.12Z"/><g class="cls-13"><line class="cls-1" x1="275.31" y1="700.73" x2="780.03" y2="196.01"/><line class="cls-1" x1="284.45" y1="709.87" x2="789.17" y2="205.15"/><line class="cls-1" x1="293.59" y1="719.01" x2="798.31" y2="214.29"/><line class="cls-1" x1="302.73" y1="728.15" x2="807.45" y2="223.43"/><line class="cls-1" x1="311.87" y1="737.29" x2="816.59" y2="232.57"/><line class="cls-1" x1="321.01" y1="746.43" x2="825.72" y2="241.71"/><line class="cls-1" x1="330.14" y1="755.57" x2="834.86" y2="250.85"/><line class="cls-1" x1="339.28" y1="764.71" x2="844" y2="259.99"/><line class="cls-1" x1="348.42" y1="773.85" x2="853.14" y2="269.13"/><line class="cls-1" x1="357.56" y1="782.98" x2="862.28" y2="278.26"/><line class="cls-1" x1="366.7" y1="792.12" x2="871.42" y2="287.4"/><line class="cls-1" x1="375.84" y1="801.26" x2="880.56" y2="296.54"/><line class="cls-1" x1="384.98" y1="810.4" x2="889.7" y2="305.68"/><line class="cls-1" x1="394.12" y1="819.54" x2="898.84" y2="314.82"/><line class="cls-1" x1="403.26" y1="828.68" x2="907.98" y2="323.96"/><line class="cls-1" x1="412.4" y1="837.82" x2="917.12" y2="333.1"/><line class="cls-1" x1="421.54" y1="846.96" x2="926.26" y2="342.24"/><line class="cls-1" x1="430.68" y1="856.1" x2="935.4" y2="351.38"/><line class="cls-1" x1="439.82" y1="865.24" x2="944.54" y2="360.52"/><line class="cls-1" x1="448.96" y1="874.38" x2="953.68" y2="369.66"/><line class="cls-1" x1="458.1" y1="883.52" x2="962.82" y2="378.8"/><line class="cls-1" x1="467.24" y1="892.66" x2="971.95" y2="387.94"/><line class="cls-1" x1="476.37" y1="901.8" x2="981.09" y2="397.08"/><line class="cls-1" x1="485.51" y1="910.94" x2="990.23" y2="406.22"/><line class="cls-1" x1="494.65" y1="920.07" x2="999.37" y2="415.36"/><line class="cls-1" x1="503.79" y1="929.21" x2="1008.51" y2="424.49"/><line class="cls-1" x1="512.93" y1="938.35" x2="1017.65" y2="433.63"/><line class="cls-1" x1="522.07" y1="947.49" x2="1026.79" y2="442.77"/><line class="cls-1" x1="531.21" y1="956.63" x2="1035.93" y2="451.91"/><line class="cls-1" x1="540.35" y1="965.77" x2="1045.07" y2="461.05"/><line class="cls-1" x1="549.49" y1="974.91" x2="1054.21" y2="470.19"/><line class="cls-1" x1="558.63" y1="984.05" x2="1063.35" y2="479.33"/><line class="cls-1" x1="567.77" y1="993.19" x2="1072.49" y2="488.47"/><line class="cls-1" x1="576.91" y1="1002.33" x2="1081.63" y2="497.61"/><line class="cls-1" x1="586.05" y1="1011.47" x2="1090.77" y2="506.75"/><line class="cls-1" x1="595.19" y1="1020.61" x2="1099.91" y2="515.89"/><line class="cls-1" x1="604.33" y1="1029.75" x2="1109.05" y2="525.03"/><line class="cls-1" x1="613.46" y1="1038.89" x2="1118.18" y2="534.17"/><line class="cls-1" x1="622.6" y1="1048.03" x2="1127.32" y2="543.31"/><line class="cls-1" x1="631.74" y1="1057.16" x2="1136.46" y2="552.45"/><line class="cls-1" x1="640.88" y1="1066.3" x2="1145.6" y2="561.58"/><line class="cls-1" x1="650.02" y1="1075.44" x2="1154.74" y2="570.72"/><line class="cls-1" x1="659.16" y1="1084.58" x2="1163.88" y2="579.86"/><line class="cls-1" x1="668.3" y1="1093.72" x2="1173.02" y2="589"/><line class="cls-1" x1="677.44" y1="1102.86" x2="1182.16" y2="598.14"/><line class="cls-1" x1="686.58" y1="1112" x2="1191.3" y2="607.28"/><line class="cls-1" x1="695.72" y1="1121.14" x2="1200.44" y2="616.42"/></g><path class="cls-1" d="M416.73,529.36h0a8.12,8.12,0,0,1,8.12,8.12v7.58a0,0,0,0,1,0,0H408.61a0,0,0,0,1,0,0v-7.58A8.12,8.12,0,0,1,416.73,529.36Z"/><g class="cls-14"><line class="cls-1" x1="199.08" y1="636.84" x2="703.8" y2="132.12"/><line class="cls-1" x1="208.22" y1="645.98" x2="712.94" y2="141.26"/><line class="cls-1" x1="217.36" y1="655.12" x2="722.08" y2="150.4"/><line class="cls-1" x1="226.5" y1="664.26" x2="731.22" y2="159.54"/><line class="cls-1" x1="235.64" y1="673.4" x2="740.36" y2="168.68"/><line class="cls-1" x1="244.78" y1="682.54" x2="749.5" y2="177.82"/><line class="cls-1" x1="253.92" y1="691.67" x2="758.64" y2="186.96"/><line class="cls-1" x1="263.06" y1="700.81" x2="767.78" y2="196.09"/><line class="cls-1" x1="272.2" y1="709.95" x2="776.92" y2="205.23"/><line class="cls-1" x1="281.34" y1="719.09" x2="786.06" y2="214.37"/><line class="cls-1" x1="290.48" y1="728.23" x2="795.2" y2="223.51"/><line class="cls-1" x1="299.62" y1="737.37" x2="804.34" y2="232.65"/><line class="cls-1" x1="308.76" y1="746.51" x2="813.48" y2="241.79"/><line class="cls-1" x1="317.9" y1="755.65" x2="822.62" y2="250.93"/><line class="cls-1" x1="327.04" y1="764.79" x2="831.76" y2="260.07"/><line class="cls-1" x1="336.18" y1="773.93" x2="840.89" y2="269.21"/><line class="cls-1" x1="345.31" y1="783.07" x2="850.03" y2="278.35"/><line class="cls-1" x1="354.45" y1="792.21" x2="859.17" y2="287.49"/><line class="cls-1" x1="363.59" y1="801.35" x2="868.31" y2="296.63"/><line class="cls-1" x1="372.73" y1="810.49" x2="877.45" y2="305.77"/><line class="cls-1" x1="381.87" y1="819.63" x2="886.59" y2="314.91"/><line class="cls-1" x1="391.01" y1="828.76" x2="895.73" y2="324.05"/><line class="cls-1" x1="400.15" y1="837.9" x2="904.87" y2="333.18"/><line class="cls-1" x1="409.29" y1="847.04" x2="914.01" y2="342.32"/><line class="cls-1" x1="418.43" y1="856.18" x2="923.15" y2="351.46"/><line class="cls-1" x1="427.57" y1="865.32" x2="932.29" y2="360.6"/><line class="cls-1" x1="436.71" y1="874.46" x2="941.43" y2="369.74"/><line class="cls-1" x1="445.85" y1="883.6" x2="950.57" y2="378.88"/><line class="cls-1" x1="454.99" y1="892.74" x2="959.71" y2="388.02"/><line class="cls-1" x1="464.13" y1="901.88" x2="968.85" y2="397.16"/><line class="cls-1" x1="473.27" y1="911.02" x2="977.99" y2="406.3"/><line class="cls-1" x1="482.4" y1="920.16" x2="987.12" y2="415.44"/><line class="cls-1" x1="491.54" y1="929.3" x2="996.26" y2="424.58"/><line class="cls-1" x1="500.68" y1="938.44" x2="1005.4" y2="433.72"/><line class="cls-1" x1="509.82" y1="947.58" x2="1014.54" y2="442.86"/><line class="cls-1" x1="518.96" y1="956.72" x2="1023.68" y2="452"/><line class="cls-1" x1="528.1" y1="965.86" x2="1032.82" y2="461.14"/><line class="cls-1" x1="537.24" y1="974.99" x2="1041.96" y2="470.28"/><line class="cls-1" x1="546.38" y1="984.13" x2="1051.1" y2="479.41"/><line class="cls-1" x1="555.52" y1="993.27" x2="1060.24" y2="488.55"/><line class="cls-1" x1="564.66" y1="1002.41" x2="1069.38" y2="497.69"/><line class="cls-1" x1="573.8" y1="1011.55" x2="1078.52" y2="506.83"/><line class="cls-1" x1="582.94" y1="1020.69" x2="1087.66" y2="515.97"/><line class="cls-1" x1="592.08" y1="1029.83" x2="1096.8" y2="525.11"/><line class="cls-1" x1="601.22" y1="1038.97" x2="1105.94" y2="534.25"/><line class="cls-1" x1="610.36" y1="1048.11" x2="1115.08" y2="543.39"/><line class="cls-1" x1="619.5" y1="1057.25" x2="1124.21" y2="552.53"/></g><path class="cls-1" d="M371.38,522.82h0a8.12,8.12,0,0,1,8.12,8.12v14.13a0,0,0,0,1,0,0H363.26a0,0,0,0,1,0,0V530.93A8.12,8.12,0,0,1,371.38,522.82Z"/><g class="cls-15"><line class="cls-1" x1="152.78" y1="720.18" x2="657.5" y2="215.46"/><line class="cls-1" x1="161.92" y1="729.32" x2="666.64" y2="224.6"/><line class="cls-1" x1="171.06" y1="738.46" x2="675.78" y2="233.74"/><line class="cls-1" x1="180.2" y1="747.6" x2="684.92" y2="242.88"/><line class="cls-1" x1="189.34" y1="756.74" x2="694.06" y2="252.02"/><line class="cls-1" x1="198.48" y1="765.88" x2="703.2" y2="261.16"/><line class="cls-1" x1="207.62" y1="775.02" x2="712.34" y2="270.3"/><line class="cls-1" x1="216.76" y1="784.15" x2="721.48" y2="279.44"/><line class="cls-1" x1="225.9" y1="793.29" x2="730.62" y2="288.57"/><line class="cls-1" x1="235.03" y1="802.43" x2="739.75" y2="297.71"/><line class="cls-1" x1="244.17" y1="811.57" x2="748.89" y2="306.85"/><line class="cls-1" x1="253.31" y1="820.71" x2="758.03" y2="315.99"/><line class="cls-1" x1="262.45" y1="829.85" x2="767.17" y2="325.13"/><line class="cls-1" x1="271.59" y1="838.99" x2="776.31" y2="334.27"/><line class="cls-1" x1="280.73" y1="848.13" x2="785.45" y2="343.41"/><line class="cls-1" x1="289.87" y1="857.27" x2="794.59" y2="352.55"/><line class="cls-1" x1="299.01" y1="866.41" x2="803.73" y2="361.69"/><line class="cls-1" x1="308.15" y1="875.55" x2="812.87" y2="370.83"/><line class="cls-1" x1="317.29" y1="884.69" x2="822.01" y2="379.97"/><line class="cls-1" x1="326.43" y1="893.83" x2="831.15" y2="389.11"/><line class="cls-1" x1="335.57" y1="902.97" x2="840.29" y2="398.25"/><line class="cls-1" x1="344.71" y1="912.11" x2="849.43" y2="407.39"/><line class="cls-1" x1="353.85" y1="921.25" x2="858.57" y2="416.53"/><line class="cls-1" x1="362.99" y1="930.38" x2="867.71" y2="425.67"/><line class="cls-1" x1="372.13" y1="939.52" x2="876.85" y2="434.8"/><line class="cls-1" x1="381.26" y1="948.66" x2="885.98" y2="443.94"/><line class="cls-1" x1="390.4" y1="957.8" x2="895.12" y2="453.08"/><line class="cls-1" x1="399.54" y1="966.94" x2="904.26" y2="462.22"/><line class="cls-1" x1="408.68" y1="976.08" x2="913.4" y2="471.36"/><line class="cls-1" x1="417.82" y1="985.22" x2="922.54" y2="480.5"/><line class="cls-1" x1="426.96" y1="994.36" x2="931.68" y2="489.64"/><line class="cls-1" x1="436.1" y1="1003.5" x2="940.82" y2="498.78"/><line class="cls-1" x1="445.24" y1="1012.64" x2="949.96" y2="507.92"/><line class="cls-1" x1="454.38" y1="1021.78" x2="959.1" y2="517.06"/><line class="cls-1" x1="463.52" y1="1030.92" x2="968.24" y2="526.2"/><line class="cls-1" x1="472.66" y1="1040.06" x2="977.38" y2="535.34"/><line class="cls-1" x1="481.8" y1="1049.2" x2="986.52" y2="544.48"/><line class="cls-1" x1="490.94" y1="1058.34" x2="995.66" y2="553.62"/><line class="cls-1" x1="500.08" y1="1067.47" x2="1004.8" y2="562.76"/><line class="cls-1" x1="509.22" y1="1076.61" x2="1013.94" y2="571.89"/><line class="cls-1" x1="518.36" y1="1085.75" x2="1023.07" y2="581.03"/><line class="cls-1" x1="527.49" y1="1094.89" x2="1032.21" y2="590.17"/><line class="cls-1" x1="536.63" y1="1104.03" x2="1041.35" y2="599.31"/><line class="cls-1" x1="545.77" y1="1113.17" x2="1050.49" y2="608.45"/><line class="cls-1" x1="554.91" y1="1122.31" x2="1059.63" y2="617.59"/><line class="cls-1" x1="564.05" y1="1131.45" x2="1068.77" y2="626.73"/><line class="cls-1" x1="573.19" y1="1140.59" x2="1077.91" y2="635.87"/></g><path class="cls-1" d="M334.15,545.06H317.92v-2.24a8.11,8.11,0,0,1,8.12-8.11h0a8.12,8.12,0,0,1,8.12,8.11Z"/><g class="cls-16"><line class="cls-1" x1="66.4" y1="761.09" x2="571.12" y2="256.37"/><line class="cls-1" x1="75.54" y1="770.23" x2="580.26" y2="265.51"/><line class="cls-1" x1="84.68" y1="779.37" x2="589.4" y2="274.65"/><line class="cls-1" x1="93.82" y1="788.51" x2="598.54" y2="283.79"/><line class="cls-1" x1="102.96" y1="797.65" x2="607.68" y2="292.93"/><line class="cls-1" x1="112.1" y1="806.79" x2="616.82" y2="302.07"/><line class="cls-1" x1="121.23" y1="815.93" x2="625.95" y2="311.21"/><line class="cls-1" x1="130.37" y1="825.06" x2="635.09" y2="320.35"/><line class="cls-1" x1="139.51" y1="834.2" x2="644.23" y2="329.48"/><line class="cls-1" x1="148.65" y1="843.34" x2="653.37" y2="338.62"/><line class="cls-1" x1="157.79" y1="852.48" x2="662.51" y2="347.76"/><line class="cls-1" x1="166.93" y1="861.62" x2="671.65" y2="356.9"/><line class="cls-1" x1="176.07" y1="870.76" x2="680.79" y2="366.04"/><line class="cls-1" x1="185.21" y1="879.9" x2="689.93" y2="375.18"/><line class="cls-1" x1="194.35" y1="889.04" x2="699.07" y2="384.32"/><line class="cls-1" x1="203.49" y1="898.18" x2="708.21" y2="393.46"/><line class="cls-1" x1="212.63" y1="907.32" x2="717.35" y2="402.6"/><line class="cls-1" x1="221.77" y1="916.46" x2="726.49" y2="411.74"/><line class="cls-1" x1="230.91" y1="925.6" x2="735.63" y2="420.88"/><line class="cls-1" x1="240.05" y1="934.74" x2="744.77" y2="430.02"/><line class="cls-1" x1="249.19" y1="943.88" x2="753.91" y2="439.16"/><line class="cls-1" x1="258.33" y1="953.02" x2="763.05" y2="448.3"/><line class="cls-1" x1="267.46" y1="962.15" x2="772.18" y2="457.44"/><line class="cls-1" x1="276.6" y1="971.29" x2="781.32" y2="466.57"/><line class="cls-1" x1="285.74" y1="980.43" x2="790.46" y2="475.71"/><line class="cls-1" x1="294.88" y1="989.57" x2="799.6" y2="484.85"/><line class="cls-1" x1="304.02" y1="998.71" x2="808.74" y2="493.99"/><line class="cls-1" x1="313.16" y1="1007.85" x2="817.88" y2="503.13"/><line class="cls-1" x1="322.3" y1="1016.99" x2="827.02" y2="512.27"/><line class="cls-1" x1="331.44" y1="1026.13" x2="836.16" y2="521.41"/><line class="cls-1" x1="340.58" y1="1035.27" x2="845.3" y2="530.55"/><line class="cls-1" x1="349.72" y1="1044.41" x2="854.44" y2="539.69"/><line class="cls-1" x1="358.86" y1="1053.55" x2="863.58" y2="548.83"/><line class="cls-1" x1="368" y1="1062.69" x2="872.72" y2="557.97"/><line class="cls-1" x1="377.14" y1="1071.83" x2="881.86" y2="567.11"/><line class="cls-1" x1="386.28" y1="1080.97" x2="891" y2="576.25"/><line class="cls-1" x1="395.42" y1="1090.11" x2="900.14" y2="585.39"/><line class="cls-1" x1="404.56" y1="1099.25" x2="909.27" y2="594.53"/><line class="cls-1" x1="413.69" y1="1108.38" x2="918.41" y2="603.67"/><line class="cls-1" x1="422.83" y1="1117.52" x2="927.55" y2="612.8"/><line class="cls-1" x1="431.97" y1="1126.66" x2="936.69" y2="621.94"/><line class="cls-1" x1="441.11" y1="1135.8" x2="945.83" y2="631.08"/><line class="cls-1" x1="450.25" y1="1144.94" x2="954.97" y2="640.22"/><line class="cls-1" x1="459.39" y1="1154.08" x2="964.11" y2="649.36"/><line class="cls-1" x1="468.53" y1="1163.22" x2="973.25" y2="658.5"/><line class="cls-1" x1="477.67" y1="1172.36" x2="982.39" y2="667.64"/><line class="cls-1" x1="486.81" y1="1181.5" x2="991.53" y2="676.78"/></g><path class="cls-1" d="M280.69,461h0a8.12,8.12,0,0,1,8.12,8.12v76a0,0,0,0,1,0,0H272.57a0,0,0,0,1,0,0v-76A8.12,8.12,0,0,1,280.69,461Z"/><g class="cls-17"><line class="cls-1" x1="-4.87" y1="636.84" x2="499.85" y2="132.12"/><line class="cls-1" x1="4.27" y1="645.98" x2="508.99" y2="141.26"/><line class="cls-1" x1="13.41" y1="655.12" x2="518.12" y2="150.4"/><line class="cls-1" x1="22.54" y1="664.26" x2="527.26" y2="159.54"/><line class="cls-1" x1="31.68" y1="673.4" x2="536.4" y2="168.68"/><line class="cls-1" x1="40.82" y1="682.54" x2="545.54" y2="177.82"/><line class="cls-1" x1="49.96" y1="691.68" x2="554.68" y2="186.96"/><line class="cls-1" x1="59.1" y1="700.81" x2="563.82" y2="196.1"/><line class="cls-1" x1="68.24" y1="709.95" x2="572.96" y2="205.23"/><line class="cls-1" x1="77.38" y1="719.09" x2="582.1" y2="214.37"/><line class="cls-1" x1="86.52" y1="728.23" x2="591.24" y2="223.51"/><line class="cls-1" x1="95.66" y1="737.37" x2="600.38" y2="232.65"/><line class="cls-1" x1="104.8" y1="746.51" x2="609.52" y2="241.79"/><line class="cls-1" x1="113.94" y1="755.65" x2="618.66" y2="250.93"/><line class="cls-1" x1="123.08" y1="764.79" x2="627.8" y2="260.07"/><line class="cls-1" x1="132.22" y1="773.93" x2="636.94" y2="269.21"/><line class="cls-1" x1="141.36" y1="783.07" x2="646.08" y2="278.35"/><line class="cls-1" x1="150.5" y1="792.21" x2="655.22" y2="287.49"/><line class="cls-1" x1="159.63" y1="801.35" x2="664.35" y2="296.63"/><line class="cls-1" x1="168.77" y1="810.49" x2="673.49" y2="305.77"/><line class="cls-1" x1="177.91" y1="819.63" x2="682.63" y2="314.91"/><line class="cls-1" x1="187.05" y1="828.77" x2="691.77" y2="324.05"/><line class="cls-1" x1="196.19" y1="837.9" x2="700.91" y2="333.19"/><line class="cls-1" x1="205.33" y1="847.04" x2="710.05" y2="342.32"/><line class="cls-1" x1="214.47" y1="856.18" x2="719.19" y2="351.46"/><line class="cls-1" x1="223.61" y1="865.32" x2="728.33" y2="360.6"/><line class="cls-1" x1="232.75" y1="874.46" x2="737.47" y2="369.74"/><line class="cls-1" x1="241.89" y1="883.6" x2="746.61" y2="378.88"/><line class="cls-1" x1="251.03" y1="892.74" x2="755.75" y2="388.02"/><line class="cls-1" x1="260.17" y1="901.88" x2="764.89" y2="397.16"/><line class="cls-1" x1="269.31" y1="911.02" x2="774.03" y2="406.3"/><line class="cls-1" x1="278.45" y1="920.16" x2="783.17" y2="415.44"/><line class="cls-1" x1="287.59" y1="929.3" x2="792.31" y2="424.58"/><line class="cls-1" x1="296.73" y1="938.44" x2="801.44" y2="433.72"/><line class="cls-1" x1="305.86" y1="947.58" x2="810.58" y2="442.86"/><line class="cls-1" x1="315" y1="956.72" x2="819.72" y2="452"/><line class="cls-1" x1="324.14" y1="965.86" x2="828.86" y2="461.14"/><line class="cls-1" x1="333.28" y1="975" x2="838" y2="470.28"/><line class="cls-1" x1="342.42" y1="984.13" x2="847.14" y2="479.41"/><line class="cls-1" x1="351.56" y1="993.27" x2="856.28" y2="488.55"/><line class="cls-1" x1="360.7" y1="1002.41" x2="865.42" y2="497.69"/><line class="cls-1" x1="369.84" y1="1011.55" x2="874.56" y2="506.83"/><line class="cls-1" x1="378.98" y1="1020.69" x2="883.7" y2="515.97"/><line class="cls-1" x1="388.12" y1="1029.83" x2="892.84" y2="525.11"/><line class="cls-1" x1="397.26" y1="1038.97" x2="901.98" y2="534.25"/><line class="cls-1" x1="406.4" y1="1048.11" x2="911.12" y2="543.39"/><line class="cls-1" x1="415.54" y1="1057.25" x2="920.26" y2="552.53"/></g><path class="cls-1" d="M235.35,510.57h0a8.12,8.12,0,0,1,8.12,8.12v26.37a0,0,0,0,1,0,0H227.23a0,0,0,0,1,0,0V518.69A8.12,8.12,0,0,1,235.35,510.57Z"/><g class="cls-18"><line class="cls-1" x1="14.88" y1="636.84" x2="519.6" y2="132.12"/><line class="cls-1" x1="24.02" y1="645.98" x2="528.74" y2="141.26"/><line class="cls-1" x1="33.16" y1="655.12" x2="537.88" y2="150.4"/><line class="cls-1" x1="42.3" y1="664.26" x2="547.02" y2="159.54"/><line class="cls-1" x1="51.44" y1="673.4" x2="556.16" y2="168.68"/><line class="cls-1" x1="60.58" y1="682.54" x2="565.3" y2="177.82"/><line class="cls-1" x1="69.72" y1="691.68" x2="574.43" y2="186.96"/><line class="cls-1" x1="78.85" y1="700.81" x2="583.57" y2="196.1"/><line class="cls-1" x1="87.99" y1="709.95" x2="592.71" y2="205.23"/><line class="cls-1" x1="97.13" y1="719.09" x2="601.85" y2="214.37"/><line class="cls-1" x1="106.27" y1="728.23" x2="610.99" y2="223.51"/><line class="cls-1" x1="115.41" y1="737.37" x2="620.13" y2="232.65"/><line class="cls-1" x1="124.55" y1="746.51" x2="629.27" y2="241.79"/><line class="cls-1" x1="133.69" y1="755.65" x2="638.41" y2="250.93"/><line class="cls-1" x1="142.83" y1="764.79" x2="647.55" y2="260.07"/><line class="cls-1" x1="151.97" y1="773.93" x2="656.69" y2="269.21"/><line class="cls-1" x1="161.11" y1="783.07" x2="665.83" y2="278.35"/><line class="cls-1" x1="170.25" y1="792.21" x2="674.97" y2="287.49"/><line class="cls-1" x1="179.39" y1="801.35" x2="684.11" y2="296.63"/><line class="cls-1" x1="188.53" y1="810.49" x2="693.25" y2="305.77"/><line class="cls-1" x1="197.67" y1="819.63" x2="702.39" y2="314.91"/><line class="cls-1" x1="206.81" y1="828.77" x2="711.53" y2="324.05"/><line class="cls-1" x1="215.94" y1="837.9" x2="720.66" y2="333.19"/><line class="cls-1" x1="225.08" y1="847.04" x2="729.8" y2="342.32"/><line class="cls-1" x1="234.22" y1="856.18" x2="738.94" y2="351.46"/><line class="cls-1" x1="243.36" y1="865.32" x2="748.08" y2="360.6"/><line class="cls-1" x1="252.5" y1="874.46" x2="757.22" y2="369.74"/><line class="cls-1" x1="261.64" y1="883.6" x2="766.36" y2="378.88"/><line class="cls-1" x1="270.78" y1="892.74" x2="775.5" y2="388.02"/><line class="cls-1" x1="279.92" y1="901.88" x2="784.64" y2="397.16"/><line class="cls-1" x1="289.06" y1="911.02" x2="793.78" y2="406.3"/><line class="cls-1" x1="298.2" y1="920.16" x2="802.92" y2="415.44"/><line class="cls-1" x1="307.34" y1="929.3" x2="812.06" y2="424.58"/><line class="cls-1" x1="316.48" y1="938.44" x2="821.2" y2="433.72"/><line class="cls-1" x1="325.62" y1="947.58" x2="830.34" y2="442.86"/><line class="cls-1" x1="334.76" y1="956.72" x2="839.48" y2="452"/><line class="cls-1" x1="343.9" y1="965.86" x2="848.62" y2="461.14"/><line class="cls-1" x1="353.04" y1="975" x2="857.76" y2="470.28"/><line class="cls-1" x1="362.17" y1="984.13" x2="866.89" y2="479.41"/><line class="cls-1" x1="371.31" y1="993.27" x2="876.03" y2="488.55"/><line class="cls-1" x1="380.45" y1="1002.41" x2="885.17" y2="497.69"/><line class="cls-1" x1="389.59" y1="1011.55" x2="894.31" y2="506.83"/><line class="cls-1" x1="398.73" y1="1020.69" x2="903.45" y2="515.97"/><line class="cls-1" x1="407.87" y1="1029.83" x2="912.59" y2="525.11"/><line class="cls-1" x1="417.01" y1="1038.97" x2="921.73" y2="534.25"/><line class="cls-1" x1="426.15" y1="1048.11" x2="930.87" y2="543.39"/><line class="cls-1" x1="435.29" y1="1057.25" x2="940.01" y2="552.53"/></g><path class="cls-1" d="M198.12,545.06H181.89l1-378.72a8.11,8.11,0,0,1,8.12-8.12h0a8.11,8.11,0,0,1,8.11,8.12Z"/><g class="cls-19"><line class="cls-1" x1="-86.29" y1="334.12" x2="418.43" y2="-170.6"/><line class="cls-1" x1="-77.15" y1="343.26" x2="427.57" y2="-161.46"/><line class="cls-1" x1="-68.01" y1="352.4" x2="436.71" y2="-152.32"/><line class="cls-1" x1="-58.87" y1="361.53" x2="445.85" y2="-143.18"/><line class="cls-1" x1="-49.73" y1="370.67" x2="454.99" y2="-134.05"/><line class="cls-1" x1="-40.59" y1="379.81" x2="464.13" y2="-124.91"/><line class="cls-1" x1="-31.45" y1="388.95" x2="473.27" y2="-115.77"/><line class="cls-1" x1="-22.32" y1="398.09" x2="482.4" y2="-106.63"/><line class="cls-1" x1="-13.18" y1="407.23" x2="491.54" y2="-97.49"/><line class="cls-1" x1="-4.04" y1="416.37" x2="500.68" y2="-88.35"/><line class="cls-1" x1="5.1" y1="425.51" x2="509.82" y2="-79.21"/><line class="cls-1" x1="14.24" y1="434.65" x2="518.96" y2="-70.07"/><line class="cls-1" x1="23.38" y1="443.79" x2="528.1" y2="-60.93"/><line class="cls-1" x1="32.52" y1="452.93" x2="537.24" y2="-51.79"/><line class="cls-1" x1="41.66" y1="462.07" x2="546.38" y2="-42.65"/><line class="cls-1" x1="50.8" y1="471.21" x2="555.52" y2="-33.51"/><line class="cls-1" x1="59.94" y1="480.35" x2="564.66" y2="-24.37"/><line class="cls-1" x1="69.08" y1="489.49" x2="573.8" y2="-15.23"/><line class="cls-1" x1="78.22" y1="498.63" x2="582.94" y2="-6.09"/><line class="cls-1" x1="87.36" y1="507.76" x2="592.08" y2="3.04"/><line class="cls-1" x1="96.5" y1="516.9" x2="601.22" y2="12.18"/><line class="cls-1" x1="105.64" y1="526.04" x2="610.36" y2="21.32"/><line class="cls-1" x1="114.78" y1="535.18" x2="619.5" y2="30.46"/><line class="cls-1" x1="123.91" y1="544.32" x2="628.63" y2="39.6"/><line class="cls-1" x1="133.05" y1="553.46" x2="637.77" y2="48.74"/><line class="cls-1" x1="142.19" y1="562.6" x2="646.91" y2="57.88"/><line class="cls-1" x1="151.33" y1="571.74" x2="656.05" y2="67.02"/><line class="cls-1" x1="160.47" y1="580.88" x2="665.19" y2="76.16"/><line class="cls-1" x1="169.61" y1="590.02" x2="674.33" y2="85.3"/><line class="cls-1" x1="178.75" y1="599.16" x2="683.47" y2="94.44"/><line class="cls-1" x1="187.89" y1="608.3" x2="692.61" y2="103.58"/><line class="cls-1" x1="197.03" y1="617.44" x2="701.75" y2="112.72"/><line class="cls-1" x1="206.17" y1="626.58" x2="710.89" y2="121.86"/><line class="cls-1" x1="215.31" y1="635.72" x2="720.03" y2="131"/><line class="cls-1" x1="224.45" y1="644.85" x2="729.17" y2="140.14"/><line class="cls-1" x1="233.59" y1="653.99" x2="738.31" y2="149.27"/><line class="cls-1" x1="242.73" y1="663.13" x2="747.45" y2="158.41"/><line class="cls-1" x1="251.87" y1="672.27" x2="756.59" y2="167.55"/><line class="cls-1" x1="261.01" y1="681.41" x2="765.72" y2="176.69"/><line class="cls-1" x1="270.14" y1="690.55" x2="774.86" y2="185.83"/><line class="cls-1" x1="279.28" y1="699.69" x2="784" y2="194.97"/><line class="cls-1" x1="288.42" y1="708.83" x2="793.14" y2="204.11"/><line class="cls-1" x1="297.56" y1="717.97" x2="802.28" y2="213.25"/><line class="cls-1" x1="306.7" y1="727.11" x2="811.42" y2="222.39"/><line class="cls-1" x1="315.84" y1="736.25" x2="820.56" y2="231.53"/><line class="cls-1" x1="324.98" y1="745.39" x2="829.7" y2="240.67"/><line class="cls-1" x1="334.12" y1="754.53" x2="838.84" y2="249.81"/></g><path class="cls-1" d="M144.66,525.82h0a8.12,8.12,0,0,1,8.12,8.12v11.13a0,0,0,0,1,0,0H136.54a0,0,0,0,1,0,0V533.93a8.12,8.12,0,0,1,8.12-8.12Z"/><g class="cls-20"><line class="cls-1" x1="-63.85" y1="737.56" x2="440.87" y2="232.84"/><line class="cls-1" x1="-54.71" y1="746.69" x2="450.01" y2="241.98"/><line class="cls-1" x1="-45.58" y1="755.83" x2="459.14" y2="251.11"/><line class="cls-1" x1="-36.44" y1="764.97" x2="468.28" y2="260.25"/><line class="cls-1" x1="-27.3" y1="774.11" x2="477.42" y2="269.39"/><line class="cls-1" x1="-18.16" y1="783.25" x2="486.56" y2="278.53"/><line class="cls-1" x1="-9.02" y1="792.39" x2="495.7" y2="287.67"/><line class="cls-1" x1="0.12" y1="801.53" x2="504.84" y2="296.81"/><line class="cls-1" x1="9.26" y1="810.67" x2="513.98" y2="305.95"/><line class="cls-1" x1="18.4" y1="819.81" x2="523.12" y2="315.09"/><line class="cls-1" x1="27.54" y1="828.95" x2="532.26" y2="324.23"/><line class="cls-1" x1="36.68" y1="838.09" x2="541.4" y2="333.37"/><line class="cls-1" x1="45.82" y1="847.23" x2="550.54" y2="342.51"/><line class="cls-1" x1="54.96" y1="856.37" x2="559.68" y2="351.65"/><line class="cls-1" x1="64.1" y1="865.51" x2="568.82" y2="360.79"/><line class="cls-1" x1="73.24" y1="874.65" x2="577.96" y2="369.93"/><line class="cls-1" x1="82.38" y1="883.79" x2="587.1" y2="379.07"/><line class="cls-1" x1="91.52" y1="892.92" x2="596.23" y2="388.2"/><line class="cls-1" x1="100.65" y1="902.06" x2="605.37" y2="397.34"/><line class="cls-1" x1="109.79" y1="911.2" x2="614.51" y2="406.48"/><line class="cls-1" x1="118.93" y1="920.34" x2="623.65" y2="415.62"/><line class="cls-1" x1="128.07" y1="929.48" x2="632.79" y2="424.76"/><line class="cls-1" x1="137.21" y1="938.62" x2="641.93" y2="433.9"/><line class="cls-1" x1="146.35" y1="947.76" x2="651.07" y2="443.04"/><line class="cls-1" x1="155.49" y1="956.9" x2="660.21" y2="452.18"/><line class="cls-1" x1="164.63" y1="966.04" x2="669.35" y2="461.32"/><line class="cls-1" x1="173.77" y1="975.18" x2="678.49" y2="470.46"/><line class="cls-1" x1="182.91" y1="984.32" x2="687.63" y2="479.6"/><line class="cls-1" x1="192.05" y1="993.46" x2="696.77" y2="488.74"/><line class="cls-1" x1="201.19" y1="1002.6" x2="705.91" y2="497.88"/><line class="cls-1" x1="210.33" y1="1011.74" x2="715.05" y2="507.02"/><line class="cls-1" x1="219.47" y1="1020.88" x2="724.19" y2="516.16"/><line class="cls-1" x1="228.61" y1="1030.01" x2="733.33" y2="525.3"/><line class="cls-1" x1="237.75" y1="1039.15" x2="742.46" y2="534.43"/><line class="cls-1" x1="246.88" y1="1048.29" x2="751.6" y2="543.57"/><line class="cls-1" x1="256.02" y1="1057.43" x2="760.74" y2="552.71"/><line class="cls-1" x1="265.16" y1="1066.57" x2="769.88" y2="561.85"/><line class="cls-1" x1="274.3" y1="1075.71" x2="779.02" y2="570.99"/><line class="cls-1" x1="283.44" y1="1084.85" x2="788.16" y2="580.13"/><line class="cls-1" x1="292.58" y1="1093.99" x2="797.3" y2="589.27"/><line class="cls-1" x1="301.72" y1="1103.13" x2="806.44" y2="598.41"/><line class="cls-1" x1="310.86" y1="1112.27" x2="815.58" y2="607.55"/><line class="cls-1" x1="320" y1="1121.41" x2="824.72" y2="616.69"/><line class="cls-1" x1="329.14" y1="1130.55" x2="833.86" y2="625.83"/><line class="cls-1" x1="338.28" y1="1139.69" x2="843" y2="634.97"/><line class="cls-1" x1="347.42" y1="1148.83" x2="852.14" y2="644.11"/><line class="cls-1" x1="356.56" y1="1157.97" x2="861.28" y2="653.25"/></g><path class="cls-1" d="M99.32,476.08h0a8.12,8.12,0,0,1,8.12,8.12v60.86a0,0,0,0,1,0,0H91.2a0,0,0,0,1,0,0V484.2a8.12,8.12,0,0,1,8.12-8.12Z"/><g class="cls-21"><line class="cls-1" x1="-454.7" y1="751.95" x2="50.02" y2="247.23"/><line class="cls-1" x1="-445.56" y1="761.09" x2="59.16" y2="256.37"/><line class="cls-1" x1="-436.42" y1="770.23" x2="68.3" y2="265.51"/><line class="cls-1" x1="-427.28" y1="779.37" x2="77.44" y2="274.65"/><line class="cls-1" x1="-418.14" y1="788.51" x2="86.58" y2="283.79"/><line class="cls-1" x1="-409" y1="797.65" x2="95.72" y2="292.93"/><line class="cls-1" x1="-399.86" y1="806.79" x2="104.86" y2="302.07"/><line class="cls-1" x1="-390.72" y1="815.93" x2="114" y2="311.21"/><line class="cls-1" x1="-381.59" y1="825.06" x2="123.13" y2="320.35"/><line class="cls-1" x1="-372.45" y1="834.2" x2="132.27" y2="329.48"/><line class="cls-1" x1="-363.31" y1="843.34" x2="141.41" y2="338.62"/><line class="cls-1" x1="-354.17" y1="852.48" x2="150.55" y2="347.76"/><line class="cls-1" x1="-345.03" y1="861.62" x2="159.69" y2="356.9"/><line class="cls-1" x1="-335.89" y1="870.76" x2="168.83" y2="366.04"/><line class="cls-1" x1="-326.75" y1="879.9" x2="177.97" y2="375.18"/><line class="cls-1" x1="-317.61" y1="889.04" x2="187.11" y2="384.32"/><line class="cls-1" x1="-308.47" y1="898.18" x2="196.25" y2="393.46"/><line class="cls-1" x1="-299.33" y1="907.32" x2="205.39" y2="402.6"/><line class="cls-1" x1="-290.19" y1="916.46" x2="214.53" y2="411.74"/><line class="cls-1" x1="-281.05" y1="925.6" x2="223.67" y2="420.88"/><line class="cls-1" x1="-271.91" y1="934.74" x2="232.81" y2="430.02"/><line class="cls-1" x1="-262.77" y1="943.88" x2="241.95" y2="439.16"/><line class="cls-1" x1="-253.63" y1="953.02" x2="251.09" y2="448.3"/><line class="cls-1" x1="-244.49" y1="962.15" x2="260.22" y2="457.44"/><line class="cls-1" x1="-235.36" y1="971.29" x2="269.36" y2="466.57"/><line class="cls-1" x1="-226.22" y1="980.43" x2="278.5" y2="475.71"/><line class="cls-1" x1="-217.08" y1="989.57" x2="287.64" y2="484.85"/><line class="cls-1" x1="-207.94" y1="998.71" x2="296.78" y2="493.99"/><line class="cls-1" x1="-198.8" y1="1007.85" x2="305.92" y2="503.13"/><line class="cls-1" x1="-189.66" y1="1016.99" x2="315.06" y2="512.27"/><line class="cls-1" x1="-180.52" y1="1026.13" x2="324.2" y2="521.41"/><line class="cls-1" x1="-171.38" y1="1035.27" x2="333.34" y2="530.55"/><line class="cls-1" x1="-162.24" y1="1044.41" x2="342.48" y2="539.69"/><line class="cls-1" x1="-153.1" y1="1053.55" x2="351.62" y2="548.83"/><line class="cls-1" x1="-143.96" y1="1062.69" x2="360.76" y2="557.97"/><line class="cls-1" x1="-134.82" y1="1071.83" x2="369.9" y2="567.11"/><line class="cls-1" x1="-125.68" y1="1080.97" x2="379.04" y2="576.25"/><line class="cls-1" x1="-116.54" y1="1090.11" x2="388.18" y2="585.39"/><line class="cls-1" x1="-107.4" y1="1099.25" x2="397.32" y2="594.53"/><line class="cls-1" x1="-98.26" y1="1108.38" x2="406.45" y2="603.67"/><line class="cls-1" x1="-89.13" y1="1117.52" x2="415.59" y2="612.8"/><line class="cls-1" x1="-79.99" y1="1126.66" x2="424.73" y2="621.94"/><line class="cls-1" x1="-70.85" y1="1135.8" x2="433.87" y2="631.08"/><line class="cls-1" x1="-61.71" y1="1144.94" x2="443.01" y2="640.22"/><line class="cls-1" x1="-52.57" y1="1154.08" x2="452.15" y2="649.36"/><line class="cls-1" x1="-43.43" y1="1163.22" x2="461.29" y2="658.5"/><line class="cls-1" x1="-34.29" y1="1172.36" x2="470.43" y2="667.64"/></g><text class="cls-22" transform="translate(38.32 76.46)">250</text><text class="cls-22" transform="translate(38.32 170.18)">200</text><text class="cls-22" transform="translate(38.32 263.9)">150</text><text class="cls-22" transform="translate(38.32 357.62)">100</text><text class="cls-22" transform="translate(43.94 451.34)">50</text><text class="cls-22" transform="translate(49.55 545.06)">0</text><text class="cls-22" transform="translate(927.79 76.46)">25,0%</text><text class="cls-22" transform="translate(927.79 170.18)">20,0%</text><text class="cls-22" transform="translate(927.79 263.9)">15,0%</text><text class="cls-22" transform="translate(927.79 357.62)">10,0%</text><text class="cls-22" transform="translate(933.4 451.34)">5,0%</text><text class="cls-22" transform="translate(933.4 545.06)">0,0%</text><text class="cls-22" transform="translate(56.43 695.4)">A<tspan class="cls-23" x="13.05" y="0">r</tspan><tspan x="19.63" y="0">gentina</tspan></text><line class="cls-24" x1="99.32" y1="553.77" x2="99.32" y2="671.51"/><line class="cls-25" x1="99.32" y1="553.77" x2="99.32" y2="667.54"/><path class="cls-26" d="M95.63,667.34a3.69,3.69,0,1,0,3.69-3.69A3.69,3.69,0,0,0,95.63,667.34Z"/><path class="cls-24" d="M95.14,667.34a4.18,4.18,0,1,1,4.18,4.17,4.18,4.18,0,0,1-4.18-4.17Zm7.37,0a3.2,3.2,0,1,0-3.19,3.19,3.19,3.19,0,0,0,3.19-3.19Z"/><text class="cls-27" transform="translate(105.24 442.18)">5,2%</text><text class="cls-27" transform="translate(170.54 95.43)">22,8%</text><text class="cls-27" transform="translate(245.06 298.69)">12,0%</text><text class="cls-27" transform="translate(292.6 527.19)">0,7%</text><text class="cls-27" transform="translate(355.7 500.72)">3,3%</text><text class="cls-27" transform="translate(405.42 446.56)">3,7%</text><text class="cls-27" transform="translate(420.67 517.36)">1,9%</text><text class="cls-27" transform="translate(489.73 509.72)">0,9%</text><text class="cls-27" transform="translate(531.96 519.36)">0,1%</text><text class="cls-27" transform="translate(611.07 460.96)">4,7%</text><text class="cls-27" transform="translate(627.76 386.44)">7,6%</text><text class="cls-27" transform="translate(722.31 148.84)">20,0%</text><text class="cls-27" transform="translate(673.11 522.82)">2,5%</text><text class="cls-27" transform="translate(766.79 471.7)">5,2%</text><text class="cls-27" transform="translate(804.87 298.69)">11,2%</text><text class="cls-27" transform="translate(841.54 442.13)">6,2%</text><text class="cls-27" transform="translate(899.59 480.46)">4,8%</text><text class="cls-27" transform="translate(302.24 351.64)">9,3%</text><text class="cls-27" transform="translate(137.1 510.57)">3,2%</text><text class="cls-22" transform="translate(236.11 695.4)">Colmbia</text><line class="cls-24" x1="280.69" y1="553.77" x2="280.69" y2="671.51"/><line class="cls-25" x1="280.69" y1="553.77" x2="280.69" y2="667.54"/><path class="cls-26" d="M277,667.34a3.69,3.69,0,1,0,3.68-3.69A3.68,3.68,0,0,0,277,667.34Z"/><path class="cls-24" d="M276.52,667.34a4.18,4.18,0,1,1,4.17,4.17,4.18,4.18,0,0,1-4.17-4.17Zm7.37,0a3.2,3.2,0,1,0-3.2,3.19,3.2,3.2,0,0,0,3.2-3.19Z"/><text class="cls-22" transform="translate(366.4 695.4)">El Sal<tspan class="cls-28" x="48.77" y="0">v</tspan><tspan x="58.31" y="0">ador</tspan></text><line class="cls-24" x1="417.72" y1="553.77" x2="417.72" y2="671.51"/><line class="cls-25" x1="417.72" y1="553.77" x2="417.72" y2="667.54"/><path class="cls-26" d="M414,667.34a3.69,3.69,0,1,0,3.68-3.69A3.68,3.68,0,0,0,414,667.34Z"/><path class="cls-24" d="M413.55,667.34a4.18,4.18,0,1,1,4.17,4.17,4.18,4.18,0,0,1-4.17-4.17Zm7.37,0a3.2,3.2,0,1,0-3.2,3.19,3.2,3.2,0,0,0,3.2-3.19Z"/><text class="cls-22" transform="translate(869.38 713.06)"><tspan class="cls-29">V</tspan><tspan x="12.29" y="0">enezuela</tspan></text><line class="cls-24" x1="917.27" y1="553.77" x2="917.27" y2="689.16"/><line class="cls-25" x1="917.27" y1="553.77" x2="917.27" y2="685.2"/><path class="cls-26" d="M913.59,685a3.69,3.69,0,1,0,3.68-3.68A3.68,3.68,0,0,0,913.59,685Z"/><path class="cls-24" d="M913.1,685a4.18,4.18,0,1,1,4.17,4.17A4.17,4.17,0,0,1,913.1,685Zm7.37,0a3.2,3.2,0,1,0-3.2,3.19,3.2,3.2,0,0,0,3.2-3.19Z"/><text class="cls-22" transform="translate(564.75 695.4)">Mxico</text><line class="cls-24" x1="599.1" y1="553.77" x2="599.1" y2="671.51"/><line class="cls-25" x1="599.1" y1="553.77" x2="599.1" y2="667.54"/><path class="cls-26" d="M595.42,667.34a3.68,3.68,0,1,0,3.68-3.69A3.68,3.68,0,0,0,595.42,667.34Z"/><path class="cls-24" d="M594.93,667.34a4.17,4.17,0,1,1,4.17,4.17,4.18,4.18,0,0,1-4.17-4.17Zm7.36,0a3.19,3.19,0,1,0-3.19,3.19,3.19,3.19,0,0,0,3.19-3.19Z"/><text class="cls-22" transform="translate(758.04 695.4)"><tspan class="cls-30">P</tspan><tspan x="12.49" y="0">eru</tspan></text><line class="cls-24" x1="780.47" y1="553.77" x2="780.47" y2="671.51"/><line class="cls-25" x1="780.47" y1="553.77" x2="780.47" y2="667.54"/><path class="cls-26" d="M776.79,667.34a3.69,3.69,0,1,0,3.68-3.69A3.68,3.68,0,0,0,776.79,667.34Z"/><path class="cls-24" d="M776.3,667.34a4.18,4.18,0,1,1,4.17,4.17,4.18,4.18,0,0,1-4.17-4.17Zm7.37,0a3.2,3.2,0,1,0-3.2,3.19,3.2,3.2,0,0,0,3.2-3.19Z"/><text class="cls-22" transform="translate(278.23 787.27)">Costa Rica</text><line class="cls-24" x1="326.04" y1="553.77" x2="326.04" y2="763.38"/><line class="cls-25" x1="326.04" y1="553.77" x2="326.04" y2="759.41"/><circle class="cls-26" cx="326.04" cy="759.21" r="3.68"/><path class="cls-24" d="M321.86,759.21a4.18,4.18,0,1,1,4.18,4.17,4.18,4.18,0,0,1-4.18-4.17Zm7.37,0A3.2,3.2,0,1,0,326,762.4a3.19,3.19,0,0,0,3.19-3.19Z"/><text class="cls-22" transform="translate(598.02 787.27)">Nica<tspan class="cls-31" x="40.46" y="0">r</tspan><tspan x="46.84" y="0">gua</tspan></text><line class="cls-24" x1="643.44" y1="553.77" x2="643.44" y2="763.38"/><line class="cls-25" x1="643.44" y1="553.77" x2="643.44" y2="759.41"/><path class="cls-26" d="M639.76,759.21a3.69,3.69,0,1,0,3.68-3.69A3.68,3.68,0,0,0,639.76,759.21Z"/><path class="cls-24" d="M639.27,759.21a4.18,4.18,0,1,1,4.17,4.17,4.18,4.18,0,0,1-4.17-4.17Zm7.37,0a3.2,3.2,0,1,0-3.2,3.19,3.2,3.2,0,0,0,3.2-3.19Z"/><text class="cls-22" transform="translate(781.1 787.27)">Repblica<tspan x="-9.31" y="24">Dominicana</tspan></text><line class="cls-24" x1="824.82" y1="553.77" x2="824.82" y2="763.38"/><line class="cls-25" x1="824.82" y1="553.77" x2="824.82" y2="759.41"/><circle class="cls-26" cx="824.82" cy="759.21" r="3.68"/><path class="cls-24" d="M820.64,759.21a4.18,4.18,0,1,1,4.18,4.17,4.18,4.18,0,0,1-4.18-4.17Zm7.37,0a3.2,3.2,0,1,0-3.19,3.19,3.19,3.19,0,0,0,3.19-3.19Z"/><text class="cls-22" transform="translate(115.12 646.72)">Bolvia</text><line class="cls-24" x1="144.66" y1="553.77" x2="144.66" y2="622.83"/><line class="cls-25" x1="144.66" y1="553.77" x2="144.66" y2="618.87"/><circle class="cls-26" cx="144.66" cy="618.66" r="3.68"/><path class="cls-24" d="M140.49,618.66a4.18,4.18,0,1,1,4.17,4.17,4.18,4.18,0,0,1-4.17-4.17Zm7.37,0a3.2,3.2,0,1,0-3.2,3.19,3.21,3.21,0,0,0,3.2-3.19Z"/><text class="cls-22" transform="translate(213.18 659.49)">Chile</text><line class="cls-24" x1="235.35" y1="553.77" x2="235.35" y2="635.6"/><line class="cls-25" x1="235.35" y1="553.77" x2="235.35" y2="631.63"/><circle class="cls-26" cx="235.35" cy="631.42" r="3.68"/><path class="cls-24" d="M231.17,631.42a4.18,4.18,0,1,1,4.18,4.18,4.18,4.18,0,0,1-4.18-4.18Zm7.37,0a3.2,3.2,0,1,0-3.19,3.2,3.19,3.19,0,0,0,3.19-3.2Z"/><text class="cls-22" transform="translate(459.01 659.49)">Guatemala</text><line class="cls-24" x1="507.41" y1="553.77" x2="507.41" y2="635.6"/><line class="cls-25" x1="507.41" y1="553.77" x2="507.41" y2="631.63"/><circle class="cls-26" cx="507.41" cy="631.42" r="3.68"/><path class="cls-24" d="M503.24,631.42a4.18,4.18,0,1,1,4.17,4.18,4.17,4.17,0,0,1-4.17-4.18Zm7.37,0a3.2,3.2,0,1,0-3.2,3.2,3.2,3.2,0,0,0,3.2-3.2Z"/><text class="cls-22" transform="translate(651.93 659.49)"><tspan class="cls-32">P</tspan><tspan x="12.51" y="0">anam</tspan></text><line class="cls-24" x1="688.79" y1="553.77" x2="688.79" y2="635.6"/><line class="cls-25" x1="688.79" y1="553.77" x2="688.79" y2="631.63"/><circle class="cls-26" cx="688.79" cy="631.42" r="3.68"/><path class="cls-24" d="M684.61,631.42a4.18,4.18,0,1,1,4.18,4.18,4.18,4.18,0,0,1-4.18-4.18Zm7.37,0a3.2,3.2,0,1,0-3.19,3.2,3.19,3.19,0,0,0,3.19-3.2Z"/><text class="cls-22" transform="translate(835.79 659.49)">Uruguai</text><line class="cls-24" x1="870.16" y1="553.77" x2="870.16" y2="635.6"/><line class="cls-25" x1="870.16" y1="553.77" x2="870.16" y2="631.63"/><circle class="cls-26" cx="870.16" cy="631.42" r="3.68"/><path class="cls-24" d="M866,631.42a4.18,4.18,0,1,1,4.17,4.18,4.17,4.17,0,0,1-4.17-4.18Zm7.37,0a3.2,3.2,0,1,0-3.2,3.2,3.2,3.2,0,0,0,3.2-3.2Z"/><text class="cls-22" transform="translate(348.31 659.49)">Cuba</text><line class="cls-24" x1="371.38" y1="553.77" x2="371.38" y2="635.6"/><line class="cls-25" x1="371.38" y1="553.77" x2="371.38" y2="631.63"/><circle class="cls-26" cx="371.38" cy="631.42" r="3.68"/><path class="cls-24" d="M367.2,631.42a4.18,4.18,0,1,1,4.18,4.18,4.18,4.18,0,0,1-4.18-4.18Zm7.37,0a3.2,3.2,0,1,0-3.19,3.2,3.19,3.19,0,0,0,3.19-3.2Z"/><text class="cls-22" transform="translate(165.62 615.77)">B<tspan class="cls-31" x="12.45" y="0">r</tspan><tspan x="18.83" y="0">asil</tspan></text><line class="cls-24" x1="190.49" y1="553.77" x2="190.49" y2="591.88"/><line class="cls-25" x1="190.49" y1="553.77" x2="190.49" y2="587.92"/><path class="cls-26" d="M186.8,587.71a3.69,3.69,0,1,0,3.69-3.69A3.69,3.69,0,0,0,186.8,587.71Z"/><path class="cls-24" d="M186.31,587.71a4.18,4.18,0,1,1,4.18,4.17,4.18,4.18,0,0,1-4.18-4.17Zm7.37,0a3.2,3.2,0,1,0-3.19,3.19,3.2,3.2,0,0,0,3.19-3.19Z"/><text class="cls-22" transform="translate(532.07 615.77)">Haiti</text><line class="cls-24" x1="552.76" y1="553.77" x2="552.76" y2="591.88"/><line class="cls-25" x1="552.76" y1="553.77" x2="552.76" y2="587.92"/><path class="cls-26" d="M549.07,587.71a3.69,3.69,0,1,0,3.69-3.69A3.69,3.69,0,0,0,549.07,587.71Z"/><path class="cls-24" d="M548.58,587.71a4.18,4.18,0,1,1,4.18,4.17,4.19,4.19,0,0,1-4.18-4.17Zm7.37,0a3.2,3.2,0,1,0-3.19,3.19,3.2,3.2,0,0,0,3.19-3.19Z"/><text class="cls-22" transform="translate(697.25 615.77)"><tspan class="cls-32">P</tspan><tspan x="12.51" y="0">a</tspan><tspan class="cls-31" x="23.39" y="0">r</tspan><tspan x="29.77" y="0">agu</tspan></text><line class="cls-24" x1="734.13" y1="553.77" x2="734.13" y2="591.88"/><line class="cls-25" x1="734.13" y1="553.77" x2="734.13" y2="587.92"/><path class="cls-26" d="M730.45,587.71a3.69,3.69,0,1,0,3.68-3.69A3.68,3.68,0,0,0,730.45,587.71Z"/><path class="cls-24" d="M730,587.71a4.18,4.18,0,1,1,4.17,4.17,4.18,4.18,0,0,1-4.17-4.17Zm7.37,0a3.2,3.2,0,1,0-3.2,3.19,3.21,3.21,0,0,0,3.2-3.19Z"/><text class="cls-22" transform="translate(425.11 615.77)"><tspan class="cls-23">E</tspan><tspan x="11.18" y="0">quador</tspan></text><line class="cls-24" x1="462.07" y1="553.77" x2="462.07" y2="591.88"/><line class="cls-25" x1="462.07" y1="553.77" x2="462.07" y2="587.92"/><path class="cls-26" d="M458.38,587.71a3.69,3.69,0,1,0,3.69-3.69A3.69,3.69,0,0,0,458.38,587.71Z"/><path class="cls-24" d="M457.89,587.71a4.18,4.18,0,1,1,4.18,4.17,4.19,4.19,0,0,1-4.18-4.17Zm7.37,0a3.2,3.2,0,1,0-3.19,3.19,3.2,3.2,0,0,0,3.19-3.19Z"/><polyline class="cls-33" points="99.32 445.31 144.66 489.71 190.49 109.96 280.69 534.71 317.92 367 371.38 476.08 416.72 460.96 462.07 509.72 507.41 531.56 552.76 544.71 599.1 451.34 643.44 401.23 688.79 500.72 742.25 162.88 780.48 446.56 824.82 316.24 870.16 421.88 915.27 456.64"/><circle class="cls-34" cx="99.32" cy="446.51" r="4.38"/><circle class="cls-34" cx="144.66" cy="488.34" r="4.38"/><circle class="cls-34" cx="190.49" cy="107.92" r="4.38"/><circle class="cls-34" cx="280.69" cy="535.52" r="4.38"/><circle class="cls-34" cx="229.97" cy="294.32" r="4.38"/><circle class="cls-34" cx="317.92" cy="367" r="4.38"/><circle class="cls-34" cx="371.38" cy="476.08" r="4.38"/><circle class="cls-34" cx="416.72" cy="460.96" r="4.38"/><circle class="cls-34" cx="462.07" cy="509.72" r="4.38"/><circle class="cls-34" cx="507.29" cy="531.56" r="4.38"/><circle class="cls-34" cx="598.98" cy="451.34" r="4.38"/><circle class="cls-34" cx="643.44" cy="401.23" r="4.38"/><circle class="cls-34" cx="688.79" cy="500.72" r="4.38"/><circle class="cls-34" cx="742.25" cy="160.89" r="4.38"/><circle class="cls-34" cx="780.47" cy="446.56" r="4.38"/><circle class="cls-34" cx="824.82" cy="314.9" r="4.38"/><circle class="cls-34" cx="870.16" cy="421.88" r="4.38"/><circle class="cls-34" cx="915.27" cy="456.58" r="4.38"/><text class="cls-35" transform="translate(18.48 37.47)"><tspan class="cls-30">P</tspan><tspan x="12.66" y="0">opulao</tspan></text><g class="cls-36"><line class="cls-25" x1="-503.64" y1="1163.29" x2="1.08" y2="658.57"/><line class="cls-25" x1="-494.5" y1="1172.43" x2="10.22" y2="667.71"/><line class="cls-25" x1="-485.36" y1="1181.56" x2="19.36" y2="676.85"/></g><path class="cls-2" d="M-386.11,359.92h12.61a0,0,0,0,1,0,0V745.76a6.24,6.24,0,0,1-6.24,6.24h-.13a6.24,6.24,0,0,1-6.24-6.24V359.92a0,0,0,0,1,0,0Z"/><g class="cls-37"><line class="cls-25" x1="-497.07" y1="1069.17" x2="7.65" y2="564.45"/><line class="cls-25" x1="-487.93" y1="1078.31" x2="16.79" y2="573.59"/><line class="cls-25" x1="-478.79" y1="1087.45" x2="25.93" y2="582.73"/><line class="cls-25" x1="-469.65" y1="1096.59" x2="35.07" y2="591.87"/><line class="cls-25" x1="-460.51" y1="1105.73" x2="44.21" y2="601.01"/><line class="cls-25" x1="-451.37" y1="1114.87" x2="53.35" y2="610.15"/><line class="cls-25" x1="-442.23" y1="1124.01" x2="62.49" y2="619.29"/><line class="cls-25" x1="-433.09" y1="1133.15" x2="71.63" y2="628.43"/><line class="cls-25" x1="-423.95" y1="1142.29" x2="80.77" y2="637.57"/><line class="cls-25" x1="-414.81" y1="1151.43" x2="89.91" y2="646.71"/><line class="cls-25" x1="-405.67" y1="1160.56" x2="99.05" y2="655.85"/></g><path class="cls-2" d="M-328.43,359.92h12.61a0,0,0,0,1,0,0v68.84a6.24,6.24,0,0,1-6.24,6.24h-.13a6.24,6.24,0,0,1-6.24-6.24V359.92A0,0,0,0,1-328.43,359.92Z"/><g class="cls-38"><line class="cls-25" x1="-504.94" y1="938.62" x2="-0.22" y2="433.9"/><line class="cls-25" x1="-495.8" y1="947.76" x2="8.92" y2="443.04"/><line class="cls-25" x1="-486.66" y1="956.9" x2="18.06" y2="452.18"/><line class="cls-25" x1="-477.52" y1="966.04" x2="27.2" y2="461.32"/><line class="cls-25" x1="-468.38" y1="975.18" x2="36.34" y2="470.46"/><line class="cls-25" x1="-459.25" y1="984.32" x2="45.47" y2="479.6"/><line class="cls-25" x1="-450.11" y1="993.46" x2="54.61" y2="488.74"/><line class="cls-25" x1="-440.97" y1="1002.6" x2="63.75" y2="497.88"/><line class="cls-25" x1="-431.83" y1="1011.74" x2="72.89" y2="507.02"/><line class="cls-25" x1="-422.69" y1="1020.88" x2="82.03" y2="516.16"/><line class="cls-25" x1="-413.55" y1="1030.01" x2="91.17" y2="525.3"/><line class="cls-25" x1="-404.41" y1="1039.15" x2="100.31" y2="534.43"/><line class="cls-25" x1="-395.27" y1="1048.29" x2="109.45" y2="543.57"/><line class="cls-25" x1="-386.13" y1="1057.43" x2="118.59" y2="552.71"/><line class="cls-25" x1="-376.99" y1="1066.57" x2="127.73" y2="561.85"/><line class="cls-25" x1="-367.85" y1="1075.71" x2="136.87" y2="570.99"/><line class="cls-25" x1="-358.71" y1="1084.85" x2="146.01" y2="580.13"/><line class="cls-25" x1="-349.57" y1="1093.99" x2="155.15" y2="589.27"/><line class="cls-25" x1="-340.43" y1="1103.13" x2="164.29" y2="598.41"/><line class="cls-25" x1="-331.29" y1="1112.27" x2="173.43" y2="607.55"/><line class="cls-25" x1="-322.15" y1="1121.41" x2="182.57" y2="616.69"/><line class="cls-25" x1="-313.02" y1="1130.55" x2="191.7" y2="625.83"/><line class="cls-25" x1="-303.88" y1="1139.69" x2="200.84" y2="634.97"/><line class="cls-25" x1="-294.74" y1="1148.83" x2="209.98" y2="644.11"/><line class="cls-25" x1="-285.6" y1="1157.97" x2="219.12" y2="653.25"/></g><path class="cls-2" d="M-213.07,359.92h12.61a0,0,0,0,1,0,0V691.76a6.24,6.24,0,0,1-6.24,6.24h-.13a6.24,6.24,0,0,1-6.24-6.24V359.92a0,0,0,0,1,0,0Z"/><g class="cls-39"><line class="cls-25" x1="-501.36" y1="894.25" x2="3.36" y2="389.53"/><line class="cls-25" x1="-492.22" y1="903.39" x2="12.5" y2="398.67"/><line class="cls-25" x1="-483.09" y1="912.53" x2="21.63" y2="407.81"/><line class="cls-25" x1="-473.95" y1="921.67" x2="30.77" y2="416.95"/><line class="cls-25" x1="-464.81" y1="930.81" x2="39.91" y2="426.09"/><line class="cls-25" x1="-455.67" y1="939.94" x2="49.05" y2="435.22"/><line class="cls-25" x1="-446.53" y1="949.08" x2="58.19" y2="444.36"/><line class="cls-25" x1="-437.39" y1="958.22" x2="67.33" y2="453.5"/><line class="cls-25" x1="-428.25" y1="967.36" x2="76.47" y2="462.64"/><line class="cls-25" x1="-419.11" y1="976.5" x2="85.61" y2="471.78"/><line class="cls-25" x1="-409.97" y1="985.64" x2="94.75" y2="480.92"/><line class="cls-25" x1="-400.83" y1="994.78" x2="103.89" y2="490.06"/><line class="cls-25" x1="-391.69" y1="1003.92" x2="113.03" y2="499.2"/><line class="cls-25" x1="-382.55" y1="1013.06" x2="122.17" y2="508.34"/><line class="cls-25" x1="-373.41" y1="1022.2" x2="131.31" y2="517.48"/><line class="cls-25" x1="-364.27" y1="1031.34" x2="140.45" y2="526.62"/><line class="cls-25" x1="-355.13" y1="1040.48" x2="149.59" y2="535.76"/><line class="cls-25" x1="-345.99" y1="1049.62" x2="158.72" y2="544.9"/><line class="cls-25" x1="-336.86" y1="1058.76" x2="167.86" y2="554.04"/><line class="cls-25" x1="-327.72" y1="1067.9" x2="177" y2="563.18"/><line class="cls-25" x1="-318.58" y1="1077.03" x2="186.14" y2="572.32"/><line class="cls-25" x1="-309.44" y1="1086.17" x2="195.28" y2="581.45"/><line class="cls-25" x1="-300.3" y1="1095.31" x2="204.42" y2="590.59"/></g><path class="cls-2" d="M-155.4,359.92h12.61a0,0,0,0,1,0,0V501.76A6.24,6.24,0,0,1-149,508h-.13a6.24,6.24,0,0,1-6.24-6.24V359.92A0,0,0,0,1-155.4,359.92Z"/><g class="cls-40"><line class="cls-25" x1="-501.99" y1="935.67" x2="2.73" y2="430.95"/><line class="cls-25" x1="-492.85" y1="944.81" x2="11.87" y2="440.09"/><line class="cls-25" x1="-483.71" y1="953.95" x2="21.01" y2="449.23"/><line class="cls-25" x1="-474.57" y1="963.09" x2="30.15" y2="458.37"/><line class="cls-25" x1="-465.43" y1="972.23" x2="39.29" y2="467.51"/><line class="cls-25" x1="-456.29" y1="981.37" x2="48.43" y2="476.65"/><line class="cls-25" x1="-447.15" y1="990.51" x2="57.56" y2="485.79"/><line class="cls-25" x1="-438.02" y1="999.65" x2="66.7" y2="494.93"/><line class="cls-25" x1="-428.88" y1="1008.79" x2="75.84" y2="504.07"/><line class="cls-25" x1="-419.74" y1="1017.92" x2="84.98" y2="513.2"/><line class="cls-25" x1="-410.6" y1="1027.06" x2="94.12" y2="522.34"/><line class="cls-25" x1="-401.46" y1="1036.2" x2="103.26" y2="531.48"/><line class="cls-25" x1="-392.32" y1="1045.34" x2="112.4" y2="540.62"/><line class="cls-25" x1="-383.18" y1="1054.48" x2="121.54" y2="549.76"/><line class="cls-25" x1="-374.04" y1="1063.62" x2="130.68" y2="558.9"/><line class="cls-25" x1="-364.9" y1="1072.76" x2="139.82" y2="568.04"/><line class="cls-25" x1="-355.76" y1="1081.9" x2="148.96" y2="577.18"/><line class="cls-25" x1="-346.62" y1="1091.04" x2="158.1" y2="586.32"/><line class="cls-25" x1="-337.48" y1="1100.18" x2="167.24" y2="595.46"/><line class="cls-25" x1="-328.34" y1="1109.32" x2="176.38" y2="604.6"/><line class="cls-25" x1="-319.2" y1="1118.46" x2="185.52" y2="613.74"/><line class="cls-25" x1="-310.06" y1="1127.6" x2="194.66" y2="622.88"/><line class="cls-25" x1="-300.92" y1="1136.74" x2="203.79" y2="632.02"/><line class="cls-25" x1="-291.79" y1="1145.88" x2="212.93" y2="641.16"/><line class="cls-25" x1="-282.65" y1="1155.01" x2="222.07" y2="650.3"/><line class="cls-25" x1="-273.51" y1="1164.15" x2="231.21" y2="659.43"/><line class="cls-25" x1="-264.37" y1="1173.29" x2="240.35" y2="668.57"/><line class="cls-25" x1="-255.23" y1="1182.43" x2="249.49" y2="677.71"/></g><path class="cls-2" d="M-97.72,358.92h12.61a0,0,0,0,1,0,0V766.76A6.24,6.24,0,0,1-91.35,773h-.13a6.24,6.24,0,0,1-6.24-6.24V358.92A0,0,0,0,1-97.72,358.92Z"/><g class="cls-41"><line class="cls-25" x1="-499.53" y1="983.69" x2="5.19" y2="478.97"/><line class="cls-25" x1="-490.39" y1="992.83" x2="14.33" y2="488.11"/><line class="cls-25" x1="-481.25" y1="1001.97" x2="23.47" y2="497.25"/><line class="cls-25" x1="-472.11" y1="1011.11" x2="32.61" y2="506.39"/><line class="cls-25" x1="-462.97" y1="1020.25" x2="41.75" y2="515.53"/><line class="cls-25" x1="-453.83" y1="1029.39" x2="50.89" y2="524.67"/><line class="cls-25" x1="-444.69" y1="1038.53" x2="60.03" y2="533.81"/><line class="cls-25" x1="-435.55" y1="1047.67" x2="69.17" y2="542.95"/><line class="cls-25" x1="-426.41" y1="1056.81" x2="78.31" y2="552.09"/><line class="cls-25" x1="-417.27" y1="1065.95" x2="87.45" y2="561.23"/><line class="cls-25" x1="-408.13" y1="1075.09" x2="96.59" y2="570.37"/><line class="cls-25" x1="-398.99" y1="1084.23" x2="105.73" y2="579.51"/><line class="cls-25" x1="-389.85" y1="1093.37" x2="114.87" y2="588.65"/><line class="cls-25" x1="-380.71" y1="1102.51" x2="124" y2="597.79"/><line class="cls-25" x1="-371.58" y1="1111.64" x2="133.14" y2="606.93"/><line class="cls-25" x1="-362.44" y1="1120.78" x2="142.28" y2="616.06"/><line class="cls-25" x1="-353.3" y1="1129.92" x2="151.42" y2="625.2"/><line class="cls-25" x1="-344.16" y1="1139.06" x2="160.56" y2="634.34"/><line class="cls-25" x1="-335.02" y1="1148.2" x2="169.7" y2="643.48"/><line class="cls-25" x1="-325.88" y1="1157.34" x2="178.84" y2="652.62"/><line class="cls-25" x1="-316.74" y1="1166.48" x2="187.98" y2="661.76"/><line class="cls-25" x1="-307.6" y1="1175.62" x2="197.12" y2="670.9"/></g><path class="cls-2" d="M-270.75,359.92h12.61a0,0,0,0,1,0,0V543.76a6.24,6.24,0,0,1-6.24,6.24h-.13a6.24,6.24,0,0,1-6.24-6.24V359.92a0,0,0,0,1,0,0Z"/><circle class="cls-34" cx="552.64" cy="544.71" r="4.38"/></g></svg>