<svg xmlns="http://www.w3.org/2000/svg" xmlns:xlink="http://www.w3.org/1999/xlink" viewBox="0 0 1000 927.96"><defs><style>.cls-1{fill:#08b260;}.cls-2{fill:#e10a52;}.cls-3{clip-path:url(#clip-path);}.cls-4{clip-path:url(#clip-path-2);}.cls-5{clip-path:url(#clip-path-3);}.cls-6{clip-path:url(#clip-path-4);}.cls-7{clip-path:url(#clip-path-5);}.cls-8{clip-path:url(#clip-path-6);}.cls-9{clip-path:url(#clip-path-7);}.cls-10{clip-path:url(#clip-path-8);}.cls-11{clip-path:url(#clip-path-9);}.cls-12{clip-path:url(#clip-path-10);}.cls-13{clip-path:url(#clip-path-11);}.cls-14{clip-path:url(#clip-path-12);}.cls-15{clip-path:url(#clip-path-13);}.cls-16{fill:#ff930b;}.cls-17{font-size:20px;font-family:Roboto-Regular, Roboto;}.cls-18{letter-spacing:0.02em;}.cls-19{letter-spacing:-0.01em;}.cls-20{font-family:Roboto-Medium, Roboto;font-weight:500;}.cls-21{clip-path:url(#clip-path-14);}.cls-22{clip-path:url(#clip-path-15);}.cls-23{clip-path:url(#clip-path-16);}.cls-24{fill:#ff4b0b;}.cls-25{fill:none;stroke:#230b05;stroke-miterlimit:10;stroke-width:2px;}.cls-26{fill:#230b05;}.cls-27{fill:#fff;}</style><clipPath id="clip-path"><path class="cls-1" d="M-240.52,489.71h0a8.12,8.12,0,0,1,8.12,8.12v47.24a0,0,0,0,1,0,0h-16.24a0,0,0,0,1,0,0V497.82A8.12,8.12,0,0,1-240.52,489.71Z"/></clipPath><clipPath id="clip-path-2"><path class="cls-1" d="M-195.18,526h0a8.12,8.12,0,0,1,8.12,8.12v11a0,0,0,0,1,0,0H-203.3a0,0,0,0,1,0,0v-11A8.12,8.12,0,0,1-195.18,526Z"/></clipPath><clipPath id="clip-path-3"><path class="cls-1" d="M-149.84,532.21h0a8.12,8.12,0,0,1,8.12,8.12v4.73a0,0,0,0,1,0,0H-158a0,0,0,0,1,0,0v-4.73A8.12,8.12,0,0,1-149.84,532.21Z"/></clipPath><clipPath id="clip-path-4"><path class="cls-1" d="M-96.85,545.06h-16.23l.47-47.24a8.11,8.11,0,0,1,8.12-8.11h0a8.12,8.12,0,0,1,8.12,8.11Z"/></clipPath><clipPath id="clip-path-5"><path class="cls-1" d="M-285.87,527.41h0a8.12,8.12,0,0,1,8.12,8.12v9.18a0,0,0,0,1,0,0H-294a0,0,0,0,1,0,0v-9.18A8.12,8.12,0,0,1-285.87,527.41Z"/></clipPath><clipPath id="clip-path-6"><path class="cls-1" d="M-331.21,532.21h0a8.12,8.12,0,0,1,8.12,8.12v4.73a0,0,0,0,1,0,0h-16.24a0,0,0,0,1,0,0v-4.73A8.12,8.12,0,0,1-331.21,532.21Z"/></clipPath><clipPath id="clip-path-7"><path class="cls-1" d="M-376.56,529.41h0a8.12,8.12,0,0,1,8.12,8.12v7.18a0,0,0,0,1,0,0h-16.24a0,0,0,0,1,0,0v-7.18A8.12,8.12,0,0,1-376.56,529.41Z"/></clipPath><clipPath id="clip-path-8"><path class="cls-1" d="M-421.9,298.69h0a8.12,8.12,0,0,1,8.12,8.12V545.06a0,0,0,0,1,0,0H-430a0,0,0,0,1,0,0V306.81a8.12,8.12,0,0,1,8.12-8.12Z"/></clipPath><clipPath id="clip-path-9"><path class="cls-1" d="M-467.24,524.82h0a8.12,8.12,0,0,1,8.12,8.12v12.18a0,0,0,0,1,0,0h-16.24a0,0,0,0,1,0,0V532.93a8.12,8.12,0,0,1,8.12-8.12Z"/></clipPath><clipPath id="clip-path-10"><path class="cls-1" d="M-512.59,518.06h0a8.12,8.12,0,0,1,8.12,8.12v18.88a0,0,0,0,1,0,0h-16.24a0,0,0,0,1,0,0V526.18A8.12,8.12,0,0,1-512.59,518.06Z"/></clipPath><clipPath id="clip-path-11"><path class="cls-1" d="M-557.93,519.36h0a8.12,8.12,0,0,1,8.12,8.12v17.58a0,0,0,0,1,0,0H-566a0,0,0,0,1,0,0V527.48A8.12,8.12,0,0,1-557.93,519.36Z"/></clipPath><clipPath id="clip-path-12"><path class="cls-1" d="M-603.27,529.36h0a8.12,8.12,0,0,1,8.12,8.12v7.58a0,0,0,0,1,0,0h-16.24a0,0,0,0,1,0,0v-7.58A8.12,8.12,0,0,1-603.27,529.36Z"/></clipPath><clipPath id="clip-path-13"><path class="cls-1" d="M-648.62,522.82h0a8.12,8.12,0,0,1,8.12,8.12v14.13a0,0,0,0,1,0,0h-16.24a0,0,0,0,1,0,0V530.93A8.12,8.12,0,0,1-648.62,522.82Z"/></clipPath><clipPath id="clip-path-14"><path class="cls-2" d="M1307.4,550.68h-19.75L1284.58,357c0-4.48,4.42-8.12,9.88-8.12h0c5.45,0,9.87,3.64,9.87,8.12Z"/></clipPath><clipPath id="clip-path-15"><path class="cls-2" d="M1248,550.68h-19.75l.58-305.53c0-4.48,4.42-8.12,9.88-8.12h0c5.45,0,9.87,3.64,9.87,8.12Z"/></clipPath><clipPath id="clip-path-16"><path class="cls-2" d="M1192.27,550.68h-19.75L1173.69,153c0-4.48,4.42-8.12,9.87-8.12h0c5.46,0,9.88,3.64,9.88,8.12Z"/></clipPath></defs><title>Imagem_015</title><g id="Layer_3" data-name="Layer 3"><path class="cls-1" d="M-240.52,489.71h0a8.12,8.12,0,0,1,8.12,8.12v47.24a0,0,0,0,1,0,0h-16.24a0,0,0,0,1,0,0V497.82A8.12,8.12,0,0,1-240.52,489.71Z"/><g class="cls-3"><line class="cls-1" x1="-504.1" y1="788.51" x2="0.62" y2="283.79"/><line class="cls-1" x1="-494.96" y1="797.65" x2="9.76" y2="292.93"/><line class="cls-1" x1="-485.82" y1="806.79" x2="18.89" y2="302.07"/><line class="cls-1" x1="-476.69" y1="815.93" x2="28.03" y2="311.21"/><line class="cls-1" x1="-467.55" y1="825.06" x2="37.17" y2="320.35"/><line class="cls-1" x1="-458.41" y1="834.2" x2="46.31" y2="329.48"/><line class="cls-1" x1="-449.27" y1="843.34" x2="55.45" y2="338.62"/><line class="cls-1" x1="-440.13" y1="852.48" x2="64.59" y2="347.76"/><line class="cls-1" x1="-430.99" y1="861.62" x2="73.73" y2="356.9"/><line class="cls-1" x1="-421.85" y1="870.76" x2="82.87" y2="366.04"/><line class="cls-1" x1="-412.71" y1="879.9" x2="92.01" y2="375.18"/><line class="cls-1" x1="-403.57" y1="889.04" x2="101.15" y2="384.32"/><line class="cls-1" x1="-394.43" y1="898.18" x2="110.29" y2="393.46"/><line class="cls-1" x1="-385.29" y1="907.32" x2="119.43" y2="402.6"/><line class="cls-1" x1="-376.15" y1="916.46" x2="128.57" y2="411.74"/><line class="cls-1" x1="-367.01" y1="925.6" x2="137.71" y2="420.88"/><line class="cls-1" x1="-357.87" y1="934.74" x2="146.85" y2="430.02"/><line class="cls-1" x1="-348.73" y1="943.88" x2="155.99" y2="439.16"/><line class="cls-1" x1="-339.6" y1="953.02" x2="165.12" y2="448.3"/><line class="cls-1" x1="-330.46" y1="962.15" x2="174.26" y2="457.44"/><line class="cls-1" x1="-321.32" y1="971.29" x2="183.4" y2="466.57"/><line class="cls-1" x1="-312.18" y1="980.43" x2="192.54" y2="475.71"/><line class="cls-1" x1="-303.04" y1="989.57" x2="201.68" y2="484.85"/><line class="cls-1" x1="-293.9" y1="998.71" x2="210.82" y2="493.99"/><line class="cls-1" x1="-284.76" y1="1007.85" x2="219.96" y2="503.13"/><line class="cls-1" x1="-275.62" y1="1016.99" x2="229.1" y2="512.27"/><line class="cls-1" x1="-266.48" y1="1026.13" x2="238.24" y2="521.41"/><line class="cls-1" x1="-257.34" y1="1035.27" x2="247.38" y2="530.55"/><line class="cls-1" x1="-248.2" y1="1044.41" x2="256.52" y2="539.69"/><line class="cls-1" x1="-239.06" y1="1053.55" x2="265.66" y2="548.83"/><line class="cls-1" x1="-229.92" y1="1062.69" x2="274.8" y2="557.97"/><line class="cls-1" x1="-220.78" y1="1071.83" x2="283.94" y2="567.11"/><line class="cls-1" x1="-211.64" y1="1080.97" x2="293.08" y2="576.25"/><line class="cls-1" x1="-202.5" y1="1090.11" x2="302.21" y2="585.39"/><line class="cls-1" x1="-193.37" y1="1099.25" x2="311.35" y2="594.53"/><line class="cls-1" x1="-184.23" y1="1108.38" x2="320.49" y2="603.66"/><line class="cls-1" x1="-175.09" y1="1117.52" x2="329.63" y2="612.8"/><line class="cls-1" x1="-165.95" y1="1126.66" x2="338.77" y2="621.94"/><line class="cls-1" x1="-156.81" y1="1135.8" x2="347.91" y2="631.08"/><line class="cls-1" x1="-147.67" y1="1144.94" x2="357.05" y2="640.22"/><line class="cls-1" x1="-138.53" y1="1154.08" x2="366.19" y2="649.36"/><line class="cls-1" x1="-129.39" y1="1163.22" x2="375.33" y2="658.5"/><line class="cls-1" x1="-120.25" y1="1172.36" x2="384.47" y2="667.64"/></g><path class="cls-1" d="M-195.18,526h0a8.12,8.12,0,0,1,8.12,8.12v11a0,0,0,0,1,0,0H-203.3a0,0,0,0,1,0,0v-11A8.12,8.12,0,0,1-195.18,526Z"/><g class="cls-4"><line class="cls-1" x1="-467.55" y1="720.18" x2="37.17" y2="215.46"/><line class="cls-1" x1="-458.41" y1="729.32" x2="46.31" y2="224.6"/><line class="cls-1" x1="-449.27" y1="738.46" x2="55.45" y2="233.74"/><line class="cls-1" x1="-440.13" y1="747.6" x2="64.59" y2="242.88"/><line class="cls-1" x1="-430.99" y1="756.74" x2="73.73" y2="252.02"/><line class="cls-1" x1="-421.85" y1="765.88" x2="82.87" y2="261.16"/><line class="cls-1" x1="-412.71" y1="775.02" x2="92.01" y2="270.3"/><line class="cls-1" x1="-403.57" y1="784.15" x2="101.15" y2="279.44"/><line class="cls-1" x1="-394.43" y1="793.29" x2="110.29" y2="288.57"/><line class="cls-1" x1="-385.29" y1="802.43" x2="119.43" y2="297.71"/><line class="cls-1" x1="-376.15" y1="811.57" x2="128.57" y2="306.85"/><line class="cls-1" x1="-367.01" y1="820.71" x2="137.71" y2="315.99"/><line class="cls-1" x1="-357.87" y1="829.85" x2="146.85" y2="325.13"/><line class="cls-1" x1="-348.73" y1="838.99" x2="155.99" y2="334.27"/><line class="cls-1" x1="-339.6" y1="848.13" x2="165.12" y2="343.41"/><line class="cls-1" x1="-330.46" y1="857.27" x2="174.26" y2="352.55"/><line class="cls-1" x1="-321.32" y1="866.41" x2="183.4" y2="361.69"/><line class="cls-1" x1="-312.18" y1="875.55" x2="192.54" y2="370.83"/><line class="cls-1" x1="-303.04" y1="884.69" x2="201.68" y2="379.97"/><line class="cls-1" x1="-293.9" y1="893.83" x2="210.82" y2="389.11"/><line class="cls-1" x1="-284.76" y1="902.97" x2="219.96" y2="398.25"/><line class="cls-1" x1="-275.62" y1="912.11" x2="229.1" y2="407.39"/><line class="cls-1" x1="-266.48" y1="921.25" x2="238.24" y2="416.53"/><line class="cls-1" x1="-257.34" y1="930.38" x2="247.38" y2="425.67"/><line class="cls-1" x1="-248.2" y1="939.52" x2="256.52" y2="434.8"/><line class="cls-1" x1="-239.06" y1="948.66" x2="265.66" y2="443.94"/><line class="cls-1" x1="-229.92" y1="957.8" x2="274.8" y2="453.08"/><line class="cls-1" x1="-220.78" y1="966.94" x2="283.94" y2="462.22"/><line class="cls-1" x1="-211.64" y1="976.08" x2="293.08" y2="471.36"/><line class="cls-1" x1="-202.5" y1="985.22" x2="302.21" y2="480.5"/><line class="cls-1" x1="-193.37" y1="994.36" x2="311.35" y2="489.64"/><line class="cls-1" x1="-184.23" y1="1003.5" x2="320.49" y2="498.78"/><line class="cls-1" x1="-175.09" y1="1012.64" x2="329.63" y2="507.92"/><line class="cls-1" x1="-165.95" y1="1021.78" x2="338.77" y2="517.06"/><line class="cls-1" x1="-156.81" y1="1030.92" x2="347.91" y2="526.2"/><line class="cls-1" x1="-147.67" y1="1040.06" x2="357.05" y2="535.34"/><line class="cls-1" x1="-138.53" y1="1049.2" x2="366.19" y2="544.48"/><line class="cls-1" x1="-129.39" y1="1058.34" x2="375.33" y2="553.62"/><line class="cls-1" x1="-120.25" y1="1067.47" x2="384.47" y2="562.76"/><line class="cls-1" x1="-111.11" y1="1076.61" x2="393.61" y2="571.89"/><line class="cls-1" x1="-101.97" y1="1085.75" x2="402.75" y2="581.03"/><line class="cls-1" x1="-92.83" y1="1094.89" x2="411.89" y2="590.17"/><line class="cls-1" x1="-83.69" y1="1104.03" x2="421.03" y2="599.31"/><line class="cls-1" x1="-74.55" y1="1113.17" x2="430.17" y2="608.45"/><line class="cls-1" x1="-65.41" y1="1122.31" x2="439.31" y2="617.59"/><line class="cls-1" x1="-56.27" y1="1131.45" x2="448.44" y2="626.73"/><line class="cls-1" x1="-47.14" y1="1140.59" x2="457.58" y2="635.87"/></g><path class="cls-1" d="M-149.84,532.21h0a8.12,8.12,0,0,1,8.12,8.12v4.73a0,0,0,0,1,0,0H-158a0,0,0,0,1,0,0v-4.73A8.12,8.12,0,0,1-149.84,532.21Z"/><g class="cls-5"><line class="cls-1" x1="-504.1" y1="815.93" x2="0.62" y2="311.21"/><line class="cls-1" x1="-494.96" y1="825.06" x2="9.76" y2="320.35"/><line class="cls-1" x1="-485.82" y1="834.2" x2="18.89" y2="329.48"/><line class="cls-1" x1="-476.69" y1="843.34" x2="28.03" y2="338.62"/><line class="cls-1" x1="-467.55" y1="852.48" x2="37.17" y2="347.76"/><line class="cls-1" x1="-458.41" y1="861.62" x2="46.31" y2="356.9"/><line class="cls-1" x1="-449.27" y1="870.76" x2="55.45" y2="366.04"/><line class="cls-1" x1="-440.13" y1="879.9" x2="64.59" y2="375.18"/><line class="cls-1" x1="-430.99" y1="889.04" x2="73.73" y2="384.32"/><line class="cls-1" x1="-421.85" y1="898.18" x2="82.87" y2="393.46"/><line class="cls-1" x1="-412.71" y1="907.32" x2="92.01" y2="402.6"/><line class="cls-1" x1="-403.57" y1="916.46" x2="101.15" y2="411.74"/><line class="cls-1" x1="-394.43" y1="925.6" x2="110.29" y2="420.88"/><line class="cls-1" x1="-385.29" y1="934.74" x2="119.43" y2="430.02"/><line class="cls-1" x1="-376.15" y1="943.88" x2="128.57" y2="439.16"/><line class="cls-1" x1="-367.01" y1="953.02" x2="137.71" y2="448.3"/><line class="cls-1" x1="-357.87" y1="962.15" x2="146.85" y2="457.44"/><line class="cls-1" x1="-348.73" y1="971.29" x2="155.99" y2="466.57"/><line class="cls-1" x1="-339.6" y1="980.43" x2="165.12" y2="475.71"/><line class="cls-1" x1="-330.46" y1="989.57" x2="174.26" y2="484.85"/><line class="cls-1" x1="-321.32" y1="998.71" x2="183.4" y2="493.99"/><line class="cls-1" x1="-312.18" y1="1007.85" x2="192.54" y2="503.13"/><line class="cls-1" x1="-303.04" y1="1016.99" x2="201.68" y2="512.27"/><line class="cls-1" x1="-293.9" y1="1026.13" x2="210.82" y2="521.41"/><line class="cls-1" x1="-284.76" y1="1035.27" x2="219.96" y2="530.55"/><line class="cls-1" x1="-275.62" y1="1044.41" x2="229.1" y2="539.69"/><line class="cls-1" x1="-266.48" y1="1053.55" x2="238.24" y2="548.83"/><line class="cls-1" x1="-257.34" y1="1062.69" x2="247.38" y2="557.97"/><line class="cls-1" x1="-248.2" y1="1071.83" x2="256.52" y2="567.11"/><line class="cls-1" x1="-239.06" y1="1080.97" x2="265.66" y2="576.25"/><line class="cls-1" x1="-229.92" y1="1090.11" x2="274.8" y2="585.39"/><line class="cls-1" x1="-220.78" y1="1099.25" x2="283.94" y2="594.53"/><line class="cls-1" x1="-211.64" y1="1108.38" x2="293.08" y2="603.67"/><line class="cls-1" x1="-202.5" y1="1117.52" x2="302.21" y2="612.8"/><line class="cls-1" x1="-193.37" y1="1126.66" x2="311.35" y2="621.94"/><line class="cls-1" x1="-184.23" y1="1135.8" x2="320.49" y2="631.08"/><line class="cls-1" x1="-175.09" y1="1144.94" x2="329.63" y2="640.22"/><line class="cls-1" x1="-165.95" y1="1154.08" x2="338.77" y2="649.36"/><line class="cls-1" x1="-156.81" y1="1163.22" x2="347.91" y2="658.5"/><line class="cls-1" x1="-147.67" y1="1172.36" x2="357.05" y2="667.64"/><line class="cls-1" x1="-138.53" y1="1181.5" x2="366.19" y2="676.78"/><line class="cls-1" x1="-129.39" y1="1190.64" x2="375.33" y2="685.92"/><line class="cls-1" x1="-120.25" y1="1199.78" x2="384.47" y2="695.06"/><line class="cls-1" x1="-111.11" y1="1208.92" x2="393.61" y2="704.2"/></g><path class="cls-1" d="M-96.85,545.06h-16.23l.47-47.24a8.11,8.11,0,0,1,8.12-8.11h0a8.12,8.12,0,0,1,8.12,8.11Z"/><g class="cls-6"><line class="cls-1" x1="-498.94" y1="944.43" x2="5.78" y2="439.71"/><line class="cls-1" x1="-489.8" y1="953.57" x2="14.92" y2="448.85"/><line class="cls-1" x1="-480.66" y1="962.71" x2="24.06" y2="457.99"/><line class="cls-1" x1="-471.52" y1="971.85" x2="33.2" y2="467.13"/><line class="cls-1" x1="-462.38" y1="980.99" x2="42.34" y2="476.27"/><line class="cls-1" x1="-453.25" y1="990.13" x2="51.47" y2="485.41"/><line class="cls-1" x1="-444.11" y1="999.27" x2="60.61" y2="494.55"/><line class="cls-1" x1="-434.97" y1="1008.41" x2="69.75" y2="503.69"/><line class="cls-1" x1="-425.83" y1="1017.55" x2="78.89" y2="512.83"/><line class="cls-1" x1="-416.69" y1="1026.69" x2="88.03" y2="521.97"/><line class="cls-1" x1="-407.55" y1="1035.82" x2="97.17" y2="531.1"/><line class="cls-1" x1="-398.41" y1="1044.96" x2="106.31" y2="540.24"/><line class="cls-1" x1="-389.27" y1="1054.1" x2="115.45" y2="549.38"/><line class="cls-1" x1="-380.13" y1="1063.24" x2="124.59" y2="558.52"/><line class="cls-1" x1="-370.99" y1="1072.38" x2="133.73" y2="567.66"/><line class="cls-1" x1="-361.85" y1="1081.52" x2="142.87" y2="576.8"/><line class="cls-1" x1="-352.71" y1="1090.66" x2="152.01" y2="585.94"/><line class="cls-1" x1="-343.57" y1="1099.8" x2="161.15" y2="595.08"/><line class="cls-1" x1="-334.43" y1="1108.94" x2="170.29" y2="604.22"/><line class="cls-1" x1="-325.29" y1="1118.08" x2="179.43" y2="613.36"/><line class="cls-1" x1="-316.15" y1="1127.22" x2="188.57" y2="622.5"/><line class="cls-1" x1="-307.02" y1="1136.36" x2="197.7" y2="631.64"/><line class="cls-1" x1="-297.88" y1="1145.5" x2="206.84" y2="640.78"/><line class="cls-1" x1="-288.74" y1="1154.64" x2="215.98" y2="649.92"/><line class="cls-1" x1="-279.6" y1="1163.78" x2="225.12" y2="659.06"/><line class="cls-1" x1="-270.46" y1="1172.91" x2="234.26" y2="668.2"/><line class="cls-1" x1="-261.32" y1="1182.05" x2="243.4" y2="677.33"/><line class="cls-1" x1="-252.18" y1="1191.19" x2="252.54" y2="686.47"/><line class="cls-1" x1="-243.04" y1="1200.33" x2="261.68" y2="695.61"/><line class="cls-1" x1="-233.9" y1="1209.47" x2="270.82" y2="704.75"/><line class="cls-1" x1="-224.76" y1="1218.61" x2="279.96" y2="713.89"/><line class="cls-1" x1="-215.62" y1="1227.75" x2="289.1" y2="723.03"/><line class="cls-1" x1="-206.48" y1="1236.89" x2="298.24" y2="732.17"/><line class="cls-1" x1="-197.34" y1="1246.03" x2="307.38" y2="741.31"/><line class="cls-1" x1="-188.2" y1="1255.17" x2="316.52" y2="750.45"/><line class="cls-1" x1="-179.06" y1="1264.31" x2="325.66" y2="759.59"/><line class="cls-1" x1="-169.92" y1="1273.45" x2="334.79" y2="768.73"/><line class="cls-1" x1="-160.79" y1="1282.59" x2="343.93" y2="777.87"/><line class="cls-1" x1="-151.65" y1="1291.73" x2="353.07" y2="787.01"/><line class="cls-1" x1="-142.51" y1="1300.87" x2="362.21" y2="796.15"/></g><path class="cls-1" d="M-285.87,527.41h0a8.12,8.12,0,0,1,8.12,8.12v9.18a0,0,0,0,1,0,0H-294a0,0,0,0,1,0,0v-9.18A8.12,8.12,0,0,1-285.87,527.41Z"/><g class="cls-7"><line class="cls-1" x1="-498.94" y1="831.62" x2="5.78" y2="326.9"/><line class="cls-1" x1="-489.8" y1="840.76" x2="14.92" y2="336.04"/><line class="cls-1" x1="-480.66" y1="849.9" x2="24.06" y2="345.18"/><line class="cls-1" x1="-471.52" y1="859.04" x2="33.2" y2="354.32"/><line class="cls-1" x1="-462.38" y1="868.18" x2="42.34" y2="363.46"/><line class="cls-1" x1="-453.25" y1="877.32" x2="51.47" y2="372.6"/><line class="cls-1" x1="-444.11" y1="886.46" x2="60.61" y2="381.74"/><line class="cls-1" x1="-434.97" y1="895.6" x2="69.75" y2="390.88"/><line class="cls-1" x1="-425.83" y1="904.74" x2="78.89" y2="400.02"/><line class="cls-1" x1="-416.69" y1="913.88" x2="88.03" y2="409.16"/><line class="cls-1" x1="-407.55" y1="923.02" x2="97.17" y2="418.3"/><line class="cls-1" x1="-398.41" y1="932.15" x2="106.31" y2="427.44"/><line class="cls-1" x1="-389.27" y1="941.29" x2="115.45" y2="436.57"/><line class="cls-1" x1="-380.13" y1="950.43" x2="124.59" y2="445.71"/><line class="cls-1" x1="-370.99" y1="959.57" x2="133.73" y2="454.85"/><line class="cls-1" x1="-361.85" y1="968.71" x2="142.87" y2="463.99"/><line class="cls-1" x1="-352.71" y1="977.85" x2="152.01" y2="473.13"/><line class="cls-1" x1="-343.57" y1="986.99" x2="161.15" y2="482.27"/><line class="cls-1" x1="-334.43" y1="996.13" x2="170.29" y2="491.41"/><line class="cls-1" x1="-325.29" y1="1005.27" x2="179.43" y2="500.55"/><line class="cls-1" x1="-316.15" y1="1014.41" x2="188.57" y2="509.69"/><line class="cls-1" x1="-307.02" y1="1023.55" x2="197.7" y2="518.83"/><line class="cls-1" x1="-297.88" y1="1032.69" x2="206.84" y2="527.97"/><line class="cls-1" x1="-288.74" y1="1041.83" x2="215.98" y2="537.11"/><line class="cls-1" x1="-279.6" y1="1050.97" x2="225.12" y2="546.25"/><line class="cls-1" x1="-270.46" y1="1060.11" x2="234.26" y2="555.39"/><line class="cls-1" x1="-261.32" y1="1069.24" x2="243.4" y2="564.53"/><line class="cls-1" x1="-252.18" y1="1078.38" x2="252.54" y2="573.66"/><line class="cls-1" x1="-243.04" y1="1087.52" x2="261.68" y2="582.8"/><line class="cls-1" x1="-233.9" y1="1096.66" x2="270.82" y2="591.94"/><line class="cls-1" x1="-224.76" y1="1105.8" x2="279.96" y2="601.08"/><line class="cls-1" x1="-215.62" y1="1114.94" x2="289.1" y2="610.22"/><line class="cls-1" x1="-206.48" y1="1124.08" x2="298.24" y2="619.36"/><line class="cls-1" x1="-197.34" y1="1133.22" x2="307.38" y2="628.5"/><line class="cls-1" x1="-188.2" y1="1142.36" x2="316.52" y2="637.64"/><line class="cls-1" x1="-179.06" y1="1151.5" x2="325.66" y2="646.78"/><line class="cls-1" x1="-169.92" y1="1160.64" x2="334.79" y2="655.92"/><line class="cls-1" x1="-160.79" y1="1169.78" x2="343.93" y2="665.06"/><line class="cls-1" x1="-151.65" y1="1178.92" x2="353.07" y2="674.2"/><line class="cls-1" x1="-142.51" y1="1188.06" x2="362.21" y2="683.34"/></g><path class="cls-1" d="M-331.21,532.21h0a8.12,8.12,0,0,1,8.12,8.12v4.73a0,0,0,0,1,0,0h-16.24a0,0,0,0,1,0,0v-4.73A8.12,8.12,0,0,1-331.21,532.21Z"/><g class="cls-8"><line class="cls-1" x1="-504.1" y1="843.34" x2="0.62" y2="338.62"/><line class="cls-1" x1="-494.96" y1="852.48" x2="9.76" y2="347.76"/><line class="cls-1" x1="-485.82" y1="861.62" x2="18.89" y2="356.9"/><line class="cls-1" x1="-476.69" y1="870.76" x2="28.03" y2="366.04"/><line class="cls-1" x1="-467.55" y1="879.9" x2="37.17" y2="375.18"/><line class="cls-1" x1="-458.41" y1="889.04" x2="46.31" y2="384.32"/><line class="cls-1" x1="-449.27" y1="898.18" x2="55.45" y2="393.46"/><line class="cls-1" x1="-440.13" y1="907.32" x2="64.59" y2="402.6"/><line class="cls-1" x1="-430.99" y1="916.46" x2="73.73" y2="411.74"/><line class="cls-1" x1="-421.85" y1="925.6" x2="82.87" y2="420.88"/><line class="cls-1" x1="-412.71" y1="934.74" x2="92.01" y2="430.02"/><line class="cls-1" x1="-403.57" y1="943.88" x2="101.15" y2="439.16"/><line class="cls-1" x1="-394.43" y1="953.02" x2="110.29" y2="448.3"/><line class="cls-1" x1="-385.29" y1="962.15" x2="119.43" y2="457.44"/><line class="cls-1" x1="-376.15" y1="971.29" x2="128.57" y2="466.57"/><line class="cls-1" x1="-367.01" y1="980.43" x2="137.71" y2="475.71"/><line class="cls-1" x1="-357.87" y1="989.57" x2="146.85" y2="484.85"/><line class="cls-1" x1="-348.73" y1="998.71" x2="155.99" y2="493.99"/><line class="cls-1" x1="-339.6" y1="1007.85" x2="165.12" y2="503.13"/><line class="cls-1" x1="-330.46" y1="1016.99" x2="174.26" y2="512.27"/><line class="cls-1" x1="-321.32" y1="1026.13" x2="183.4" y2="521.41"/><line class="cls-1" x1="-312.18" y1="1035.27" x2="192.54" y2="530.55"/><line class="cls-1" x1="-303.04" y1="1044.41" x2="201.68" y2="539.69"/><line class="cls-1" x1="-293.9" y1="1053.55" x2="210.82" y2="548.83"/><line class="cls-1" x1="-284.76" y1="1062.69" x2="219.96" y2="557.97"/><line class="cls-1" x1="-275.62" y1="1071.83" x2="229.1" y2="567.11"/><line class="cls-1" x1="-266.48" y1="1080.97" x2="238.24" y2="576.25"/><line class="cls-1" x1="-257.34" y1="1090.11" x2="247.38" y2="585.39"/><line class="cls-1" x1="-248.2" y1="1099.25" x2="256.52" y2="594.53"/><line class="cls-1" x1="-239.06" y1="1108.38" x2="265.66" y2="603.66"/><line class="cls-1" x1="-229.92" y1="1117.52" x2="274.8" y2="612.8"/><line class="cls-1" x1="-220.78" y1="1126.66" x2="283.94" y2="621.94"/><line class="cls-1" x1="-211.64" y1="1135.8" x2="293.08" y2="631.08"/><line class="cls-1" x1="-202.5" y1="1144.94" x2="302.21" y2="640.22"/><line class="cls-1" x1="-193.37" y1="1154.08" x2="311.35" y2="649.36"/><line class="cls-1" x1="-184.23" y1="1163.22" x2="320.49" y2="658.5"/><line class="cls-1" x1="-175.09" y1="1172.36" x2="329.63" y2="667.64"/><line class="cls-1" x1="-165.95" y1="1181.5" x2="338.77" y2="676.78"/></g><path class="cls-1" d="M-376.56,529.41h0a8.12,8.12,0,0,1,8.12,8.12v7.18a0,0,0,0,1,0,0h-16.24a0,0,0,0,1,0,0v-7.18A8.12,8.12,0,0,1-376.56,529.41Z"/><g class="cls-9"><line class="cls-1" x1="-497.39" y1="879.9" x2="7.32" y2="375.18"/><line class="cls-1" x1="-488.26" y1="889.04" x2="16.46" y2="384.32"/><line class="cls-1" x1="-479.12" y1="898.18" x2="25.6" y2="393.46"/><line class="cls-1" x1="-469.98" y1="907.32" x2="34.74" y2="402.6"/><line class="cls-1" x1="-460.84" y1="916.46" x2="43.88" y2="411.74"/><line class="cls-1" x1="-451.7" y1="925.6" x2="53.02" y2="420.88"/><line class="cls-1" x1="-442.56" y1="934.74" x2="62.16" y2="430.02"/><line class="cls-1" x1="-433.42" y1="943.88" x2="71.3" y2="439.16"/><line class="cls-1" x1="-424.28" y1="953.02" x2="80.44" y2="448.3"/><line class="cls-1" x1="-415.14" y1="962.15" x2="89.58" y2="457.44"/><line class="cls-1" x1="-406" y1="971.29" x2="98.72" y2="466.57"/><line class="cls-1" x1="-396.86" y1="980.43" x2="107.86" y2="475.71"/><line class="cls-1" x1="-387.72" y1="989.57" x2="117" y2="484.85"/><line class="cls-1" x1="-378.58" y1="998.71" x2="126.14" y2="493.99"/><line class="cls-1" x1="-369.44" y1="1007.85" x2="135.28" y2="503.13"/><line class="cls-1" x1="-360.3" y1="1016.99" x2="144.42" y2="512.27"/><line class="cls-1" x1="-351.17" y1="1026.13" x2="153.55" y2="521.41"/><line class="cls-1" x1="-342.03" y1="1035.27" x2="162.69" y2="530.55"/><line class="cls-1" x1="-332.89" y1="1044.41" x2="171.83" y2="539.69"/><line class="cls-1" x1="-323.75" y1="1053.55" x2="180.97" y2="548.83"/><line class="cls-1" x1="-314.61" y1="1062.69" x2="190.11" y2="557.97"/><line class="cls-1" x1="-305.47" y1="1071.83" x2="199.25" y2="567.11"/><line class="cls-1" x1="-296.33" y1="1080.97" x2="208.39" y2="576.25"/><line class="cls-1" x1="-287.19" y1="1090.11" x2="217.53" y2="585.39"/><line class="cls-1" x1="-278.05" y1="1099.25" x2="226.67" y2="594.53"/><line class="cls-1" x1="-268.91" y1="1108.38" x2="235.81" y2="603.67"/><line class="cls-1" x1="-259.77" y1="1117.52" x2="244.95" y2="612.8"/><line class="cls-1" x1="-250.63" y1="1126.66" x2="254.09" y2="621.94"/><line class="cls-1" x1="-241.49" y1="1135.8" x2="263.23" y2="631.08"/><line class="cls-1" x1="-232.35" y1="1144.94" x2="272.37" y2="640.22"/><line class="cls-1" x1="-223.21" y1="1154.08" x2="281.51" y2="649.36"/><line class="cls-1" x1="-214.07" y1="1163.22" x2="290.65" y2="658.5"/><line class="cls-1" x1="-204.94" y1="1172.36" x2="299.78" y2="667.64"/></g><path class="cls-1" d="M-421.9,298.69h0a8.12,8.12,0,0,1,8.12,8.12V545.06a0,0,0,0,1,0,0H-430a0,0,0,0,1,0,0V306.81a8.12,8.12,0,0,1,8.12-8.12Z"/><g class="cls-10"><line class="cls-1" x1="-499.02" y1="751.22" x2="5.7" y2="246.5"/><line class="cls-1" x1="-489.89" y1="760.36" x2="14.83" y2="255.64"/><line class="cls-1" x1="-480.75" y1="769.5" x2="23.97" y2="264.78"/><line class="cls-1" x1="-471.61" y1="778.64" x2="33.11" y2="273.92"/><line class="cls-1" x1="-462.47" y1="787.78" x2="42.25" y2="283.06"/><line class="cls-1" x1="-453.33" y1="796.92" x2="51.39" y2="292.2"/><line class="cls-1" x1="-444.19" y1="806.06" x2="60.53" y2="301.34"/><line class="cls-1" x1="-435.05" y1="815.2" x2="69.67" y2="310.48"/><line class="cls-1" x1="-425.91" y1="824.34" x2="78.81" y2="319.62"/><line class="cls-1" x1="-416.77" y1="833.47" x2="87.95" y2="328.76"/><line class="cls-1" x1="-407.63" y1="842.61" x2="97.09" y2="337.89"/><line class="cls-1" x1="-398.49" y1="851.75" x2="106.23" y2="347.03"/><line class="cls-1" x1="-389.35" y1="860.89" x2="115.37" y2="356.17"/><line class="cls-1" x1="-380.21" y1="870.03" x2="124.51" y2="365.31"/><line class="cls-1" x1="-371.07" y1="879.17" x2="133.65" y2="374.45"/><line class="cls-1" x1="-361.93" y1="888.31" x2="142.79" y2="383.59"/><line class="cls-1" x1="-352.79" y1="897.45" x2="151.92" y2="392.73"/><line class="cls-1" x1="-343.66" y1="906.59" x2="161.06" y2="401.87"/><line class="cls-1" x1="-334.52" y1="915.73" x2="170.2" y2="411.01"/><line class="cls-1" x1="-325.38" y1="924.87" x2="179.34" y2="420.15"/><line class="cls-1" x1="-316.24" y1="934.01" x2="188.48" y2="429.29"/><line class="cls-1" x1="-307.1" y1="943.15" x2="197.62" y2="438.43"/><line class="cls-1" x1="-297.96" y1="952.29" x2="206.76" y2="447.57"/><line class="cls-1" x1="-288.82" y1="961.43" x2="215.9" y2="456.71"/><line class="cls-1" x1="-279.68" y1="970.56" x2="225.04" y2="465.85"/></g><path class="cls-1" d="M-467.24,524.82h0a8.12,8.12,0,0,1,8.12,8.12v12.18a0,0,0,0,1,0,0h-16.24a0,0,0,0,1,0,0V532.93a8.12,8.12,0,0,1,8.12-8.12Z"/><g class="cls-11"><line class="cls-1" x1="-504.1" y1="1001.97" x2="0.62" y2="497.25"/><line class="cls-1" x1="-494.96" y1="1011.11" x2="9.76" y2="506.39"/><line class="cls-1" x1="-485.82" y1="1020.25" x2="18.89" y2="515.53"/><line class="cls-1" x1="-476.69" y1="1029.39" x2="28.03" y2="524.67"/><line class="cls-1" x1="-467.55" y1="1038.53" x2="37.17" y2="533.81"/><line class="cls-1" x1="-458.41" y1="1047.67" x2="46.31" y2="542.95"/><line class="cls-1" x1="-449.27" y1="1056.81" x2="55.45" y2="552.09"/><line class="cls-1" x1="-440.13" y1="1065.95" x2="64.59" y2="561.23"/><line class="cls-1" x1="-430.99" y1="1075.09" x2="73.73" y2="570.37"/><line class="cls-1" x1="-421.85" y1="1084.23" x2="82.87" y2="579.51"/><line class="cls-1" x1="-412.71" y1="1093.37" x2="92.01" y2="588.65"/><line class="cls-1" x1="-403.57" y1="1102.51" x2="101.15" y2="597.79"/><line class="cls-1" x1="-394.43" y1="1111.64" x2="110.29" y2="606.93"/><line class="cls-1" x1="-385.29" y1="1120.78" x2="119.43" y2="616.06"/><line class="cls-1" x1="-376.15" y1="1129.92" x2="128.57" y2="625.2"/><line class="cls-1" x1="-367.01" y1="1139.06" x2="137.71" y2="634.34"/><line class="cls-1" x1="-357.87" y1="1148.2" x2="146.85" y2="643.48"/><line class="cls-1" x1="-348.73" y1="1157.34" x2="155.99" y2="652.62"/><line class="cls-1" x1="-339.6" y1="1166.48" x2="165.12" y2="661.76"/><line class="cls-1" x1="-330.46" y1="1175.62" x2="174.26" y2="670.9"/></g><path class="cls-1" d="M-512.59,518.06h0a8.12,8.12,0,0,1,8.12,8.12v18.88a0,0,0,0,1,0,0h-16.24a0,0,0,0,1,0,0V526.18A8.12,8.12,0,0,1-512.59,518.06Z"/><g class="cls-12"><line class="cls-1" x1="-498.22" y1="1020.25" x2="6.5" y2="515.53"/><line class="cls-1" x1="-489.09" y1="1029.39" x2="15.63" y2="524.67"/><line class="cls-1" x1="-479.95" y1="1038.53" x2="24.77" y2="533.81"/><line class="cls-1" x1="-470.81" y1="1047.67" x2="33.91" y2="542.95"/><line class="cls-1" x1="-461.67" y1="1056.81" x2="43.05" y2="552.09"/><line class="cls-1" x1="-452.53" y1="1065.95" x2="52.19" y2="561.23"/><line class="cls-1" x1="-443.39" y1="1075.09" x2="61.33" y2="570.37"/><line class="cls-1" x1="-434.25" y1="1084.23" x2="70.47" y2="579.51"/><line class="cls-1" x1="-425.11" y1="1093.37" x2="79.61" y2="588.65"/><line class="cls-1" x1="-415.97" y1="1102.51" x2="88.75" y2="597.79"/><line class="cls-1" x1="-406.83" y1="1111.64" x2="97.89" y2="606.93"/><line class="cls-1" x1="-397.69" y1="1120.78" x2="107.03" y2="616.06"/><line class="cls-1" x1="-388.55" y1="1129.92" x2="116.17" y2="625.2"/><line class="cls-1" x1="-379.41" y1="1139.06" x2="125.31" y2="634.34"/><line class="cls-1" x1="-370.27" y1="1148.2" x2="134.45" y2="643.48"/><line class="cls-1" x1="-361.13" y1="1157.34" x2="143.59" y2="652.62"/><line class="cls-1" x1="-351.99" y1="1166.48" x2="152.73" y2="661.76"/><line class="cls-1" x1="-342.86" y1="1175.62" x2="161.86" y2="670.9"/></g><path class="cls-1" d="M-557.93,519.36h0a8.12,8.12,0,0,1,8.12,8.12v17.58a0,0,0,0,1,0,0H-566a0,0,0,0,1,0,0V527.48A8.12,8.12,0,0,1-557.93,519.36Z"/><g class="cls-13"><line class="cls-1" x1="-497.93" y1="947.49" x2="6.79" y2="442.77"/><line class="cls-1" x1="-488.79" y1="956.63" x2="15.93" y2="451.91"/><line class="cls-1" x1="-479.65" y1="965.77" x2="25.07" y2="461.05"/><line class="cls-1" x1="-470.51" y1="974.91" x2="34.21" y2="470.19"/><line class="cls-1" x1="-461.37" y1="984.05" x2="43.35" y2="479.33"/><line class="cls-1" x1="-452.23" y1="993.19" x2="52.49" y2="488.47"/><line class="cls-1" x1="-443.09" y1="1002.33" x2="61.63" y2="497.61"/><line class="cls-1" x1="-433.95" y1="1011.47" x2="70.77" y2="506.75"/><line class="cls-1" x1="-424.81" y1="1020.61" x2="79.91" y2="515.89"/><line class="cls-1" x1="-415.67" y1="1029.75" x2="89.05" y2="525.03"/><line class="cls-1" x1="-406.54" y1="1038.89" x2="98.18" y2="534.17"/><line class="cls-1" x1="-397.4" y1="1048.03" x2="107.32" y2="543.31"/><line class="cls-1" x1="-388.26" y1="1057.16" x2="116.46" y2="552.45"/><line class="cls-1" x1="-379.12" y1="1066.3" x2="125.6" y2="561.58"/><line class="cls-1" x1="-369.98" y1="1075.44" x2="134.74" y2="570.72"/><line class="cls-1" x1="-360.84" y1="1084.58" x2="143.88" y2="579.86"/><line class="cls-1" x1="-351.7" y1="1093.72" x2="153.02" y2="589"/><line class="cls-1" x1="-342.56" y1="1102.86" x2="162.16" y2="598.14"/><line class="cls-1" x1="-333.42" y1="1112" x2="171.3" y2="607.28"/><line class="cls-1" x1="-324.28" y1="1121.14" x2="180.44" y2="616.42"/></g><path class="cls-1" d="M-603.27,529.36h0a8.12,8.12,0,0,1,8.12,8.12v7.58a0,0,0,0,1,0,0h-16.24a0,0,0,0,1,0,0v-7.58A8.12,8.12,0,0,1-603.27,529.36Z"/><g class="cls-14"><line class="cls-1" x1="-501.04" y1="956.72" x2="3.68" y2="452"/><line class="cls-1" x1="-491.9" y1="965.86" x2="12.82" y2="461.14"/><line class="cls-1" x1="-482.76" y1="974.99" x2="21.96" y2="470.28"/><line class="cls-1" x1="-473.62" y1="984.13" x2="31.1" y2="479.41"/><line class="cls-1" x1="-464.48" y1="993.27" x2="40.24" y2="488.55"/><line class="cls-1" x1="-455.34" y1="1002.41" x2="49.38" y2="497.69"/><line class="cls-1" x1="-446.2" y1="1011.55" x2="58.52" y2="506.83"/><line class="cls-1" x1="-437.06" y1="1020.69" x2="67.66" y2="515.97"/><line class="cls-1" x1="-427.92" y1="1029.83" x2="76.8" y2="525.11"/><line class="cls-1" x1="-418.78" y1="1038.97" x2="85.94" y2="534.25"/><line class="cls-1" x1="-409.64" y1="1048.11" x2="95.08" y2="543.39"/><line class="cls-1" x1="-400.5" y1="1057.25" x2="104.21" y2="552.53"/></g><path class="cls-1" d="M-648.62,522.82h0a8.12,8.12,0,0,1,8.12,8.12v14.13a0,0,0,0,1,0,0h-16.24a0,0,0,0,1,0,0V530.93A8.12,8.12,0,0,1-648.62,522.82Z"/><g class="cls-15"><line class="cls-1" x1="-501.64" y1="1085.75" x2="3.07" y2="581.03"/><line class="cls-1" x1="-492.51" y1="1094.89" x2="12.21" y2="590.17"/><line class="cls-1" x1="-483.37" y1="1104.03" x2="21.35" y2="599.31"/><line class="cls-1" x1="-474.23" y1="1113.17" x2="30.49" y2="608.45"/><line class="cls-1" x1="-465.09" y1="1122.31" x2="39.63" y2="617.59"/><line class="cls-1" x1="-455.95" y1="1131.45" x2="48.77" y2="626.73"/><line class="cls-1" x1="-446.81" y1="1140.59" x2="57.91" y2="635.87"/></g><path class="cls-1" d="M500,417.5,255.7,732c-2.09-1.62-4.16-3.27-6.22-4.93s-4.1-3.35-6.12-5.06Z"/><path class="cls-2" d="M500,417.5l-256.09,305a398.21,398.21,0,0,1-129.28-204.6Z"/><path class="cls-16" d="M500,417.5l-385.71,99a398.15,398.15,0,0,1-12.51-99C101.78,199,281.54,19.28,500,19.28q3.75,0,7.51.07Z"/><text class="cls-17" transform="translate(47.01 148.84)">Vi<tspan class="cls-18" x="17.58" y="0">r</tspan><tspan x="24.83" y="0">tual - 169</tspan><tspan x="35.06" y="24">29%</tspan></text><text class="cls-17" transform="translate(37.05 745.72)">Semi - P<tspan class="cls-19" x="72.88" y="0">r</tspan><tspan x="79.46" y="0">esencial - 51</tspan><tspan x="82.53" y="24">9%</tspan></text><text class="cls-17" transform="translate(250.89 884.52)">P<tspan class="cls-19" x="12.62" y="0">r</tspan><tspan x="19.2" y="0">esencial Senior - 3</tspan><tspan class="cls-20"><tspan x="77.43" y="24">0%</tspan></tspan></text><path class="cls-2" d="M1307.4,550.68h-19.75L1284.58,357c0-4.48,4.42-8.12,9.88-8.12h0c5.45,0,9.87,3.64,9.87,8.12Z"/><g class="cls-21"><line class="cls-2" x1="957.21" y1="524.75" x2="1571.13" y2="20.03"/><line class="cls-2" x1="968.33" y1="533.89" x2="1582.25" y2="29.17"/><line class="cls-2" x1="979.45" y1="543.03" x2="1593.36" y2="38.31"/><line class="cls-2" x1="990.56" y1="552.17" x2="1604.48" y2="47.45"/></g><path class="cls-2" d="M1248,550.68h-19.75l.58-305.53c0-4.48,4.42-8.12,9.88-8.12h0c5.45,0,9.87,3.64,9.87,8.12Z"/><g class="cls-22"><line class="cls-2" x1="901.47" y1="412.93" x2="1515.39" y2="-91.79"/><line class="cls-2" x1="912.59" y1="422.07" x2="1526.51" y2="-82.65"/><line class="cls-2" x1="923.71" y1="431.21" x2="1537.62" y2="-73.51"/><line class="cls-2" x1="934.82" y1="440.35" x2="1548.74" y2="-64.37"/><line class="cls-2" x1="945.94" y1="449.49" x2="1559.86" y2="-55.23"/><line class="cls-2" x1="957.06" y1="458.63" x2="1570.97" y2="-46.09"/><line class="cls-2" x1="968.17" y1="467.77" x2="1582.09" y2="-36.95"/><line class="cls-2" x1="979.29" y1="476.91" x2="1593.21" y2="-27.81"/><line class="cls-2" x1="990.41" y1="486.05" x2="1604.32" y2="-18.67"/></g><path class="cls-2" d="M1192.27,550.68h-19.75L1173.69,153c0-4.48,4.42-8.12,9.87-8.12h0c5.46,0,9.88,3.64,9.88,8.12Z"/><g class="cls-23"><line class="cls-2" x1="846.32" y1="320.73" x2="1460.24" y2="-183.99"/><line class="cls-2" x1="857.44" y1="329.87" x2="1471.35" y2="-174.85"/><line class="cls-2" x1="868.55" y1="339.01" x2="1482.47" y2="-165.71"/><line class="cls-2" x1="879.67" y1="348.15" x2="1493.59" y2="-156.57"/><line class="cls-2" x1="890.79" y1="357.29" x2="1504.7" y2="-147.43"/><line class="cls-2" x1="901.9" y1="366.43" x2="1515.82" y2="-138.29"/><line class="cls-2" x1="913.02" y1="375.57" x2="1526.94" y2="-129.15"/><line class="cls-2" x1="924.14" y1="384.71" x2="1538.05" y2="-120.01"/><line class="cls-2" x1="935.25" y1="393.85" x2="1549.17" y2="-110.87"/><line class="cls-2" x1="946.37" y1="402.99" x2="1560.29" y2="-101.73"/><line class="cls-2" x1="957.49" y1="412.13" x2="1571.4" y2="-92.59"/><line class="cls-2" x1="968.6" y1="421.27" x2="1582.52" y2="-83.45"/><line class="cls-2" x1="979.72" y1="430.41" x2="1593.64" y2="-74.31"/><line class="cls-2" x1="990.84" y1="439.54" x2="1604.75" y2="-65.17"/></g><path class="cls-24" d="M500,417.5l8.31-398.13C723.59,23.86,898.22,202.18,898.22,417.5,898.22,636,718.46,815.72,500,815.72a398.31,398.31,0,0,1-245.07-84.34Z"/><text class="cls-17" transform="translate(827.27 144.83)">P<tspan class="cls-19" x="12.62" y="0">r</tspan><tspan x="19.2" y="0">esencial - 366</tspan><tspan x="52.4" y="24">62%</tspan></text><line class="cls-25" x1="741.83" y1="430.09" x2="844.21" y2="165.05"/><path class="cls-26" d="M745.4,431.27a3.76,3.76,0,1,1-2.15-4.86A3.76,3.76,0,0,1,745.4,431.27Z"/><path class="cls-27" d="M847.64,166.6a3.76,3.76,0,1,0-4.86,2.15A3.76,3.76,0,0,0,847.64,166.6Z"/><path class="cls-26" d="M848.11,166.78a4.26,4.26,0,1,1-2.44-5.51,4.27,4.27,0,0,1,2.44,5.51C847.26,169,849,164.59,848.11,166.78Zm-7-2.71a3.26,3.26,0,1,0,4.22-1.87,3.27,3.27,0,0,0-4.22,1.87Z"/><line class="cls-25" x1="294.59" y1="675.28" x2="333.45" y2="845.88"/><path class="cls-26" d="M291,676.3a3.76,3.76,0,1,1,4.5,2.83A3.76,3.76,0,0,1,291,676.3Z"/><path class="cls-27" d="M329.74,846.5a3.76,3.76,0,1,0,2.83-4.5A3.76,3.76,0,0,0,329.74,846.5Z"/><path class="cls-26" d="M329.25,846.62a4.26,4.26,0,1,1,5.1,3.2,4.27,4.27,0,0,1-5.1-3.2Zm7.33-1.67a3.26,3.26,0,1,0-2.45,3.9,3.26,3.26,0,0,0,2.45-3.9C336.18,843.19,337,846.7,336.58,845Z"/><line class="cls-25" x1="310.5" y1="164.85" x2="148.29" y2="164.85"/><circle class="cls-26" cx="310.32" cy="164.85" r="3.76"/><circle class="cls-27" cx="148.5" cy="164.85" r="3.76"/><path class="cls-26" d="M148.5,160.59a4.26,4.26,0,1,1-4.26,4.26,4.26,4.26,0,0,1,4.26-4.26Zm0,7.52a3.26,3.26,0,1,0-3.26-3.26,3.26,3.26,0,0,0,3.26,3.26Z"/><line class="cls-25" x1="191.38" y1="584.06" x2="134.79" y2="698.61"/><path class="cls-26" d="M187.93,582.56a3.76,3.76,0,1,1,1.7,5A3.76,3.76,0,0,1,187.93,582.56Z"/><path class="cls-27" d="M131.51,696.76a3.76,3.76,0,1,0,5-1.71A3.75,3.75,0,0,0,131.51,696.76Z"/><path class="cls-26" d="M131.06,696.54a4.26,4.26,0,1,1,1.94,5.7,4.27,4.27,0,0,1-1.94-5.7Zm6.75,3.33a3.26,3.26,0,1,0-4.37,1.48,3.28,3.28,0,0,0,4.37-1.48C138.6,698.26,137,701.48,137.81,699.87Z"/></g></svg>